<svg xmlns="http://www.w3.org/2000/svg" width="201.894" height="203.236" viewBox="0 0 201.894 203.236">
  <g id="Group_7092" data-name="Group 7092" transform="translate(-1263.553 -398.382)">
    <g id="Group_7084" data-name="Group 7084" transform="translate(16812.447 -15065.383)">
      <g id="Group_3162" data-name="Group 3162" transform="translate(-15548.395 15463.765)">
        <g id="Group_3107" data-name="Group 3107" transform="translate(85.182 1.468)">
          <g id="Group_3103" data-name="Group 3103" transform="translate(10.288)">
            <rect id="Rectangle_2655" data-name="Rectangle 2655" width="1.336" height="6.501" fill="#cbdb56"/>
          </g>
          <g id="Group_3104" data-name="Group 3104" transform="translate(15.651 9.806)">
            <rect id="Rectangle_2656" data-name="Rectangle 2656" width="6.501" height="1.336" fill="#cbdb56"/>
          </g>
          <g id="Group_3105" data-name="Group 3105" transform="translate(10.288 15.531)">
            <rect id="Rectangle_2657" data-name="Rectangle 2657" width="1.336" height="6.501" fill="#cbdb56"/>
          </g>
          <g id="Group_3106" data-name="Group 3106" transform="translate(0 9.806)">
            <rect id="Rectangle_2658" data-name="Rectangle 2658" width="6.501" height="1.336" fill="#cbdb56"/>
          </g>
        </g>
        <g id="Group_3112" data-name="Group 3112" transform="translate(179.242 144.319)">
          <g id="Group_3108" data-name="Group 3108" transform="translate(10.288)">
            <rect id="Rectangle_2659" data-name="Rectangle 2659" width="1.336" height="6.501" fill="#cbdb56"/>
          </g>
          <g id="Group_3109" data-name="Group 3109" transform="translate(15.651 9.806)">
            <rect id="Rectangle_2660" data-name="Rectangle 2660" width="6.501" height="1.336" fill="#cbdb56"/>
          </g>
          <g id="Group_3110" data-name="Group 3110" transform="translate(10.288 15.531)">
            <rect id="Rectangle_2661" data-name="Rectangle 2661" width="1.336" height="6.501" fill="#cbdb56"/>
          </g>
          <g id="Group_3111" data-name="Group 3111" transform="translate(0 9.806)">
            <rect id="Rectangle_2662" data-name="Rectangle 2662" width="6.501" height="1.336" fill="#cbdb56"/>
          </g>
        </g>
        <g id="Group_3125" data-name="Group 3125" transform="translate(90.393 21.126)">
          <g id="Group_3113" data-name="Group 3113" transform="translate(45.598 88.888)">
            <path id="Path_4463" data-name="Path 4463" d="M1918.743,696.159a6.334,6.334,0,1,1,8.352-9.491l-.945.945a5,5,0,1,0-6.59,7.49Z" transform="translate(-1916.282 -684.813)" fill="#cbdb56"/>
          </g>
          <g id="Group_3114" data-name="Group 3114" transform="translate(95.544 19.975)">
            <rect id="Rectangle_2663" data-name="Rectangle 2663" width="1.336" height="58.415" fill="#cbdb56"/>
          </g>
          <g id="Group_3115" data-name="Group 3115" transform="translate(6.942 19.975)">
            <rect id="Rectangle_2664" data-name="Rectangle 2664" width="1.336" height="26.214" fill="#cbdb56"/>
          </g>
          <g id="Group_3116" data-name="Group 3116" transform="translate(34.353 34.519)">
            <path id="Path_4464" data-name="Path 4464" d="M1895.882,535.923a17.732,17.732,0,1,1,0-35.463h.668v17.064h17.064v.668A17.752,17.752,0,0,1,1895.882,535.923Zm-.668-34.114a16.4,16.4,0,1,0,17.05,17.05h-17.05Z" transform="translate(-1878.15 -500.46)" fill="#cbdb56"/>
          </g>
          <g id="Group_3117" data-name="Group 3117" transform="translate(56.833 29.373)">
            <path id="Path_4465" data-name="Path 4465" d="M1972.777,501.411h-18.4v-18.4h.668a17.752,17.752,0,0,1,17.732,17.732Zm-17.064-1.336h15.715a16.417,16.417,0,0,0-15.715-15.714Z" transform="translate(-1954.377 -483.011)" fill="#cbdb56"/>
          </g>
          <g id="Group_3118" data-name="Group 3118" transform="translate(0 9.901)">
            <path id="Path_4466" data-name="Path 4466" d="M1860.851,427.233h-94.059a5.123,5.123,0,1,1,0-10.247h94.059a5.123,5.123,0,0,1,0,10.247Zm-94.059-8.911a3.787,3.787,0,1,0,0,7.575h94.059a3.787,3.787,0,0,0,0-7.575Z" transform="translate(-1761.668 -416.986)" fill="#cbdb56"/>
          </g>
          <g id="Group_3119" data-name="Group 3119" transform="translate(41.089)">
            <path id="Path_4467" data-name="Path 4467" d="M1920.645,390.848h-1.336v-3.3a2.8,2.8,0,0,0-2.8-2.8h-11.386a2.8,2.8,0,0,0-2.8,2.8v2.959h-1.336v-2.959a4.138,4.138,0,0,1,4.133-4.133h11.386a4.138,4.138,0,0,1,4.134,4.133Z" transform="translate(-1900.992 -383.414)" fill="#cbdb56"/>
          </g>
          <g id="Group_3120" data-name="Group 3120" transform="translate(50.99 75.42)">
            <rect id="Rectangle_2665" data-name="Rectangle 2665" width="1.336" height="14.356" fill="#cbdb56"/>
          </g>
          <g id="Group_3121" data-name="Group 3121" transform="translate(39.31 81.21)">
            <rect id="Rectangle_2666" data-name="Rectangle 2666" width="65.318" height="1.336" fill="#cbdb56"/>
          </g>
          <g id="Group_3122" data-name="Group 3122" transform="translate(16.51 41.089)">
            <rect id="Rectangle_2667" data-name="Rectangle 2667" width="11.386" height="1.336" fill="#cbdb56"/>
          </g>
          <g id="Group_3123" data-name="Group 3123" transform="translate(16.51 48.514)">
            <rect id="Rectangle_2668" data-name="Rectangle 2668" width="11.386" height="1.336" fill="#cbdb56"/>
          </g>
          <g id="Group_3124" data-name="Group 3124" transform="translate(83.168 38.292)">
            <path id="Path_4468" data-name="Path 4468" d="M2045.009,535.529h-1.335v-.9h1.335Zm0-2.683h-1.335v-1.781h1.335Zm0-3.563h-1.335V527.5h1.335Zm0-3.563h-1.335V523.94h1.335Zm0-3.563h-1.335v-1.781h1.335Zm0-3.563h-1.335v-1.781h1.335Zm0-3.563h-1.335v-1.781h1.335Z" transform="translate(-2043.673 -513.252)" fill="#cbdb56"/>
          </g>
        </g>
        <g id="Group_3138" data-name="Group 3138">
          <g id="Group_3126" data-name="Group 3126" transform="translate(0.894 47.646)">
            <rect id="Rectangle_2669" data-name="Rectangle 2669" width="1.336" height="6.716" fill="#cbdb56"/>
          </g>
          <g id="Group_3127" data-name="Group 3127" transform="translate(81.598 46.753)">
            <rect id="Rectangle_2670" data-name="Rectangle 2670" width="1.336" height="16.789" fill="#cbdb56"/>
          </g>
          <g id="Group_3128" data-name="Group 3128" transform="translate(37 61.571)">
            <rect id="Rectangle_2671" data-name="Rectangle 2671" width="11.019" height="1.336" fill="#cbdb56"/>
          </g>
          <g id="Group_3129" data-name="Group 3129" transform="translate(32.533 48.021)">
            <rect id="Rectangle_2672" data-name="Rectangle 2672" width="19.059" height="1.336" fill="#cbdb56"/>
          </g>
          <g id="Group_3130" data-name="Group 3130" transform="translate(47.79 17.496)">
            <path id="Path_4469" data-name="Path 4469" d="M1617.667,410.222l-.458-1.255,34.7-12.661V377.693a5.257,5.257,0,0,0-5.251-5.251h-25.946v-1.336h25.946a6.594,6.594,0,0,1,6.587,6.587v19.549Z" transform="translate(-1617.21 -371.106)" fill="#cbdb56"/>
          </g>
          <g id="Group_3131" data-name="Group 3131" transform="translate(0 17.496)">
            <path id="Path_4470" data-name="Path 4470" d="M1491.035,410.219l-35.869-13.626v-18.9a6.594,6.594,0,0,1,6.587-6.587h26.841v1.336h-26.841a5.257,5.257,0,0,0-5.251,5.251v17.98l35.008,13.3Z" transform="translate(-1455.165 -371.106)" fill="#cbdb56"/>
          </g>
          <g id="Group_3132" data-name="Group 3132" transform="translate(35.141 14.815)">
            <path id="Path_4471" data-name="Path 4471" d="M1588.163,419.638h-13.844V362.017h13.844Zm-12.508-1.336h11.172V363.353h-11.172Z" transform="translate(-1574.319 -362.017)" fill="#cbdb56"/>
          </g>
          <g id="Group_3133" data-name="Group 3133" transform="translate(41.692 49.108)">
            <rect id="Rectangle_2673" data-name="Rectangle 2673" width="1.336" height="5.984" fill="#cbdb56"/>
          </g>
          <g id="Group_3134" data-name="Group 3134" transform="translate(28.344 6.323)">
            <path id="Path_4472" data-name="Path 4472" d="M1578.486,340.728h-1.336v-6.17h-24.54v6.17h-1.336v-6.562a.945.945,0,0,1,.944-.943h25.325a.944.944,0,0,1,.943.943Z" transform="translate(-1551.274 -333.222)" fill="#cbdb56"/>
          </g>
          <g id="Group_3135" data-name="Group 3135" transform="translate(15.184)">
            <path id="Path_4473" data-name="Path 4473" d="M1560.184,326.072h-8.709v-6.81a6.151,6.151,0,0,0-6.144-6.144H1521.5a6.151,6.151,0,0,0-6.144,6.144v6.81h-8.709v-1.336h7.373v-5.474a7.489,7.489,0,0,1,7.48-7.48h23.826a7.489,7.489,0,0,1,7.48,7.48v5.474h7.373Z" transform="translate(-1506.652 -311.781)" fill="#cbdb56"/>
          </g>
          <g id="Group_3136" data-name="Group 3136" transform="translate(0.866 34.668)">
            <path id="Path_4474" data-name="Path 4474" d="M1486.062,441.795l-1.512-.607.5-1.24,1.512.607Zm-3.165-1.271-1.653-.664.5-1.24,1.653.664Zm-3.306-1.327-1.653-.664.5-1.24,1.653.664Zm-3.307-1.327-1.652-.663.5-1.24,1.653.663Zm-3.306-1.327-1.653-.664.5-1.24,1.653.664Zm-3.307-1.327-1.653-.664.5-1.24,1.653.664Zm-3.306-1.327-1.653-.663.5-1.24,1.653.663Zm-3.306-1.327-1.653-.664.5-1.24,1.653.664Zm-3.306-1.327-1.653-.664.5-1.24,1.653.664Z" transform="translate(-1458.101 -429.331)" fill="#cbdb56"/>
          </g>
          <g id="Group_3137" data-name="Group 3137" transform="translate(54.94 35.849)">
            <path id="Path_4475" data-name="Path 4475" d="M1641.9,444.356l-.444-1.26.818-.288.444,1.26Zm2.5-.881-.443-1.26,1.68-.592.444,1.26Zm3.36-1.184-.444-1.26,1.68-.592.444,1.26Zm3.36-1.184-.444-1.26,1.68-.592.444,1.26Zm3.36-1.184-.444-1.26,1.68-.592.445,1.26Zm3.359-1.184-.443-1.26,1.68-.592.444,1.26Zm3.36-1.184-.443-1.26,1.68-.592.443,1.26Zm3.36-1.184-.444-1.26,1.68-.592.444,1.26Zm3.36-1.184-.444-1.26,1.68-.592.444,1.26Z" transform="translate(-1641.454 -433.336)" fill="#cbdb56"/>
          </g>
        </g>
        <g id="Group_3160" data-name="Group 3160" transform="translate(125.992 111.462)">
          <g id="Group_3139" data-name="Group 3139" transform="translate(19.546 28.518)">
            <path id="Path_4476" data-name="Path 4476" d="M1962.651,811.47a10.357,10.357,0,0,1-6.491-2.3l-3.143-2.519a12.028,12.028,0,0,1-4.365-9.351V787.7h1.336V797.3a10.68,10.68,0,0,0,3.865,8.308L1957,808.13a8.882,8.882,0,0,0,11.311,0l3.143-2.519a10.682,10.682,0,0,0,3.865-8.308V786.421h1.336V797.3a12.03,12.03,0,0,1-4.365,9.351l-3.143,2.519A10.356,10.356,0,0,1,1962.651,811.47Z" transform="translate(-1948.652 -786.421)" fill="#cbdb56"/>
          </g>
          <g id="Group_3140" data-name="Group 3140" transform="translate(44.794 4.633)">
            <path id="Path_4477" data-name="Path 4477" d="M2040.945,732.053l-1.311-.257,1.51-7.685c.925-4.626.927-10.881-1.84-14.572a6.789,6.789,0,0,0-5.043-2.777l.116-1.331a8.074,8.074,0,0,1,6,3.306c3.032,4.043,3.063,10.726,2.082,15.633Z" transform="translate(-2034.262 -705.431)" fill="#cbdb56"/>
          </g>
          <g id="Group_3141" data-name="Group 3141" transform="translate(13.749)">
            <path id="Path_4478" data-name="Path 4478" d="M1930.716,716.834l-1.4-5.562c-.957-5.671.272-10.722,3.555-14.606a20.794,20.794,0,0,1,15.045-6.943,18.987,18.987,0,0,1,12.538,4.424l.247.236-1.946,14.3-1.324-.18,1.851-13.606a18.276,18.276,0,0,0-11.366-3.84,19.385,19.385,0,0,0-14.025,6.469c-3.059,3.619-4.157,8.159-3.262,13.494l1.387,5.483Z" transform="translate(-1928.995 -689.723)" fill="#cbdb56"/>
          </g>
          <g id="Group_3142" data-name="Group 3142" transform="translate(45.822 27.85)">
            <path id="Path_4479" data-name="Path 4479" d="M2039.132,795.181l-.811-1.062,2.171-1.658a3.037,3.037,0,0,0,1.12-1.854l.42-2.192a2.565,2.565,0,0,0-.527-2.128,2.1,2.1,0,0,0-1.631-.794h-2.127v-1.336h2.127a3.455,3.455,0,0,1,2.661,1.278,3.9,3.9,0,0,1,.809,3.231l-.42,2.192a4.371,4.371,0,0,1-1.622,2.665Z" transform="translate(-2037.747 -784.156)" fill="#cbdb56"/>
          </g>
          <g id="Group_3143" data-name="Group 3143" transform="translate(15.495 28.184)">
            <path id="Path_4480" data-name="Path 4480" d="M1939.26,796.316l-2.2-1.659a4.357,4.357,0,0,1-1.644-2.665l-.426-2.192a3.872,3.872,0,0,1,.8-3.213,3.508,3.508,0,0,1,2.707-1.3h2.157v1.336H1938.5a2.148,2.148,0,0,0-1.676.812,2.539,2.539,0,0,0-.521,2.109l.426,2.192a3.026,3.026,0,0,0,1.136,1.853l2.2,1.659Z" transform="translate(-1934.916 -785.289)" fill="#cbdb56"/>
          </g>
          <g id="Group_3144" data-name="Group 3144" transform="translate(28.943 63.053)">
            <path id="Path_4481" data-name="Path 4481" d="M1985.31,909.118l-3.175-.983-1.62-4.125,1.244-.488,1.386,3.527,2.166.67,2.166-.67,1.386-3.527,1.244.489-1.621,4.125Z" transform="translate(-1980.515 -903.522)" fill="#cbdb56"/>
          </g>
          <g id="Group_3145" data-name="Group 3145" transform="translate(27.526 67.745)">
            <rect id="Rectangle_2674" data-name="Rectangle 2674" width="12.924" height="1.336" transform="matrix(0.307, -0.952, 0.952, 0.307, 0, 12.3)" fill="#cbdb56"/>
          </g>
          <g id="Group_3146" data-name="Group 3146" transform="translate(34.803 68.034)">
            <rect id="Rectangle_2675" data-name="Rectangle 2675" width="1.336" height="13.215" transform="translate(0 0.375) rotate(-16.287)" fill="#cbdb56"/>
          </g>
          <g id="Group_3147" data-name="Group 3147" transform="translate(24.324 56.805)">
            <path id="Path_4482" data-name="Path 4482" d="M1974.267,886.294a16.236,16.236,0,0,1-9.416-2.873l.778-1.086a15.536,15.536,0,0,0,17.273,0l.779,1.086A16.242,16.242,0,0,1,1974.267,886.294Z" transform="translate(-1964.852 -882.336)" fill="#cbdb56"/>
          </g>
          <g id="Group_3148" data-name="Group 3148" transform="translate(0 48.96)">
            <path id="Path_4483" data-name="Path 4483" d="M1916.114,898.551a93.8,93.8,0,0,1-33.166-5.73l-.573-.219,2.079-7.25c2.619-8.663,8.45-15.592,16-19.019l6.666-3.025v-6.883h1.336v7.744l-7.45,3.381a28.806,28.806,0,0,0-15.271,18.18L1884,891.79a97.759,97.759,0,0,0,64.319-.033l-1.733-6.037a28.806,28.806,0,0,0-15.279-18.17l-7.455-3.381v-8.431h1.336v7.57l6.67,3.025a30.144,30.144,0,0,1,16.008,19.01l2.074,7.226-.572.219A93.728,93.728,0,0,1,1916.114,898.551Z" transform="translate(-1882.375 -855.737)" fill="#cbdb56"/>
          </g>
          <g id="Group_3149" data-name="Group 3149" transform="translate(11.797 83.525)">
            <rect id="Rectangle_2676" data-name="Rectangle 2676" width="1.336" height="5.608" fill="#cbdb56"/>
          </g>
          <g id="Group_3150" data-name="Group 3150" transform="translate(53.397 83.056)">
            <rect id="Rectangle_2677" data-name="Rectangle 2677" width="1.336" height="5.608" fill="#cbdb56"/>
          </g>
          <g id="Group_3151" data-name="Group 3151" transform="translate(41.883 17.917)">
            <path id="Path_4484" data-name="Path 4484" d="M2030.052,761.1l-1.335-.057c0-.074.252-7.406-4.325-9.343l.521-1.23C2030.345,752.774,2030.067,760.765,2030.052,761.1Z" transform="translate(-2024.392 -750.475)" fill="#cbdb56"/>
          </g>
          <g id="Group_3152" data-name="Group 3152" transform="translate(36.222 14.793)">
            <path id="Path_4485" data-name="Path 4485" d="M2006.155,742.561l-.958-.931a9.967,9.967,0,0,0,1.4-1.748l1.153.674A11.169,11.169,0,0,1,2006.155,742.561Z" transform="translate(-2005.197 -739.882)" fill="#cbdb56"/>
          </g>
          <g id="Group_3153" data-name="Group 3153" transform="translate(20.235 18.261)">
            <path id="Path_4486" data-name="Path 4486" d="M1950.987,757.475v-1.336h.869c6.794-.127,11-2.516,13.331-4.5l.865,1.017c-2.5,2.122-6.983,4.681-14.183,4.815Z" transform="translate(-1950.987 -751.642)" fill="#cbdb56"/>
          </g>
          <g id="Group_3154" data-name="Group 3154" transform="translate(20.834 18.174)">
            <path id="Path_4487" data-name="Path 4487" d="M1953.019,762.587v-1.336h1.077c14.952-.257,20.292-9.807,20.344-9.9l1.175.636c-.229.422-5.772,10.333-21.508,10.6Z" transform="translate(-1953.019 -751.348)" fill="#cbdb56"/>
          </g>
          <g id="Group_3155" data-name="Group 3155" transform="translate(23.65 59.803)">
            <rect id="Rectangle_2678" data-name="Rectangle 2678" width="12.091" height="1.336" transform="matrix(0.781, -0.624, 0.624, 0.781, 0, 7.551)" fill="#cbdb56"/>
          </g>
          <g id="Group_3156" data-name="Group 3156" transform="translate(33.706 59.752)">
            <rect id="Rectangle_2679" data-name="Rectangle 2679" width="1.336" height="12.092" transform="translate(0 1.043) rotate(-51.355)" fill="#cbdb56"/>
          </g>
          <g id="Group_3157" data-name="Group 3157" transform="translate(37.675 61.282)">
            <path id="Path_4488" data-name="Path 4488" d="M2011.055,927.39l-.933-.956,12.79-12.481-1.195-5.131,4.087-2.133-1.866-8.9,1.307-.274,2.074,9.891-4.066,2.122,1.13,4.856Z" transform="translate(-2010.122 -897.515)" fill="#cbdb56"/>
          </g>
          <g id="Group_3158" data-name="Group 3158" transform="translate(13.562 61.788)">
            <path id="Path_4489" data-name="Path 4489" d="M1944.625,929.108,1931.3,916.1l1.13-4.855-4.067-2.122,2.074-9.891,1.307.274-1.866,8.9,4.088,2.133-1.195,5.131,12.79,12.481Z" transform="translate(-1928.361 -899.233)" fill="#cbdb56"/>
          </g>
          <g id="Group_3159" data-name="Group 3159" transform="translate(15.991 60.744)">
            <path id="Path_4490" data-name="Path 4490" d="M1954.6,926.047,1936.6,897.129l1.134-.706,16.825,27.022,15.935-27.753,1.159.665Z" transform="translate(-1936.597 -895.691)" fill="#cbdb56"/>
          </g>
        </g>
        <g id="Group_3161" data-name="Group 3161" transform="translate(1.778 68.656)">
          <path id="Path_4491" data-name="Path 4491" d="M1465.382,560.335a4.194,4.194,0,0,1-4.189-4.189V544.577h1.336v11.569a2.856,2.856,0,0,0,2.853,2.853Z" transform="translate(-1461.193 -544.577)" fill="#cbdb56"/>
        </g>
      </g>
      <g id="Group_7091" data-name="Group 7091">
        <g id="Group_7088" data-name="Group 7088" transform="translate(-15438.056 15596.007)">
          <path id="Path_4492" data-name="Path 4492" d="M1829.3,772.97l12.282-12.784,16.293,16.718a8.559,8.559,0,0,1-12.1,12.106Z" transform="translate(-1829.297 -760.186)" fill="#cbdb56"/>
        </g>
        <g id="Group_7089" data-name="Group 7089" transform="translate(-15492.589 15561.526)">
          <path id="Path_4493" data-name="Path 4493" d="M1680.184,655.074l.145,8.305-17.163-.341.168-8.048-17.416-10.59a26.953,26.953,0,1,0,50.416-1.13Z" transform="translate(-1644.387 -643.27)" fill="#cbdb56"/>
        </g>
        <g id="Group_7090" data-name="Group 7090" transform="translate(-15536.266 15621.869)">
          <path id="Path_4494" data-name="Path 4494" d="M1496.374,855.8l21.126-7.922v7.168h12.323v-5.156l30.306,12.952,14.964-9.682,35.21,18.233H1496.374S1496.185,855.613,1496.374,855.8Z" transform="translate(-1496.29 -847.879)" fill="#cbdb56"/>
        </g>
      </g>
    </g>
    <g id="Icon" transform="translate(1263.553 451.533)">
      <g id="Group_3190" data-name="Group 3190">
        <g id="Group_3189" data-name="Group 3189">
          <g id="Group_3167" data-name="Group 3167">
            <g id="Group_3166" data-name="Group 3166">
              <path id="Path_4495" data-name="Path 4495" d="M1472.093,502.753l-8.817-8.862-8.862,8.818-.942-.947,9.809-9.76,9.76,9.809Z" transform="translate(-1453.472 -492.002)" fill="#0077b9"/>
            </g>
          </g>
          <g id="Group_3168" data-name="Group 3168" transform="translate(9.783 128.856)">
            <rect id="Rectangle_2680" data-name="Rectangle 2680" width="112.483" height="1.336" fill="#0077b9"/>
          </g>
          <g id="Group_3169" data-name="Group 3169" transform="translate(8.815 1.181)">
            <path id="Path_4496" data-name="Path 4496" d="M1587.982,636.077H1483.361v-.669l.3-139.4,1.336,0-.3,138.731h103.283Z" transform="translate(-1483.361 -496.006)" fill="#0077b9"/>
          </g>
          <g id="Group_3170" data-name="Group 3170" transform="translate(44.288 16.433)">
            <path id="Path_4497" data-name="Path 4497" d="M1640.26,621q-.723,0-1.444-.028l.052-1.335q.7.028,1.392.028l.357,0,.012,1.336Zm2.182-.064-.077-1.334c.58-.034,1.167-.083,1.742-.145l.144,1.328C1643.654,620.854,1643.045,620.9,1642.442,620.94Zm-5.437-.081c-.6-.053-1.206-.122-1.8-.205l.184-1.323c.575.08,1.159.146,1.737.2Zm-3.593-.5c-.59-.112-1.186-.241-1.773-.382l.314-1.3c.566.137,1.14.261,1.709.369Zm-3.525-.852c-.579-.171-1.16-.358-1.727-.556l.441-1.261c.546.191,1.106.371,1.664.536Zm-3.424-1.2c-.558-.227-1.118-.471-1.664-.725l.564-1.211c.526.245,1.065.481,1.6.7Zm-3.289-1.533c-.535-.283-1.067-.581-1.582-.888l.683-1.148c.5.3,1.009.583,1.524.855Zm-3.118-1.853c-.5-.333-1-.683-1.486-1.04l.793-1.075c.467.344.949.682,1.432,1Zm-2.919-2.153c-.465-.38-.927-.777-1.376-1.182l.9-.992c.432.39.879.773,1.326,1.139Zm-2.689-2.426-.076-.076c-.4-.4-.8-.817-1.182-1.237l.988-.9c.369.4.753.807,1.141,1.194l.065.065ZM1612,607.662c-.384-.465-.76-.945-1.12-1.427l1.071-.8c.347.464.709.927,1.08,1.375Zm-2.168-2.907c-.335-.5-.662-1.014-.973-1.531l1.145-.688c.3.5.615,1,.938,1.475Zm-1.869-3.109c-.285-.531-.559-1.076-.816-1.62l1.208-.571c.247.524.512,1.049.786,1.561Zm-1.55-3.28c-.231-.559-.45-1.129-.651-1.693l1.259-.448c.194.544.4,1.093.627,1.631Zm-1.217-3.417c-.174-.579-.335-1.167-.479-1.749l1.3-.321c.139.561.295,1.128.462,1.686Zm70.326-.522-1.284-.365c.157-.555.3-1.124.437-1.693l1.3.3C1675.841,593.261,1675.688,593.852,1675.524,594.427Zm-71.2-3c-.115-.591-.217-1.193-.3-1.788l1.322-.192c.083.574.182,1.154.294,1.723Zm72.017-.535-1.315-.237c.1-.571.193-1.152.268-1.728l1.324.172C1676.543,589.7,1676.45,590.3,1676.344,590.894Zm-72.537-3.054c-.057-.6-.1-1.205-.126-1.809l1.334-.061c.026.582.068,1.169.122,1.744Zm73-.543-1.332-.106c.046-.576.078-1.163.1-1.746l1.335.041C1676.891,586.09,1676.858,586.7,1676.81,587.3Zm-71.831-3.075-1.336,0c0-.6.02-1.212.052-1.814l1.334.071C1605,583.054,1604.981,583.641,1604.979,584.221Zm70.606-.525c-.01-.58-.036-1.168-.075-1.746l1.332-.091c.041.6.068,1.21.079,1.813Zm-70.421-2.965-1.329-.137c.062-.6.139-1.2.23-1.8l1.32.2C1605.3,579.571,1605.224,580.154,1605.164,580.731Zm70.184-.522c-.067-.574-.15-1.156-.246-1.73l1.318-.221c.1.6.186,1.2.256,1.8Zm-69.656-2.933-1.309-.267c.119-.588.256-1.182.406-1.768l1.294.332C1605.939,576.137,1605.807,576.71,1605.692,577.276Zm69.077-.513c-.125-.569-.266-1.14-.417-1.7l1.289-.351c.157.579.3,1.171.432,1.762Zm-68.209-2.872-1.277-.394c.177-.573.372-1.151.579-1.72l1.255.458C1606.917,572.782,1606.73,573.339,1606.56,573.89Zm67.292-.5c-.18-.552-.376-1.106-.583-1.647l1.248-.477c.214.562.418,1.137.6,1.71Zm-66.095-2.783-1.231-.52c.236-.558.487-1.114.748-1.653l1.2.581C1608.226,569.534,1607.984,570.07,1607.757,570.608Zm64.848-.481c-.233-.531-.484-1.063-.743-1.582l1.194-.6c.27.538.53,1.091.772,1.641Zm-63.33-2.666-1.173-.64c.289-.531.6-1.059.908-1.57l1.14.7C1609.848,566.44,1609.554,566.949,1609.275,567.46ZM1671.04,567c-.286-.506-.588-1.011-.9-1.5l1.129-.715c.321.508.635,1.032.932,1.557Zm-59.94-2.522-1.1-.754c.339-.5.7-.991,1.06-1.472l1.065.807C1611.77,563.525,1611.426,564,1611.1,564.481Zm58.071-.431c-.333-.473-.684-.945-1.042-1.4l1.052-.823c.372.475.736.966,1.082,1.456Zm-55.96-2.355-1.024-.859c.386-.46.789-.917,1.2-1.36l.979.908C1613.972,560.811,1613.583,561.252,1613.211,561.7Zm53.808-.4c-.378-.437-.773-.873-1.176-1.294l.967-.922c.417.437.827.889,1.219,1.342Zm-51.432-2.166-.935-.954c.427-.419.873-.835,1.326-1.237l.887,1C1616.429,558.326,1616,558.728,1615.587,559.131Zm49.019-.364c-.422-.4-.858-.8-1.3-1.174l.873-1.012c.454.391.906.8,1.344,1.218ZM1618.2,556.81l-.837-1.042c.47-.378.955-.748,1.441-1.1l.784,1.081C1619.121,556.09,1618.653,556.446,1618.2,556.81Zm43.758-.325c-.46-.359-.933-.709-1.4-1.04l.768-1.093c.49.344.98.707,1.458,1.08Zm-40.93-1.726-.729-1.119c.507-.33,1.026-.651,1.543-.952l.673,1.154C1622.018,554.132,1621.518,554.44,1621.029,554.759Zm38.071-.283c-.492-.31-1-.611-1.5-.9l.655-1.164c.524.294,1.048.607,1.558.93ZM1624.047,553l-.614-1.186c.535-.277,1.084-.544,1.631-.794l.555,1.215C1625.092,552.475,1624.563,552.732,1624.047,553Zm32.007-.237c-.518-.259-1.051-.508-1.583-.741l.537-1.224c.552.242,1.1.5,1.643.77Zm-28.828-1.213-.493-1.242c.56-.223,1.134-.434,1.7-.628l.43,1.265C1628.319,551.13,1627.767,551.333,1627.227,551.549Zm25.628-.19c-.542-.206-1.1-.4-1.649-.58l.412-1.271c.573.186,1.149.388,1.712.6Zm-22.32-.938-.368-1.284c.578-.166,1.169-.319,1.756-.456l.3,1.3C1631.66,550.114,1631.091,550.261,1630.534,550.421Zm19-.14c-.56-.151-1.132-.291-1.7-.415l.285-1.3c.589.128,1.181.273,1.762.43Zm-15.593-.654-.239-1.314c.592-.108,1.2-.2,1.792-.281l.174,1.325C1635.089,549.432,1634.508,549.523,1633.938,549.626Zm12.178-.09c-.574-.1-1.156-.177-1.731-.244l.154-1.327c.6.069,1.2.154,1.8.254Zm-8.713-.365-.109-1.332c.6-.049,1.209-.083,1.811-.1l.042,1.335C1638.567,549.091,1637.98,549.125,1637.4,549.172Zm5.24-.039c-.578-.038-1.166-.063-1.747-.073l.024-1.336c.6.011,1.213.036,1.812.076Z" transform="translate(-1603.643 -547.724)" fill="#0077b9"/>
          </g>
          <g id="Group_3171" data-name="Group 3171" transform="translate(84.769 62.771)">
            <path id="Path_4498" data-name="Path 4498" d="M1741.05,731.57l-.144-1.328a34.918,34.918,0,0,0,21.126-10.133,35.331,35.331,0,0,0,8.99-15.265l1.284.366a36.668,36.668,0,0,1-31.255,26.361Z" transform="translate(-1740.906 -704.844)" fill="#0077b9"/>
          </g>
          <g id="Group_3172" data-name="Group 3172" transform="translate(106.052 79.334)">
            <path id="Path_4499" data-name="Path 4499" d="M1838.029,795.04a9.056,9.056,0,0,1-6.423-2.656l-18.534-18.534L1825.917,761l18.534,18.534a9.078,9.078,0,0,1-6.423,15.5Zm-23.068-21.19,17.59,17.589a7.747,7.747,0,0,0,10.956-10.956l-17.589-17.589Z" transform="translate(-1813.072 -761.005)" fill="#0077b9"/>
          </g>
          <g id="Group_3173" data-name="Group 3173" transform="translate(114.189 87.471)">
            <rect id="Rectangle_2681" data-name="Rectangle 2681" width="13.088" height="1.336" transform="translate(0 9.255) rotate(-45)" fill="#0077b9"/>
          </g>
          <g id="Group_3174" data-name="Group 3174" transform="translate(102.075 80.859)">
            <rect id="Rectangle_2682" data-name="Rectangle 2682" width="1.336" height="10.075" transform="translate(0 0.957) rotate(-45.738)" fill="#0077b9"/>
          </g>
          <g id="Group_3175" data-name="Group 3175" transform="translate(108.401 75.005)">
            <rect id="Rectangle_2683" data-name="Rectangle 2683" width="1.336" height="10.075" transform="translate(0 0.957) rotate(-45.738)" fill="#0077b9"/>
          </g>
          <g id="Group_3177" data-name="Group 3177" transform="translate(72.202 44.802)">
            <g id="Group_3176" data-name="Group 3176">
              <path id="Path_4500" data-name="Path 4500" d="M1716.867,662.49h-18.575V643.916h18.575Zm-17.238-1.336h15.9v-15.9h-15.9Z" transform="translate(-1698.292 -643.916)" fill="#0077b9"/>
            </g>
          </g>
          <g id="Group_3178" data-name="Group 3178" transform="translate(55.675 43.252)">
            <rect id="Rectangle_2684" data-name="Rectangle 2684" width="1.336" height="20.049" transform="matrix(0.543, -0.84, 0.84, 0.543, 0, 1.122)" fill="#0077b9"/>
          </g>
          <g id="Group_3179" data-name="Group 3179" transform="translate(89.72 42.432)">
            <rect id="Rectangle_2685" data-name="Rectangle 2685" width="19.131" height="1.336" transform="matrix(0.814, -0.581, 0.581, 0.814, 0, 11.113)" fill="#0077b9"/>
          </g>
          <g id="Group_3180" data-name="Group 3180" transform="translate(30.734 96.068)">
            <path id="Path_4501" data-name="Path 4501" d="M1570.832,830.9h-13.147V817.748h13.147Zm-11.811-1.336H1569.5V819.084h-10.475Z" transform="translate(-1557.685 -817.748)" fill="#0077b9"/>
          </g>
          <g id="Group_3181" data-name="Group 3181" transform="translate(52.973 25.114)">
            <path id="Path_4502" data-name="Path 4502" d="M1661.049,633.071a27.958,27.958,0,1,1,19.768-8.188A27.774,27.774,0,0,1,1661.049,633.071Zm0-54.577a26.621,26.621,0,1,0,18.823,7.8A26.446,26.446,0,0,0,1661.049,578.494Z" transform="translate(-1633.092 -577.158)" fill="#0077b9"/>
          </g>
          <g id="Group_3182" data-name="Group 3182" transform="translate(9.551 101.453)">
            <rect id="Rectangle_2686" data-name="Rectangle 2686" width="22.856" height="1.336" transform="translate(0 7.976) rotate(-20.424)" fill="#0077b9"/>
          </g>
          <g id="Group_3183" data-name="Group 3183" transform="translate(42.973 102.018)">
            <path id="Path_4503" data-name="Path 4503" d="M1631.629,851.705l-32.447-12.535.482-1.246,31.848,12.3,15.948-9.29,11.595,5.92-.607,1.19L1647.5,842.46Z" transform="translate(-1599.182 -837.924)" fill="#0077b9"/>
          </g>
          <g id="Group_3184" data-name="Group 3184" transform="translate(10.003 27.277)">
            <path id="Path_4504" data-name="Path 4504" d="M1487.853,593.582l-.462-1.254,21.282-7.836,10.433,6.679-.72,1.125-9.874-6.321Z" transform="translate(-1487.391 -584.492)" fill="#0077b9"/>
          </g>
          <g id="Group_3185" data-name="Group 3185" transform="translate(9.783 89.359)">
            <rect id="Rectangle_2687" data-name="Rectangle 2687" width="9.312" height="1.336" fill="#0077b9"/>
          </g>
          <g id="Group_3186" data-name="Group 3186" transform="translate(9.783 75.536)">
            <rect id="Rectangle_2688" data-name="Rectangle 2688" width="9.312" height="1.336" fill="#0077b9"/>
          </g>
          <g id="Group_3187" data-name="Group 3187" transform="translate(9.783 61.712)">
            <rect id="Rectangle_2689" data-name="Rectangle 2689" width="9.312" height="1.336" fill="#0077b9"/>
          </g>
          <g id="Group_3188" data-name="Group 3188" transform="translate(9.783 47.889)">
            <rect id="Rectangle_2690" data-name="Rectangle 2690" width="9.312" height="1.336" fill="#0077b9"/>
          </g>
        </g>
      </g>
    </g>
  </g>
</svg>
