<svg xmlns="http://www.w3.org/2000/svg" width="946.372" height="120" viewBox="0 0 946.372 120">
  <g id="Group_539" data-name="Group 539" transform="translate(-37.99 -234.449)">
    <path id="Path_4043" data-name="Path 4043" d="M182.843,352.283l116.031-86.709H176.881L60.85,352.283Zm85.337,0L384.21,265.574H325.283L209.253,352.283Zm126.752,0,115.419-86.709H456.295L340.876,352.283Zm71.248,0,116.032-86.709H528.155L412.124,352.283Zm153.5,0,116.031-86.709h-86.54L533.142,352.283h86.54Zm236.806-86.709H802.676L686.644,352.283h53.813Z" transform="translate(1.591 2.166)" fill="#e1d622" opacity="0.6" style="mix-blend-mode: multiply;isolation: isolate"/>
    <path id="Path_4044" data-name="Path 4044" d="M150.543,314.449l107.054-80H145.044l-107.054,80Zm78.734,0,107.054-80H281.963l-107.053,80Zm116.945,0,106.489-80H402.838l-106.489,80Zm65.736,0,107.054-80H469.139l-107.054,80Zm141.625,0,107.054-80H580.793l-107.053,80h79.843Zm218.484-80H722.418l-107.054,80h49.649Z" transform="translate(0)" fill="#29b6ee" opacity="0.4" style="mix-blend-mode: multiply;isolation: isolate"/>
    <path id="Path_4045" data-name="Path 4045" d="M349.027,330.413l107.054-80H343.527l-107.054,80Zm78.734,0,107.054-80H480.446l-107.053,80Zm116.945,0,106.489-80H601.321l-106.489,80Zm65.736,0,107.054-80H667.622l-107.054,80Zm141.625,0,107.054-80H779.275l-107.052,80h79.843Zm218.484-80H920.9l-107.054,80H863.5Z" transform="translate(13.811 1.111)" fill="#e1d622" opacity="0.2" style="mix-blend-mode: multiply;isolation: isolate"/>
  </g>
</svg>
