<svg xmlns="http://www.w3.org/2000/svg" width="19.25" height="22" viewBox="0 0 19.25 22">
  <path id="Path_4628" data-name="Path 4628" d="M-.687-8.25A.69.69,0,0,1,0-7.562v4.125a.69.69,0,0,1-.687.688H-4.812A.69.69,0,0,1-5.5-3.437V-7.562a.69.69,0,0,1,.688-.687Zm-3.437-11a1.03,1.03,0,0,1,1.031,1.031V-16.5H3.094v-1.719A1.03,1.03,0,0,1,4.125-19.25a1.03,1.03,0,0,1,1.031,1.031V-16.5H6.875a2.751,2.751,0,0,1,2.75,2.75V0a2.753,2.753,0,0,1-2.75,2.75H-6.875A2.751,2.751,0,0,1-9.625,0V-13.75a2.75,2.75,0,0,1,2.75-2.75h1.719v-1.719A1.03,1.03,0,0,1-4.125-19.25ZM7.563-11H-7.562V0a.688.688,0,0,0,.688.688H6.875A.69.69,0,0,0,7.563,0Z" transform="translate(9.625 19.25)" fill="#0291DD"/>
</svg>
