<svg xmlns="http://www.w3.org/2000/svg" width="26.994" height="24" viewBox="0 0 26.994 24">
  <path id="Path_4615" data-name="Path 4615" d="M-4.5-6.375A1.128,1.128,0,0,1-3.375-7.5H4.5v-6h-6A1.5,1.5,0,0,1-3-15v-6h-8.25a2.25,2.25,0,0,0-2.25,2.25V.75A2.25,2.25,0,0,0-11.25,3H2.25A2.25,2.25,0,0,0,4.5.75v-6H-3.375A1.125,1.125,0,0,1-4.5-6.375ZM-1.5-21v6h6ZM13.13-7.172l-3.75-3.75a1.125,1.125,0,0,0-1.591,0,1.125,1.125,0,0,0,0,1.591L9.661-7.5H4.5v2.25H9.661L7.831-3.42a1.1,1.1,0,0,0-.331.8,1.117,1.117,0,0,0,.33.8,1.125,1.125,0,0,0,1.591,0l3.75-3.75A1.1,1.1,0,0,0,13.13-7.172Z" transform="translate(13.5 21)" fill="#fff"/>
</svg>
