<svg xmlns="http://www.w3.org/2000/svg" width="27" height="21" viewBox="0 0 27 21">
  <path id="Path_4611" data-name="Path 4611" d="M13.341-8.33l-4.5,9a1.511,1.511,0,0,1-1.383.83H-10.5a3,3,0,0,1-3-3v-15a3,3,0,0,1,3-3h5.508a3,3,0,0,1,2.122.879l2.3,2.121H6a3,3,0,0,1,3,3V-12H6.75v-1.5A.751.751,0,0,0,6-14.25H-1.5l-2.962-2.78a.738.738,0,0,0-.53-.22H-10.5a.751.751,0,0,0-.75.75V-3l3.336-6.67a1.5,1.5,0,0,1,1.343-.83H12A1.5,1.5,0,0,1,13.341-8.33Z" transform="translate(13.5 19.5)" fill="#A2A2A2"/>
</svg>
