<svg xmlns="http://www.w3.org/2000/svg" width="24" height="24" viewBox="0 0 24 24">
  <path id="Path_4623" data-name="Path 4623" d="M0-21A12,12,0,0,0-12-9,12,12,0,0,0,0,3,12,12,0,0,0,12-9,12,12,0,0,0,0-21Zm0,6a1.5,1.5,0,0,1,1.5,1.5A1.5,1.5,0,0,1,0-12a1.5,1.5,0,0,1-1.5-1.5A1.5,1.5,0,0,1,0-15ZM1.875-3h-3.75A1.125,1.125,0,0,1-3-4.125,1.124,1.124,0,0,1-1.875-5.25h.75v-3H-1.5A1.125,1.125,0,0,1-2.625-9.375,1.127,1.127,0,0,1-1.5-10.5H0A1.125,1.125,0,0,1,1.125-9.375V-5.25h.75A1.125,1.125,0,0,1,3-4.125,1.124,1.124,0,0,1,1.875-3Z" transform="translate(12 21)" fill="#a2a2a2"/>
</svg>
