<svg xmlns="http://www.w3.org/2000/svg" width="27.5" height="22.002" viewBox="0 0 27.5 22.002">
  <path id="Path_4600" data-name="Path 4600" d="M-9.148-6.905-11.532-5.53a1.04,1.04,0,0,0-.532.9,1.046,1.046,0,0,0,.521.9A1.033,1.033,0,0,0-10.5-3.747l2.385-1.375a1.034,1.034,0,0,0,.36-1.4A1.026,1.026,0,0,0-9.148-6.905Zm1.031-9.971L-10.5-18.251a1.033,1.033,0,0,0-1.042-.016,1.047,1.047,0,0,0-.521.9,1.042,1.042,0,0,0,.533.9l2.384,1.375a1.03,1.03,0,0,0,1.044.016,1.046,1.046,0,0,0,.52-.9A1.039,1.039,0,0,0-8.117-16.876ZM-8.937-11a1.032,1.032,0,0,0-1.031-1.031h-2.75A1.032,1.032,0,0,0-13.75-11a1.032,1.032,0,0,0,1.031,1.031h2.75A1.029,1.029,0,0,0-8.937-11ZM8.637-14.953a1.047,1.047,0,0,0,.516-.14l2.38-1.375a1.028,1.028,0,0,0,.36-1.4,1.027,1.027,0,0,0-1.391-.387L8.121-16.876a1.03,1.03,0,0,0-.483,1.16A1.033,1.033,0,0,0,8.637-14.953Zm4.082,2.922H9.969A1.032,1.032,0,0,0,8.938-11,1.032,1.032,0,0,0,9.969-9.969h2.75A1.032,1.032,0,0,0,13.75-11,1.03,1.03,0,0,0,12.719-12.031Zm-1.186,6.5L9.148-6.905a1.033,1.033,0,0,0-1.042-.016,1.047,1.047,0,0,0-.521.9,1.04,1.04,0,0,0,.532.9L10.5-3.747a1.027,1.027,0,0,0,1.391-.387A1.033,1.033,0,0,0,11.533-5.53ZM0-19.25a7.544,7.544,0,0,0-7.562,7.524A7.522,7.522,0,0,0-5.693-6.75,12.368,12.368,0,0,1-3.448-2.82c0,.011,0,.021,0,.033H3.445l0-.033A12.364,12.364,0,0,1,5.693-6.75a7.377,7.377,0,0,0,1.869-4.976A7.554,7.554,0,0,0,0-19.25ZM4.142-8.074A15.053,15.053,0,0,0,2.035-4.813H-2.031a15.055,15.055,0,0,0-2.107-3.26A5.561,5.561,0,0,1-5.5-11.726,5.448,5.448,0,0,1-.039-17.187,5.506,5.506,0,0,1,5.5-11.726,5.578,5.578,0,0,1,4.142-8.074ZM-3.433.275a1.378,1.378,0,0,0,.23.76l.734,1.1a1.537,1.537,0,0,0,1.145.614H1.329a1.538,1.538,0,0,0,1.144-.613l.734-1.1a1.619,1.619,0,0,0,.23-.76V-1.373H-3.433ZM-.687-15.812a3.442,3.442,0,0,0-3.437,3.438.687.687,0,0,0,.688.688.689.689,0,0,0,.688-.688A2.065,2.065,0,0,1-.687-14.437.687.687,0,0,0,0-15.125.689.689,0,0,0-.687-15.812Z" transform="translate(13.75 19.25)" fill="#000"/>
</svg>
