<svg xmlns="http://www.w3.org/2000/svg" width="23.999" height="21" viewBox="0 0 23.999 21">
  <path id="Path_4626" data-name="Path 4626" d="M-4.5-1.5h-3A1.5,1.5,0,0,1-9-3V-15a1.5,1.5,0,0,1,1.5-1.5h3A1.5,1.5,0,0,0-3-18a1.5,1.5,0,0,0-1.5-1.5h-3A4.5,4.5,0,0,0-12-15V-3A4.5,4.5,0,0,0-7.5,1.5h3A1.5,1.5,0,0,0-3,0,1.5,1.5,0,0,0-4.5-1.5Zm16.059-8.559-6-6a1.5,1.5,0,0,0-2.121,0,1.5,1.5,0,0,0,0,2.121L6.881-10.5H-3A1.5,1.5,0,0,0-4.5-9,1.5,1.5,0,0,0-3-7.5H6.881L3.442-4.06a1.5,1.5,0,0,0,0,2.121,1.5,1.5,0,0,0,2.121,0l6-6A1.5,1.5,0,0,0,11.559-10.059Z" transform="translate(12 19.5)" fill="#a2a2a2"/>
</svg>
