<svg xmlns="http://www.w3.org/2000/svg" width="24" height="24" viewBox="0 0 24 24">
  <path id="Path_4183" data-name="Path 4183" d="M-1.125-4.875v-3h-3A1.122,1.122,0,0,1-5.25-9a1.122,1.122,0,0,1,1.125-1.125h3v-3A1.122,1.122,0,0,1,0-14.25a1.122,1.122,0,0,1,1.125,1.125v3h3A1.122,1.122,0,0,1,5.25-9,1.122,1.122,0,0,1,4.125-7.875h-3v3A1.122,1.122,0,0,1,0-3.75,1.122,1.122,0,0,1-1.125-4.875ZM12-9A12,12,0,0,1,0,3,12,12,0,0,1-12-9,12,12,0,0,1,0-21,12,12,0,0,1,12-9ZM0-18.75A9.749,9.749,0,0,0-9.75-9,9.749,9.749,0,0,0,0,.75,9.749,9.749,0,0,0,9.75-9,9.749,9.749,0,0,0,0-18.75Z" transform="translate(12 21)" fill="#fff"/>
</svg>
