<svg id="svg" version="1.1" xmlns="http://www.w3.org/2000/svg" xmlns:xlink="http://www.w3.org/1999/xlink" width="400" height="266.5" viewBox="0, 0, 400,266.5"><g id="svgg"><path id="path0" d="M198.705 34.333 C 198.069 36.350,197.451 38.240,197.332 38.533 C 197.213 38.827,197.048 39.277,196.966 39.533 C 196.831 39.956,196.340 40.000,191.742 40.000 C 186.927 40.000,185.994 40.142,187.189 40.693 C 188.317 41.213,194.648 46.022,194.657 46.365 C 194.668 46.780,193.660 50.029,193.303 50.730 C 193.173 50.984,193.067 51.376,193.067 51.600 C 193.067 51.824,192.961 52.216,192.832 52.470 C 192.224 53.671,191.466 56.533,191.937 55.849 C 192.045 55.693,192.733 55.160,193.467 54.664 C 194.664 53.856,197.150 52.025,198.925 50.645 C 199.757 49.997,200.249 50.000,201.075 50.656 C 201.713 51.162,204.394 53.102,206.885 54.860 C 208.495 55.996,208.499 56.169,206.796 51.065 C 205.132 46.081,205.133 46.207,206.721 45.062 C 207.351 44.608,208.167 44.010,208.533 43.735 C 211.220 41.715,212.907 40.533,213.103 40.533 C 213.230 40.533,213.333 40.416,213.333 40.272 C 213.333 40.114,211.331 39.983,208.234 39.939 L 203.134 39.867 202.094 36.667 C 201.522 34.907,200.869 32.837,200.642 32.067 C 200.070 30.128,200.008 30.200,198.705 34.333 M155.357 42.716 C 155.020 43.826,154.035 46.880,153.867 47.333 C 153.759 47.627,153.400 48.707,153.070 49.733 C 152.302 52.123,152.649 51.991,147.118 51.996 C 144.181 51.998,142.428 52.097,142.525 52.254 C 142.612 52.393,143.669 53.202,144.874 54.050 C 146.080 54.898,147.247 55.740,147.467 55.920 C 147.687 56.101,148.377 56.613,149.000 57.059 C 150.387 58.052,150.392 58.190,149.175 61.814 C 146.892 68.615,146.829 68.271,149.921 65.915 C 150.844 65.212,152.200 64.231,152.933 63.736 C 153.667 63.240,154.327 62.755,154.400 62.658 C 155.145 61.664,155.588 61.845,159.693 64.814 C 161.915 66.422,163.733 67.629,163.733 67.497 C 163.733 67.365,163.076 65.243,162.273 62.782 C 161.160 59.373,160.883 58.221,161.111 57.947 C 161.276 57.748,163.084 56.359,165.129 54.860 L 168.848 52.133 163.977 52.060 C 158.981 51.986,158.400 51.864,158.400 50.897 C 158.400 50.620,158.285 50.184,158.145 49.930 C 157.787 49.278,156.000 43.589,156.000 43.101 C 156.000 42.571,155.493 42.267,155.357 42.716 M244.138 42.973 C 243.341 45.718,241.460 51.397,241.260 51.661 C 241.083 51.894,239.594 52.009,236.089 52.061 L 231.167 52.133 233.517 53.851 C 234.809 54.796,236.548 56.056,237.381 56.651 C 239.408 58.099,239.393 57.840,237.720 62.851 C 236.250 67.256,236.072 68.150,236.812 67.424 C 237.025 67.214,238.814 65.887,240.787 64.474 C 244.406 61.882,244.883 61.702,245.600 62.658 C 245.673 62.755,246.333 63.242,247.067 63.739 C 247.800 64.236,249.346 65.342,250.502 66.197 C 251.658 67.052,252.644 67.711,252.693 67.662 C 252.793 67.562,250.998 61.988,250.635 61.270 C 250.506 61.016,250.400 60.573,250.400 60.286 C 250.400 59.999,250.280 59.691,250.133 59.600 C 248.918 58.849,251.187 56.547,256.597 53.045 C 258.125 52.056,257.931 52.000,252.955 52.000 C 247.938 52.000,247.467 51.930,247.467 51.187 C 247.467 50.918,247.347 50.624,247.200 50.533 C 247.053 50.443,246.933 50.083,246.933 49.733 C 246.933 49.384,246.813 49.024,246.667 48.933 C 246.520 48.843,246.400 48.534,246.400 48.247 C 246.400 47.961,246.290 47.518,246.156 47.263 C 246.022 47.008,245.648 45.900,245.326 44.800 C 244.649 42.493,244.392 42.097,244.138 42.973 M122.441 76.467 C 122.252 77.163,121.986 77.942,121.849 78.196 C 121.712 78.451,121.600 78.843,121.600 79.067 C 121.600 79.291,121.494 79.682,121.365 79.937 C 121.236 80.192,120.839 81.300,120.482 82.400 L 119.834 84.400 114.792 84.533 L 109.750 84.667 112.490 86.667 C 118.552 91.093,118.109 89.969,116.133 95.902 C 114.677 100.278,114.495 100.923,114.871 100.387 C 114.979 100.233,115.487 99.817,116.000 99.461 C 116.513 99.105,117.166 98.601,117.450 98.341 C 117.735 98.080,118.056 97.867,118.165 97.867 C 118.273 97.867,118.520 97.711,118.714 97.521 C 118.908 97.330,119.667 96.765,120.400 96.265 C 121.133 95.765,121.966 95.140,122.250 94.878 C 122.788 94.381,123.358 94.255,123.511 94.600 C 123.595 94.789,129.214 98.881,130.688 99.828 C 131.366 100.263,131.356 100.205,129.976 96.024 C 128.051 90.192,127.976 90.851,130.800 88.748 C 132.120 87.766,133.320 86.862,133.467 86.740 C 133.613 86.617,134.317 86.101,135.031 85.592 L 136.328 84.667 131.326 84.533 C 127.250 84.425,126.284 84.326,126.108 84.000 C 125.770 83.375,123.467 76.050,123.467 75.601 C 123.467 74.693,122.759 75.290,122.441 76.467 M276.676 75.533 C 276.618 75.717,276.001 77.667,275.306 79.867 C 273.675 85.027,274.406 84.509,268.628 84.594 L 263.712 84.667 266.456 86.678 C 267.965 87.784,269.706 89.044,270.325 89.478 C 270.944 89.912,271.509 90.414,271.581 90.595 C 271.700 90.893,269.839 97.167,269.343 98.142 C 269.057 98.702,268.726 100.267,268.893 100.267 C 268.968 100.267,269.187 100.109,269.381 99.917 C 269.575 99.725,270.753 98.858,272.000 97.991 C 273.247 97.123,274.421 96.265,274.610 96.083 C 274.798 95.901,275.308 95.542,275.743 95.285 C 276.178 95.028,276.533 94.724,276.533 94.609 C 276.533 94.238,277.218 94.386,277.750 94.872 C 278.034 95.132,279.287 96.055,280.533 96.925 C 281.780 97.794,283.325 98.906,283.967 99.396 C 284.609 99.886,285.169 100.253,285.212 100.210 C 285.307 100.115,283.501 94.446,283.171 93.804 C 283.040 93.549,282.933 93.106,282.933 92.819 C 282.933 92.533,282.813 92.224,282.667 92.133 C 281.627 91.491,282.392 90.452,285.641 88.090 C 287.423 86.794,289.193 85.467,289.574 85.142 L 290.267 84.550 285.555 84.542 C 280.467 84.533,280.000 84.464,280.000 83.721 C 280.000 83.452,279.880 83.157,279.733 83.067 C 279.587 82.976,279.467 82.616,279.467 82.267 C 279.467 81.917,279.347 81.557,279.200 81.467 C 279.053 81.376,278.933 81.016,278.933 80.667 C 278.933 80.317,278.813 79.957,278.667 79.867 C 278.520 79.776,278.400 79.467,278.400 79.181 C 278.400 78.894,278.288 78.451,278.151 78.196 C 278.014 77.942,277.748 77.163,277.559 76.467 C 277.224 75.225,276.889 74.871,276.676 75.533 M110.270 121.800 C 109.870 123.083,109.448 124.373,109.332 124.667 C 109.215 124.960,108.916 125.894,108.666 126.742 C 107.948 129.179,108.099 129.122,102.660 129.021 C 97.338 128.922,97.344 128.918,99.918 130.667 C 100.889 131.327,101.815 131.991,101.975 132.143 C 102.136 132.295,103.017 132.943,103.933 133.582 C 104.850 134.221,105.614 134.877,105.631 135.039 C 105.691 135.613,105.574 136.407,105.353 136.933 C 104.818 138.204,102.935 144.357,103.047 144.469 C 103.161 144.583,104.770 143.565,105.067 143.191 C 105.140 143.098,106.220 142.315,107.467 141.450 C 108.713 140.585,109.966 139.665,110.250 139.405 C 111.071 138.656,110.708 138.468,116.267 142.533 C 117.470 143.413,118.682 144.298,118.961 144.499 C 119.398 144.815,119.467 144.808,119.467 144.448 C 119.467 144.219,119.347 143.957,119.200 143.867 C 119.053 143.776,118.933 143.416,118.933 143.067 C 118.933 142.717,118.813 142.357,118.667 142.267 C 118.520 142.176,118.400 141.829,118.400 141.495 C 118.400 141.162,118.321 140.810,118.225 140.713 C 117.953 140.442,116.540 135.933,116.538 135.333 C 116.538 135.024,116.919 134.540,117.445 134.182 C 119.373 132.869,124.137 129.301,124.200 129.122 C 124.237 129.018,122.158 128.973,119.579 129.022 C 114.668 129.116,113.867 128.946,113.867 127.810 C 113.867 127.605,113.327 125.837,112.667 123.881 C 112.007 121.925,111.467 120.132,111.467 119.896 C 111.467 118.820,110.934 119.667,110.270 121.800 M288.533 119.885 C 288.533 120.385,286.752 126.067,286.388 126.730 C 286.248 126.984,286.133 127.416,286.133 127.688 C 286.133 128.956,285.440 129.118,280.421 129.022 C 277.842 128.973,275.733 129.002,275.733 129.085 C 275.733 129.239,277.728 130.729,281.320 133.259 C 283.934 135.100,283.882 134.685,282.148 139.933 C 281.311 142.463,280.725 144.533,280.844 144.533 C 280.963 144.533,281.752 144.015,282.597 143.382 C 283.442 142.748,284.733 141.818,285.467 141.315 C 286.200 140.812,286.860 140.334,286.933 140.254 C 288.048 139.031,290.133 138.721,290.133 139.778 C 290.133 139.900,290.303 140.000,290.511 140.000 C 290.719 140.000,290.929 140.094,290.978 140.210 C 291.027 140.325,291.487 140.708,292.000 141.060 C 292.513 141.413,293.809 142.353,294.879 143.150 C 295.948 143.947,296.891 144.531,296.973 144.450 C 297.128 144.294,296.158 141.010,295.719 140.204 C 295.580 139.949,295.467 139.557,295.467 139.333 C 295.467 139.109,295.361 138.718,295.233 138.463 C 293.993 136.008,294.133 134.939,295.850 133.756 C 296.648 133.207,297.532 132.557,297.815 132.312 C 298.099 132.067,299.122 131.327,300.089 130.667 C 302.630 128.934,302.613 128.921,297.939 129.024 C 291.645 129.163,292.361 129.637,290.536 124.129 C 289.152 119.955,288.533 118.643,288.533 119.885 M122.667 164.515 C 122.667 164.822,122.560 165.282,122.430 165.537 C 122.300 165.792,121.666 167.620,121.020 169.600 L 119.847 173.200 114.712 173.333 C 110.052 173.454,109.629 173.504,110.142 173.867 C 110.453 174.087,111.275 174.687,111.970 175.200 C 113.791 176.546,114.352 176.952,116.067 178.161 C 117.028 178.839,117.600 179.434,117.600 179.755 C 117.600 180.233,115.490 187.088,114.908 188.501 C 114.515 189.456,114.593 189.419,117.467 187.300 C 122.256 183.769,122.690 183.467,122.978 183.467 C 123.298 183.467,126.730 185.825,129.259 187.783 C 130.171 188.489,131.027 189.067,131.161 189.067 C 131.405 189.067,130.924 187.368,130.583 187.027 C 130.482 186.927,130.400 186.623,130.400 186.352 C 130.400 186.081,130.291 185.651,130.157 185.396 C 129.690 184.508,128.341 179.864,128.458 179.551 C 128.524 179.377,130.242 178.025,132.276 176.545 C 134.311 175.066,136.048 173.738,136.137 173.594 C 136.240 173.428,134.521 173.333,131.382 173.333 C 125.646 173.333,126.296 173.724,124.957 169.467 C 123.356 164.376,123.276 164.159,122.964 164.055 C 122.800 164.000,122.667 164.207,122.667 164.515 M276.690 164.333 C 276.154 166.239,273.976 172.742,273.788 172.994 C 273.614 173.228,272.120 173.343,268.572 173.394 L 263.600 173.467 265.600 174.951 C 266.700 175.767,268.386 176.986,269.347 177.660 C 271.994 179.515,271.924 179.309,270.929 182.327 C 270.456 183.760,269.964 185.142,269.835 185.396 C 269.706 185.651,269.600 186.077,269.600 186.343 C 269.600 186.609,269.496 186.941,269.369 187.080 C 269.026 187.455,268.774 189.067,269.058 189.067 C 269.192 189.067,269.367 188.961,269.448 188.831 C 269.706 188.413,276.723 183.467,277.058 183.467 C 277.236 183.467,278.181 184.059,279.158 184.782 C 284.225 188.538,284.948 189.056,285.115 189.061 C 285.288 189.066,284.909 187.814,283.171 182.635 C 282.104 179.454,282.112 179.414,284.067 178.097 C 284.983 177.479,285.793 176.900,285.867 176.811 C 285.940 176.722,286.840 176.058,287.867 175.336 C 290.887 173.211,291.065 173.354,285.297 173.272 L 280.167 173.200 279.518 171.200 C 279.161 170.100,278.764 168.992,278.635 168.737 C 278.506 168.482,278.400 168.091,278.400 167.867 C 278.400 167.643,278.288 167.251,278.151 166.996 C 278.014 166.742,277.748 165.963,277.559 165.267 C 277.226 164.032,276.879 163.660,276.690 164.333 M155.456 196.584 C 155.451 196.630,154.758 198.707,153.917 201.200 L 152.388 205.733 147.194 205.867 L 142.000 206.000 143.200 206.798 C 143.860 207.236,144.460 207.662,144.533 207.744 C 144.607 207.825,145.087 208.181,145.600 208.533 C 146.113 208.886,146.593 209.249,146.667 209.341 C 146.740 209.432,147.550 210.012,148.467 210.630 C 150.432 211.954,150.512 212.406,149.306 215.333 C 149.186 215.627,148.707 217.067,148.243 218.533 C 147.779 220.000,147.347 221.290,147.284 221.400 C 146.940 221.997,152.812 218.022,154.855 216.275 C 155.504 215.721,155.938 215.964,160.876 219.651 C 162.311 220.723,163.587 221.600,163.711 221.600 C 163.943 221.600,163.444 219.888,163.116 219.561 C 163.016 219.460,162.933 219.105,162.933 218.771 C 162.933 218.438,162.813 218.091,162.667 218.000 C 162.520 217.909,162.400 217.601,162.400 217.314 C 162.400 217.027,162.290 216.584,162.156 216.330 C 161.720 215.504,160.876 212.409,160.996 212.080 C 161.061 211.904,162.033 211.087,163.157 210.265 C 164.281 209.442,165.500 208.543,165.867 208.267 C 166.233 207.990,167.073 207.367,167.733 206.882 L 168.933 206.000 163.961 205.928 C 160.416 205.876,158.918 205.761,158.740 205.528 C 158.465 205.165,156.000 197.615,156.000 197.134 C 156.000 196.875,155.485 196.354,155.456 196.584 M244.163 196.828 C 244.098 197.033,243.496 198.913,242.823 201.006 C 242.150 203.099,241.600 204.989,241.600 205.206 C 241.600 205.742,242.045 205.688,236.267 205.852 L 231.067 206.000 232.267 206.876 C 232.927 207.358,233.658 207.911,233.892 208.105 C 234.126 208.299,235.026 208.944,235.892 209.539 C 236.758 210.134,237.871 210.965,238.364 211.385 L 239.262 212.149 238.667 214.008 C 238.340 215.030,237.966 216.075,237.836 216.330 C 237.706 216.584,237.600 217.027,237.600 217.314 C 237.600 217.601,237.480 217.909,237.333 218.000 C 237.187 218.091,237.067 218.434,237.067 218.762 C 237.067 219.091,236.959 219.474,236.828 219.613 C 236.529 219.931,236.164 221.600,236.394 221.600 C 236.488 221.600,237.008 221.257,237.549 220.838 C 238.704 219.943,242.168 217.412,243.374 216.580 C 244.514 215.794,244.596 215.813,246.624 217.316 C 251.692 221.071,252.414 221.590,252.581 221.595 C 252.800 221.601,252.676 221.173,251.096 216.478 C 249.538 211.847,249.523 212.049,251.533 210.653 C 252.450 210.016,253.260 209.423,253.333 209.334 C 253.407 209.246,254.487 208.460,255.733 207.587 L 258.000 206.000 252.800 205.867 L 247.601 205.733 246.134 201.286 C 244.648 196.782,244.373 196.160,244.163 196.828 M199.237 210.467 C 198.906 211.530,198.537 212.640,198.416 212.933 C 198.296 213.227,197.920 214.367,197.581 215.467 C 197.242 216.567,196.918 217.527,196.861 217.600 C 196.804 217.673,194.479 217.793,191.695 217.867 L 186.633 218.000 188.683 219.467 C 193.667 223.032,194.667 223.816,194.667 224.160 C 194.667 224.362,194.006 226.527,193.199 228.973 C 192.391 231.419,191.770 233.459,191.819 233.508 C 191.867 233.556,193.630 232.336,195.737 230.798 C 199.947 227.722,200.125 227.660,201.549 228.762 C 202.715 229.665,206.159 232.182,207.431 233.060 L 208.328 233.680 208.137 233.040 C 207.705 231.593,206.317 227.296,206.121 226.800 C 205.078 224.159,205.108 223.912,206.600 222.897 C 207.297 222.423,207.927 221.958,208.000 221.864 C 208.118 221.713,209.191 220.951,212.501 218.667 L 213.467 218.000 208.267 217.852 C 202.331 217.683,202.933 217.785,202.933 216.949 C 202.933 216.591,202.813 216.224,202.667 216.133 C 202.520 216.043,202.400 215.734,202.400 215.447 C 202.400 215.161,202.289 214.718,202.152 214.463 C 202.016 214.208,201.517 212.770,201.042 211.267 C 200.015 208.010,200.003 208.005,199.237 210.467 " stroke="none" fill="#f7c906" fill-rule="evenodd"></path><path id="path1" d="M0.000 133.333 L 0.000 266.667 200.000 266.667 L 400.000 266.667 400.000 133.333 L 400.000 0.000 200.000 0.000 L 0.000 0.000 0.000 133.333 M200.759 31.133 C 200.948 31.830,201.214 32.608,201.351 32.863 C 201.488 33.118,201.600 33.561,201.600 33.847 C 201.600 34.134,201.720 34.443,201.867 34.533 C 202.013 34.624,202.133 34.933,202.133 35.219 C 202.133 35.506,202.243 35.949,202.376 36.204 C 202.510 36.458,202.794 37.267,203.008 38.000 L 203.397 39.333 208.698 39.467 C 211.614 39.540,213.970 39.690,213.933 39.800 C 213.897 39.910,213.867 40.105,213.867 40.233 C 213.867 40.362,212.937 41.105,211.800 41.885 C 210.663 42.665,209.673 43.377,209.600 43.468 C 209.501 43.589,206.906 45.443,205.648 46.291 C 205.601 46.322,205.681 46.570,205.825 46.841 C 206.166 47.482,208.800 55.770,208.800 56.202 C 208.800 56.722,207.543 56.225,206.933 55.465 C 206.860 55.373,206.203 54.891,205.472 54.394 C 204.742 53.897,203.302 52.857,202.272 52.084 C 199.945 50.335,200.126 50.325,197.364 52.355 C 196.100 53.284,194.647 54.328,194.133 54.676 C 193.620 55.023,193.140 55.380,193.067 55.469 C 192.825 55.762,191.619 56.533,191.402 56.533 C 191.108 56.533,191.334 55.634,192.691 51.401 C 193.338 49.385,193.867 47.555,193.867 47.334 C 193.867 47.114,193.987 46.933,194.133 46.933 C 194.850 46.933,194.213 46.148,192.618 45.067 C 191.645 44.407,190.718 43.741,190.558 43.588 C 190.398 43.435,189.337 42.663,188.200 41.873 C 187.063 41.082,186.133 40.337,186.133 40.218 C 186.133 40.098,186.103 39.910,186.067 39.800 C 186.030 39.690,188.383 39.540,191.296 39.467 L 196.592 39.333 197.255 37.200 C 197.619 36.027,198.026 34.858,198.159 34.604 C 198.291 34.349,198.400 33.906,198.400 33.619 C 198.400 33.333,198.520 33.024,198.667 32.933 C 198.813 32.843,198.933 32.483,198.933 32.133 C 198.933 31.784,199.053 31.424,199.200 31.333 C 199.347 31.243,199.467 30.876,199.467 30.518 C 199.467 29.285,200.377 29.719,200.759 31.133 M156.277 42.733 C 156.725 44.444,157.631 47.274,157.897 47.796 C 158.027 48.051,158.133 48.494,158.133 48.781 C 158.133 49.067,158.253 49.376,158.400 49.467 C 158.547 49.557,158.667 49.900,158.667 50.229 C 158.667 51.391,159.020 51.467,164.453 51.467 C 170.208 51.467,170.591 51.613,168.470 52.996 C 167.849 53.402,167.159 53.877,166.937 54.052 C 166.715 54.227,165.753 54.938,164.800 55.631 C 163.847 56.325,162.680 57.175,162.208 57.520 C 161.343 58.153,161.202 59.353,161.902 60.120 C 162.029 60.259,162.133 60.591,162.133 60.857 C 162.133 61.123,162.240 61.549,162.370 61.804 C 162.749 62.543,164.267 67.378,164.267 67.843 C 164.267 68.510,162.664 67.900,161.867 66.930 C 161.793 66.841,160.893 66.179,159.867 65.460 C 158.840 64.740,157.940 64.078,157.867 63.989 C 156.803 62.691,155.252 62.353,154.323 63.216 C 154.061 63.460,153.161 64.124,152.323 64.693 C 151.485 65.261,150.740 65.794,150.667 65.876 C 150.593 65.958,150.113 66.317,149.600 66.672 C 149.087 67.028,148.434 67.532,148.150 67.793 C 147.134 68.724,146.468 67.815,147.176 66.463 C 147.309 66.208,147.864 64.560,148.408 62.800 C 148.952 61.040,149.524 59.328,149.680 58.995 C 150.029 58.247,150.310 58.515,145.467 54.992 C 143.267 53.393,141.467 51.975,141.467 51.842 C 141.467 51.709,143.861 51.540,146.788 51.467 L 152.110 51.333 152.809 49.134 C 153.194 47.925,153.589 46.855,153.688 46.757 C 153.786 46.658,153.867 46.305,153.867 45.971 C 153.867 45.638,153.987 45.291,154.133 45.200 C 154.280 45.109,154.400 44.749,154.400 44.400 C 154.400 44.051,154.520 43.691,154.667 43.600 C 154.813 43.509,154.933 43.166,154.933 42.838 C 154.933 42.251,155.377 41.600,155.776 41.600 C 155.888 41.600,156.113 42.110,156.277 42.733 M244.719 41.933 C 244.858 42.117,245.124 42.807,245.311 43.467 C 245.499 44.127,245.760 44.875,245.893 45.130 C 246.025 45.384,246.133 45.814,246.133 46.085 C 246.133 46.356,246.219 46.664,246.324 46.769 C 246.429 46.874,246.835 47.944,247.226 49.147 L 247.936 51.333 253.235 51.467 C 256.516 51.549,258.528 51.702,258.518 51.867 C 258.504 52.118,257.086 53.201,252.200 56.693 C 250.245 58.090,249.790 58.690,250.400 59.067 C 250.547 59.157,250.667 59.466,250.667 59.753 C 250.667 60.039,250.776 60.482,250.910 60.737 C 251.352 61.576,253.067 67.108,253.067 67.694 C 253.067 68.390,252.548 68.432,251.850 67.793 C 251.566 67.532,250.913 67.028,250.400 66.672 C 249.887 66.317,249.407 65.953,249.333 65.863 C 249.260 65.774,248.360 65.112,247.333 64.393 C 246.307 63.674,245.407 63.009,245.333 62.916 C 244.894 62.358,242.933 62.855,242.933 63.524 C 242.933 63.639,242.763 63.733,242.556 63.733 C 242.348 63.733,242.138 63.829,242.089 63.947 C 242.040 64.064,241.160 64.750,240.133 65.471 C 239.107 66.192,238.207 66.852,238.133 66.937 C 237.364 67.833,235.733 68.517,235.733 67.944 C 235.733 67.529,237.835 60.815,238.157 60.204 C 238.291 59.949,238.400 59.523,238.400 59.257 C 238.400 58.991,238.511 58.659,238.648 58.520 C 238.802 58.362,237.775 57.466,235.914 56.137 C 234.275 54.966,232.805 53.886,232.647 53.737 C 232.490 53.588,231.921 53.167,231.383 52.800 C 229.583 51.575,229.922 51.467,235.567 51.467 C 241.282 51.467,241.025 51.546,241.578 49.600 C 241.765 48.940,242.027 48.192,242.159 47.937 C 242.292 47.682,242.400 47.239,242.400 46.953 C 242.400 46.666,242.520 46.357,242.667 46.267 C 242.813 46.176,242.933 45.867,242.933 45.581 C 242.933 45.294,243.045 44.851,243.182 44.596 C 243.319 44.342,243.585 43.563,243.774 42.867 C 244.131 41.544,244.300 41.378,244.719 41.933 M123.593 74.733 C 124.068 76.490,125.155 79.927,125.362 80.330 C 125.493 80.584,125.600 81.027,125.600 81.314 C 125.600 81.601,125.720 81.909,125.867 82.000 C 126.013 82.091,126.133 82.434,126.133 82.762 C 126.133 83.924,126.487 84.000,131.920 84.000 C 137.674 84.000,138.062 84.147,135.933 85.527 C 135.310 85.931,134.740 86.329,134.667 86.410 C 134.593 86.492,134.113 86.847,133.600 87.200 C 133.087 87.553,132.607 87.911,132.533 87.996 C 132.460 88.082,131.594 88.721,130.608 89.417 C 128.780 90.707,128.429 91.625,129.369 92.653 C 129.496 92.793,129.600 93.124,129.600 93.390 C 129.600 93.656,129.707 94.082,129.837 94.337 C 130.215 95.076,131.733 99.911,131.733 100.377 C 131.733 101.228,131.156 100.880,125.172 96.415 C 123.399 95.093,122.664 94.934,121.845 95.696 C 121.552 95.969,120.627 96.657,119.790 97.226 C 118.952 97.794,118.207 98.327,118.133 98.409 C 118.060 98.492,117.580 98.850,117.067 99.206 C 116.553 99.561,115.901 100.065,115.616 100.326 C 115.332 100.587,114.942 100.800,114.750 100.800 C 114.337 100.800,114.266 99.314,114.667 99.067 C 114.813 98.976,114.933 98.667,114.933 98.381 C 114.933 98.094,115.042 97.651,115.175 97.396 C 115.368 97.026,116.919 92.329,117.277 91.030 C 117.323 90.862,116.425 90.052,115.281 89.228 C 114.136 88.404,112.270 87.063,111.133 86.247 C 108.061 84.041,108.119 84.000,114.272 84.000 C 120.283 84.000,119.474 84.453,120.697 80.400 C 121.095 79.080,121.521 77.886,121.644 77.747 C 121.766 77.607,121.867 77.224,121.867 76.896 C 121.867 76.567,121.987 76.224,122.133 76.133 C 122.280 76.043,122.400 75.626,122.400 75.206 C 122.400 74.533,122.650 74.224,123.249 74.154 C 123.349 74.143,123.504 74.403,123.593 74.733 M277.178 74.295 C 277.410 74.384,277.605 74.654,277.611 74.895 C 277.618 75.136,278.261 77.253,279.042 79.600 L 280.460 83.867 285.697 83.939 C 291.860 84.024,291.929 84.072,288.967 86.192 C 287.885 86.967,286.025 88.298,284.833 89.152 C 282.743 90.648,282.410 91.071,282.891 91.613 C 283.014 91.753,283.389 92.767,283.723 93.867 C 284.057 94.967,284.616 96.728,284.965 97.780 C 286.025 100.975,285.832 101.373,283.922 99.933 C 283.290 99.457,282.479 98.856,282.120 98.600 C 279.575 96.780,277.987 95.573,277.911 95.401 C 277.671 94.858,276.311 95.295,274.950 96.353 C 274.134 96.987,272.867 97.909,272.133 98.402 C 271.400 98.895,270.740 99.372,270.667 99.462 C 269.879 100.429,268.267 101.044,268.267 100.377 C 268.267 99.911,269.785 95.076,270.163 94.337 C 270.293 94.082,270.400 93.652,270.400 93.381 C 270.400 93.111,270.482 92.807,270.583 92.706 C 270.683 92.606,270.901 92.129,271.067 91.646 L 271.369 90.769 268.418 88.651 C 265.313 86.423,265.179 86.322,263.800 85.195 C 262.413 84.060,262.630 84.000,268.080 84.000 C 273.513 84.000,273.867 83.924,273.867 82.762 C 273.867 82.434,273.987 82.091,274.133 82.000 C 274.280 81.909,274.400 81.549,274.400 81.200 C 274.400 80.851,274.520 80.491,274.667 80.400 C 274.813 80.309,274.933 79.966,274.933 79.638 C 274.933 79.309,275.036 78.926,275.161 78.787 C 275.286 78.647,275.669 77.543,276.011 76.333 C 276.353 75.123,276.661 74.133,276.695 74.133 C 276.729 74.133,276.946 74.206,277.178 74.295 M111.590 119.000 C 111.649 119.183,112.258 121.133,112.944 123.333 C 113.629 125.533,114.318 127.603,114.474 127.933 C 114.753 128.525,114.828 128.533,119.912 128.533 C 125.660 128.533,125.969 128.648,123.933 130.030 C 123.310 130.454,122.666 130.920,122.501 131.067 C 122.337 131.213,121.268 131.993,120.126 132.800 C 116.550 135.327,116.419 135.660,117.890 138.463 C 118.024 138.718,118.133 139.161,118.133 139.447 C 118.133 139.734,118.253 140.043,118.400 140.133 C 118.547 140.224,118.667 140.584,118.667 140.933 C 118.667 141.283,118.787 141.643,118.933 141.733 C 119.080 141.824,119.200 142.167,119.200 142.496 C 119.200 142.824,119.307 143.207,119.439 143.347 C 119.570 143.486,119.759 143.990,119.860 144.467 C 120.105 145.629,119.684 145.596,118.000 144.323 C 117.267 143.769,115.827 142.724,114.800 142.000 C 113.773 141.277,112.873 140.614,112.800 140.527 C 112.040 139.627,110.892 139.287,110.352 139.803 C 110.048 140.094,108.060 141.574,105.880 143.133 C 105.521 143.390,104.710 143.990,104.078 144.467 C 102.080 145.973,102.002 145.704,103.302 141.786 C 104.767 137.367,105.418 135.195,105.306 135.100 C 105.247 135.051,104.300 134.364,103.200 133.574 C 102.100 132.783,101.020 131.992,100.800 131.815 C 100.580 131.638,99.650 130.948,98.733 130.281 C 96.372 128.562,96.388 128.554,102.333 128.472 L 107.600 128.400 108.760 124.800 C 109.398 122.820,110.028 120.992,110.160 120.737 C 110.292 120.482,110.400 120.056,110.400 119.790 C 110.400 118.938,111.365 118.297,111.590 119.000 M289.280 118.987 C 289.456 119.163,289.600 119.524,289.600 119.790 C 289.600 120.056,289.706 120.482,289.837 120.737 C 289.967 120.992,290.601 122.820,291.247 124.800 L 292.420 128.400 297.677 128.472 C 300.821 128.516,302.933 128.648,302.933 128.802 C 302.933 129.028,298.969 132.076,295.806 134.281 C 294.497 135.193,294.514 135.118,295.174 137.049 C 297.183 142.925,297.834 145.333,297.412 145.333 C 297.218 145.333,294.106 143.225,293.867 142.931 C 293.793 142.841,292.893 142.178,291.867 141.456 C 290.840 140.735,289.841 139.992,289.648 139.806 C 289.198 139.373,288.668 139.374,288.219 139.807 C 288.025 139.994,286.861 140.847,285.633 141.703 C 284.404 142.559,282.784 143.726,282.033 144.295 C 280.761 145.260,280.000 145.581,280.000 145.153 C 280.000 144.873,281.900 139.124,282.165 138.604 C 282.294 138.349,282.400 137.906,282.400 137.619 C 282.400 137.333,282.506 137.033,282.636 136.952 C 282.766 136.872,282.927 136.431,282.994 135.971 C 283.127 135.067,283.153 135.090,276.994 130.667 C 274.042 128.546,274.061 128.533,280.037 128.533 C 285.559 128.533,285.837 128.461,285.858 127.016 C 285.863 126.694,285.987 126.357,286.133 126.267 C 286.280 126.176,286.400 125.816,286.400 125.467 C 286.400 125.117,286.520 124.757,286.667 124.667 C 286.813 124.576,286.933 124.267,286.933 123.981 C 286.933 123.694,287.043 123.251,287.177 122.996 C 287.312 122.742,287.680 121.663,287.996 120.600 C 288.586 118.614,288.729 118.435,289.280 118.987 M123.579 163.533 C 124.111 165.390,125.256 169.081,125.831 170.800 L 126.546 172.933 131.806 173.006 C 134.699 173.045,137.067 173.184,137.067 173.313 C 137.067 173.442,136.092 174.250,134.901 175.107 C 133.710 175.965,132.600 176.791,132.434 176.943 C 132.269 177.095,131.383 177.743,130.467 178.382 C 129.550 179.021,128.800 179.638,128.800 179.754 C 128.800 180.008,130.104 184.186,130.417 184.933 C 130.653 185.498,131.380 187.652,131.738 188.847 C 132.014 189.771,131.465 190.020,130.707 189.314 C 130.404 189.031,130.041 188.800,129.900 188.800 C 129.759 188.800,129.604 188.706,129.556 188.590 C 129.507 188.475,129.047 188.092,128.533 187.740 C 126.660 186.453,123.598 184.134,123.511 183.936 C 123.376 183.627,122.990 183.693,122.470 184.114 C 121.458 184.934,118.466 187.143,117.200 188.004 C 116.467 188.503,115.634 189.126,115.350 189.389 C 115.065 189.652,114.735 189.867,114.616 189.867 C 114.304 189.867,114.349 188.063,114.667 187.867 C 114.813 187.776,114.933 187.467,114.933 187.181 C 114.933 186.894,115.047 186.451,115.185 186.196 C 115.725 185.202,117.347 179.642,117.146 179.472 C 117.029 179.373,116.093 178.709,115.067 177.996 C 114.040 177.282,113.140 176.626,113.067 176.537 C 112.993 176.447,112.513 176.083,112.000 175.728 C 111.487 175.372,110.947 174.987,110.800 174.871 C 110.653 174.755,110.203 174.413,109.800 174.111 C 108.522 173.153,108.887 173.067,114.234 173.067 L 119.402 173.067 119.681 172.333 C 119.835 171.930,120.284 170.580,120.679 169.333 C 121.074 168.087,121.503 166.858,121.632 166.604 C 121.761 166.349,121.867 165.906,121.867 165.619 C 121.867 165.333,121.987 165.024,122.133 164.933 C 122.280 164.843,122.400 164.496,122.400 164.162 C 122.400 163.239,123.349 162.733,123.579 163.533 M277.792 164.667 C 278.006 165.400,278.290 166.208,278.424 166.463 C 278.557 166.718,278.667 167.109,278.667 167.333 C 278.667 167.557,278.773 167.949,278.903 168.204 C 279.033 168.458,279.412 169.507,279.744 170.533 C 280.623 173.248,280.186 173.067,285.855 173.067 C 288.599 173.067,290.923 173.145,291.019 173.241 C 291.181 173.403,285.502 177.751,283.533 178.972 C 282.607 179.547,282.526 179.744,282.914 180.470 C 283.050 180.725,283.665 182.493,284.280 184.400 C 286.124 190.115,286.128 190.504,284.336 189.123 C 283.033 188.120,279.592 185.612,278.400 184.797 C 277.887 184.446,277.389 184.046,277.294 183.908 C 277.150 183.699,275.670 184.515,275.200 185.063 C 275.127 185.148,274.227 185.810,273.200 186.534 C 272.173 187.257,270.746 188.292,270.027 188.834 C 268.130 190.266,267.924 190.012,268.791 187.315 C 269.190 186.076,269.595 184.983,269.691 184.887 C 269.788 184.790,269.867 184.438,269.867 184.105 C 269.867 183.771,269.987 183.424,270.133 183.333 C 270.280 183.243,270.400 182.883,270.400 182.533 C 270.400 182.184,270.520 181.824,270.667 181.733 C 270.813 181.643,270.933 181.300,270.933 180.971 C 270.933 180.642,271.059 180.247,271.213 180.094 C 271.511 179.796,271.439 179.730,268.267 177.409 C 267.313 176.712,266.493 176.049,266.444 175.937 C 266.396 175.825,266.251 175.733,266.122 175.733 C 265.775 175.733,262.933 173.560,262.933 173.295 C 262.933 173.169,265.249 173.067,268.080 173.067 C 273.409 173.067,273.867 172.978,273.867 171.943 C 273.867 171.677,273.973 171.251,274.104 170.996 C 274.377 170.462,275.812 166.016,276.260 164.317 C 276.667 162.773,277.281 162.913,277.792 164.667 M156.493 197.533 C 156.832 198.670,157.205 199.840,157.322 200.133 C 157.439 200.427,157.880 201.747,158.303 203.067 L 159.071 205.467 164.335 205.539 C 167.231 205.579,169.600 205.713,169.600 205.837 C 169.600 206.035,166.385 208.493,162.605 211.184 C 161.116 212.245,161.078 211.733,163.085 217.724 C 164.974 223.362,165.087 223.308,159.733 219.327 C 155.888 216.467,155.426 216.171,155.239 216.438 C 155.144 216.574,154.227 217.274,153.200 217.993 C 152.173 218.712,151.273 219.374,151.200 219.463 C 151.127 219.553,150.647 219.914,150.133 220.267 C 149.620 220.619,149.140 220.973,149.067 221.054 C 147.663 222.593,146.558 222.391,147.135 220.700 C 147.681 219.098,149.867 212.268,149.867 212.162 C 149.867 212.104,149.297 211.687,148.600 211.236 C 147.903 210.785,147.014 210.142,146.625 209.808 C 146.235 209.474,144.889 208.482,143.633 207.605 C 140.764 205.600,140.723 205.626,146.901 205.539 L 152.055 205.467 152.987 202.533 C 153.499 200.920,154.027 199.392,154.159 199.137 C 154.292 198.882,154.400 198.439,154.400 198.153 C 154.400 197.866,154.520 197.557,154.667 197.467 C 154.813 197.376,154.933 197.033,154.933 196.704 C 154.933 196.151,155.371 195.467,155.725 195.467 C 155.809 195.467,156.155 196.397,156.493 197.533 M244.719 195.800 C 244.858 195.983,245.124 196.673,245.311 197.333 C 245.499 197.993,245.760 198.742,245.893 198.996 C 246.025 199.251,246.133 199.694,246.133 199.981 C 246.133 200.267,246.253 200.576,246.400 200.667 C 246.547 200.757,246.667 201.066,246.667 201.353 C 246.667 201.639,246.772 202.082,246.901 202.337 C 247.029 202.592,247.285 203.280,247.468 203.867 C 248.026 205.653,247.846 205.600,253.322 205.600 C 256.066 205.600,258.390 205.679,258.486 205.775 C 258.648 205.937,252.968 210.285,251.000 211.506 C 250.075 212.080,249.994 212.275,250.377 213.004 C 251.301 214.760,253.245 221.867,252.896 222.215 C 252.731 222.380,250.625 220.880,250.444 220.469 C 250.396 220.358,250.247 220.267,250.114 220.267 C 249.893 220.267,248.043 218.953,245.530 217.011 L 244.526 216.236 243.663 216.847 C 242.391 217.748,239.398 219.967,238.906 220.374 C 236.863 222.064,235.267 222.646,235.725 221.533 C 235.861 221.203,236.298 219.853,236.697 218.533 C 237.095 217.213,237.521 216.019,237.644 215.880 C 237.766 215.741,237.867 215.358,237.867 215.029 C 237.867 214.700,237.987 214.357,238.133 214.267 C 238.280 214.176,238.400 213.816,238.400 213.467 C 238.400 213.117,238.533 212.749,238.695 212.649 C 239.039 212.437,238.360 211.776,236.394 210.412 C 233.352 208.303,230.400 206.049,230.400 205.838 C 230.400 205.713,232.770 205.579,235.667 205.539 L 240.933 205.467 242.452 200.933 C 243.287 198.440,243.977 196.190,243.985 195.933 C 244.003 195.389,244.360 195.324,244.719 195.800 M201.273 210.550 C 201.771 212.154,202.289 213.675,202.423 213.930 C 202.557 214.184,202.667 214.627,202.667 214.914 C 202.667 215.201,202.787 215.509,202.933 215.600 C 203.080 215.691,203.200 216.034,203.200 216.362 C 203.200 217.524,203.553 217.600,208.987 217.600 C 214.879 217.600,214.814 217.561,212.067 219.478 C 209.846 221.027,206.844 223.229,206.037 223.900 C 205.672 224.203,205.619 224.392,205.837 224.610 C 206.000 224.773,206.133 225.176,206.133 225.504 C 206.133 225.833,206.253 226.176,206.400 226.267 C 206.547 226.357,206.667 226.666,206.667 226.953 C 206.667 227.239,206.775 227.682,206.907 227.937 C 207.211 228.521,208.800 233.496,208.800 233.861 C 208.800 234.245,208.105 234.199,207.686 233.787 C 207.492 233.597,206.733 233.036,206.000 232.540 C 204.047 231.220,200.694 228.720,200.494 228.435 C 200.251 228.091,199.832 228.296,198.000 229.658 C 191.485 234.502,190.986 234.792,191.326 233.533 C 191.775 231.875,193.954 225.136,194.182 224.702 C 194.477 224.141,194.526 224.198,192.533 222.788 C 191.727 222.218,191.007 221.679,190.933 221.591 C 190.860 221.503,190.200 221.025,189.467 220.528 C 188.733 220.032,187.979 219.474,187.790 219.289 C 187.602 219.104,187.092 218.742,186.657 218.485 C 185.302 217.685,185.721 217.600,191.034 217.600 C 196.749 217.600,196.492 217.680,197.045 215.733 C 197.232 215.073,197.494 214.325,197.626 214.070 C 197.758 213.816,197.867 213.373,197.867 213.086 C 197.867 212.799,197.987 212.491,198.133 212.400 C 198.280 212.309,198.400 211.949,198.400 211.600 C 198.400 211.251,198.520 210.891,198.667 210.800 C 198.813 210.709,198.933 210.349,198.933 210.000 C 198.933 209.651,199.053 209.291,199.200 209.200 C 199.347 209.109,199.467 208.762,199.467 208.429 C 199.467 207.745,199.705 207.413,200.100 207.544 C 200.246 207.593,200.774 208.946,201.273 210.550 " stroke="none" fill="#04349b" fill-rule="evenodd"></path><path id="path2" d="M199.559 30.812 C 199.472 31.038,199.476 31.298,199.567 31.389 C 199.659 31.481,199.733 31.356,199.733 31.111 C 199.733 30.592,200.161 30.515,200.357 31.000 C 200.437 31.199,200.500 31.145,200.512 30.867 C 200.538 30.291,199.775 30.247,199.559 30.812 M211.773 41.335 C 211.165 41.776,210.667 42.202,210.667 42.282 C 210.667 42.407,212.169 41.385,212.920 40.748 C 213.552 40.213,212.771 40.612,211.773 41.335 M187.467 40.897 C 187.467 40.970,187.827 41.287,188.267 41.600 C 188.707 41.913,189.067 42.110,189.067 42.036 C 189.067 41.963,188.707 41.647,188.267 41.333 C 187.827 41.020,187.467 40.824,187.467 40.897 M244.004 42.600 C 244.008 42.993,244.048 43.004,244.257 42.673 C 244.460 42.352,244.554 42.401,244.769 42.940 C 244.915 43.305,245.040 43.415,245.050 43.187 C 245.068 42.752,244.576 42.133,244.213 42.133 C 244.096 42.133,244.002 42.343,244.004 42.600 M205.337 46.556 C 205.340 46.837,205.463 47.247,205.612 47.467 C 205.810 47.759,205.835 47.651,205.704 47.067 C 205.485 46.086,205.332 45.873,205.337 46.556 M199.282 50.343 C 199.107 50.455,199.429 50.545,200.000 50.545 C 200.571 50.545,200.893 50.455,200.718 50.343 C 200.543 50.232,200.220 50.142,200.000 50.142 C 199.780 50.142,199.457 50.232,199.282 50.343 M158.408 51.080 C 158.385 51.880,159.107 52.000,163.987 52.008 L 168.933 52.017 168.221 52.549 C 166.650 53.722,166.345 54.112,167.649 53.281 C 170.008 51.777,169.910 51.733,164.138 51.733 C 159.488 51.733,158.932 51.686,158.688 51.267 C 158.539 51.010,158.413 50.926,158.408 51.080 M241.241 51.322 C 241.106 51.673,240.320 51.733,235.842 51.733 C 230.054 51.733,230.121 51.703,232.455 53.302 C 233.693 54.151,233.224 53.628,231.779 52.549 L 231.067 52.017 236.034 52.008 C 240.834 52.000,242.243 51.755,241.538 51.049 C 241.461 50.973,241.328 51.096,241.241 51.322 M147.009 51.725 C 141.844 51.868,141.624 51.924,142.800 52.795 C 143.328 53.187,143.328 53.185,142.825 52.595 L 142.317 52.000 147.092 51.996 C 149.718 51.994,152.047 51.876,152.267 51.733 C 152.487 51.591,152.547 51.499,152.400 51.529 C 152.253 51.558,149.828 51.646,147.009 51.725 M247.733 51.704 C 247.983 51.884,249.905 51.993,252.844 51.996 C 256.267 51.999,257.585 52.087,257.662 52.320 C 257.729 52.520,257.834 52.470,257.943 52.187 C 258.102 51.770,257.718 51.733,253.213 51.733 C 250.517 51.733,248.090 51.662,247.822 51.575 C 247.416 51.443,247.401 51.465,247.733 51.704 M203.034 52.213 C 203.140 52.385,203.780 52.906,204.455 53.371 C 206.053 54.470,205.760 53.997,204.109 52.811 C 203.411 52.310,202.927 52.041,203.034 52.213 M254.800 54.300 C 254.321 54.708,254.222 54.870,254.555 54.705 C 255.044 54.462,255.961 53.584,255.699 53.610 C 255.645 53.615,255.240 53.926,254.800 54.300 M208.151 55.187 L 208.337 55.841 207.568 55.371 L 206.800 54.902 207.430 55.451 C 208.414 56.309,208.964 55.960,208.245 54.933 C 208.031 54.628,208.009 54.687,208.151 55.187 M163.200 56.299 C 162.271 57.114,162.270 57.115,163.125 56.546 C 163.598 56.232,164.055 55.861,164.141 55.721 C 164.398 55.305,164.185 55.436,163.200 56.299 M241.733 63.755 C 240.151 64.951,239.938 65.288,241.422 64.248 C 242.543 63.463,243.153 62.916,242.882 62.941 C 242.837 62.945,242.320 63.311,241.733 63.755 M151.333 64.821 C 149.751 66.017,149.538 66.355,151.022 65.315 C 152.143 64.529,152.753 63.983,152.482 64.007 C 152.437 64.011,151.920 64.378,151.333 64.821 M248.362 64.739 C 248.573 65.081,250.133 66.235,250.133 66.050 C 250.133 65.984,249.693 65.594,249.154 65.183 C 248.616 64.773,248.260 64.573,248.362 64.739 M238.027 66.418 C 237.455 66.848,237.100 67.200,237.237 67.200 C 237.374 67.200,237.902 66.845,238.410 66.411 C 239.591 65.401,239.374 65.405,238.027 66.418 M162.667 67.160 C 163.918 68.267,164.591 67.952,163.721 66.667 C 163.523 66.374,163.499 66.475,163.632 67.044 L 163.813 67.821 162.773 67.078 L 161.733 66.334 162.667 67.160 M236.106 67.079 C 235.901 67.897,236.152 68.231,236.604 67.743 C 236.868 67.458,236.860 67.430,236.561 67.601 C 236.267 67.768,236.226 67.664,236.366 67.106 C 236.464 66.718,236.483 66.400,236.410 66.400 C 236.337 66.400,236.200 66.706,236.106 67.079 M147.104 67.333 C 146.781 68.174,147.125 68.259,147.916 67.533 C 148.196 67.277,148.260 67.179,148.059 67.316 C 147.816 67.482,147.622 67.452,147.483 67.227 C 147.324 66.970,147.233 66.995,147.104 67.333 M251.963 67.451 C 252.669 68.067,253.067 68.153,253.067 67.689 C 253.067 67.518,252.986 67.458,252.888 67.556 C 252.790 67.655,252.400 67.548,252.021 67.318 L 251.333 66.902 251.963 67.451 M122.667 74.933 C 122.667 75.080,122.847 75.200,123.067 75.200 C 123.287 75.200,123.467 75.080,123.467 74.933 C 123.467 74.787,123.287 74.667,123.067 74.667 C 122.847 74.667,122.667 74.787,122.667 74.933 M276.533 75.058 C 276.533 75.297,276.690 75.390,276.933 75.296 C 277.217 75.188,277.333 75.320,277.333 75.749 C 277.333 76.083,277.408 76.281,277.499 76.190 C 277.590 76.099,277.587 75.719,277.494 75.346 C 277.313 74.627,276.533 74.393,276.533 75.058 M125.884 83.501 C 125.849 84.388,126.525 84.520,131.462 84.594 L 136.350 84.667 134.921 85.667 C 134.135 86.217,133.590 86.667,133.710 86.667 C 134.061 86.667,136.533 84.778,136.533 84.511 C 136.533 84.372,134.349 84.267,131.458 84.267 C 126.444 84.267,126.380 84.259,126.142 83.667 C 125.978 83.261,125.895 83.207,125.884 83.501 M273.805 83.674 C 273.652 84.260,273.597 84.267,268.558 84.267 C 262.761 84.267,262.778 84.256,265.365 86.138 C 266.409 86.898,267.185 87.392,267.089 87.237 C 266.993 87.082,266.181 86.440,265.284 85.811 L 263.652 84.667 268.598 84.594 C 273.655 84.520,274.388 84.363,274.072 83.416 C 274.010 83.231,273.890 83.347,273.805 83.674 M280.000 83.918 C 280.000 84.445,280.790 84.533,285.530 84.533 L 290.216 84.533 289.708 85.104 C 289.202 85.673,289.202 85.674,289.795 85.310 C 291.302 84.385,290.832 84.267,285.645 84.267 C 282.108 84.267,280.546 84.173,280.320 83.947 C 280.106 83.733,280.000 83.723,280.000 83.918 M114.733 84.200 C 109.159 84.285,108.766 84.414,110.603 85.549 L 111.600 86.165 110.667 85.357 L 109.733 84.548 114.718 84.541 C 117.745 84.536,119.767 84.429,119.867 84.267 C 119.957 84.120,119.994 84.027,119.949 84.061 C 119.904 84.094,117.557 84.156,114.733 84.200 M288.133 86.290 L 287.333 86.977 288.200 86.404 C 288.677 86.088,289.067 85.779,289.067 85.715 C 289.067 85.516,288.954 85.585,288.133 86.290 M286.123 87.753 L 285.200 88.572 286.200 87.854 C 287.084 87.220,287.371 86.933,287.123 86.933 C 287.081 86.933,286.631 87.302,286.123 87.753 M130.667 88.833 C 129.737 89.647,129.737 89.648,130.592 89.080 C 131.064 88.766,131.521 88.394,131.608 88.254 C 131.865 87.838,131.652 87.969,130.667 88.833 M269.333 88.897 C 269.333 88.970,269.693 89.287,270.133 89.600 C 270.573 89.913,270.933 90.110,270.933 90.036 C 270.933 89.963,270.573 89.647,270.133 89.333 C 269.693 89.020,269.333 88.824,269.333 88.897 M122.282 94.808 C 121.617 95.312,121.864 95.309,122.836 94.802 C 123.256 94.583,123.420 94.406,123.200 94.410 C 122.980 94.414,122.567 94.593,122.282 94.808 M277.164 94.802 C 278.136 95.309,278.383 95.312,277.718 94.808 C 277.433 94.593,277.020 94.414,276.800 94.410 C 276.580 94.406,276.744 94.583,277.164 94.802 M125.429 96.206 C 125.640 96.547,127.200 97.702,127.200 97.516 C 127.200 97.451,126.759 97.061,126.221 96.650 C 125.683 96.239,125.326 96.039,125.429 96.206 M280.000 96.623 C 280.000 96.697,280.870 97.381,281.933 98.144 C 282.997 98.907,283.627 99.297,283.333 99.009 C 282.654 98.344,280.000 96.444,280.000 96.623 M117.733 98.133 C 117.293 98.425,117.053 98.661,117.200 98.659 C 117.467 98.655,118.917 97.616,118.667 97.608 C 118.593 97.605,118.173 97.842,117.733 98.133 M271.600 98.290 L 270.800 98.977 271.667 98.404 C 272.143 98.088,272.533 97.779,272.533 97.715 C 272.533 97.516,272.420 97.585,271.600 98.290 M130.133 99.701 C 130.647 100.151,131.146 100.522,131.243 100.526 C 131.476 100.536,131.329 99.237,131.069 98.991 C 130.958 98.886,130.950 99.070,131.052 99.400 C 131.280 100.143,131.109 100.150,130.041 99.441 C 129.235 98.906,129.239 98.917,130.133 99.701 M268.640 99.612 C 268.434 100.430,268.685 100.765,269.138 100.276 C 269.402 99.992,269.393 99.964,269.094 100.134 C 268.801 100.302,268.760 100.198,268.900 99.640 C 268.997 99.251,269.017 98.933,268.943 98.933 C 268.870 98.933,268.733 99.239,268.640 99.612 M288.533 119.167 C 288.533 119.332,288.649 119.467,288.790 119.467 C 288.931 119.467,289.179 119.959,289.341 120.560 C 289.503 121.162,289.684 121.605,289.744 121.545 C 289.951 121.338,289.322 119.522,288.929 119.196 C 288.654 118.968,288.533 118.959,288.533 119.167 M108.667 125.867 C 108.567 126.182,108.545 126.500,108.618 126.574 C 108.691 126.647,108.833 126.449,108.933 126.133 C 109.033 125.818,109.055 125.500,108.982 125.426 C 108.909 125.353,108.767 125.551,108.667 125.867 M113.871 127.759 C 113.860 128.894,114.612 129.070,119.221 129.010 L 123.600 128.953 119.074 128.810 C 114.577 128.668,114.546 128.662,114.211 128.000 C 114.001 127.584,113.873 127.493,113.871 127.759 M285.732 128.062 C 285.475 128.648,285.324 128.671,280.933 128.810 L 276.400 128.953 280.825 129.010 C 285.391 129.068,286.449 128.814,286.093 127.744 C 286.040 127.587,285.878 127.730,285.732 128.062 M103.067 128.800 L 98.533 128.953 102.933 129.006 C 105.420 129.036,107.507 128.946,107.733 128.800 C 107.953 128.658,108.013 128.565,107.867 128.594 C 107.720 128.623,105.560 128.716,103.067 128.800 M124.267 129.028 C 124.267 129.153,123.551 129.758,122.676 130.372 C 121.801 130.986,121.007 131.615,120.911 131.770 C 120.815 131.925,121.588 131.432,122.630 130.675 C 124.571 129.263,125.045 128.800,124.549 128.800 C 124.394 128.800,124.267 128.903,124.267 129.028 M294.867 128.998 C 296.077 129.048,298.057 129.048,299.267 128.998 C 300.477 128.949,299.487 128.909,297.067 128.909 C 294.647 128.909,293.657 128.949,294.867 128.998 M300.667 130.290 L 299.867 130.977 300.733 130.404 C 301.210 130.088,301.600 129.779,301.600 129.715 C 301.600 129.516,301.487 129.585,300.667 130.290 M277.333 130.484 C 277.333 130.549,277.774 130.939,278.312 131.350 C 278.851 131.761,279.207 131.961,279.104 131.794 C 278.893 131.453,277.333 130.298,277.333 130.484 M298.674 131.613 C 298.165 131.973,297.865 132.266,298.008 132.265 C 298.150 132.265,298.627 131.969,299.067 131.608 C 300.094 130.766,299.870 130.769,298.674 131.613 M118.533 133.368 C 116.956 134.549,116.748 134.870,118.186 133.903 C 118.876 133.439,119.513 132.941,119.602 132.797 C 119.837 132.417,119.722 132.479,118.533 133.368 M281.382 133.484 C 281.629 133.768,282.229 134.227,282.715 134.505 C 283.759 135.100,283.484 134.805,282.000 133.736 C 281.380 133.289,281.121 133.184,281.382 133.484 M110.282 139.342 C 109.998 139.557,109.901 139.733,110.067 139.733 C 110.233 139.733,110.449 139.603,110.548 139.443 C 110.646 139.284,110.953 139.213,111.230 139.285 C 111.507 139.358,111.667 139.308,111.585 139.175 C 111.370 138.828,110.879 138.891,110.282 139.342 M288.415 139.175 C 288.333 139.308,288.493 139.358,288.770 139.285 C 289.047 139.213,289.354 139.284,289.452 139.443 C 289.551 139.603,289.767 139.733,289.933 139.733 C 290.331 139.733,289.295 138.953,288.882 138.942 C 288.708 138.937,288.498 139.042,288.415 139.175 M112.800 140.084 C 112.800 140.149,113.241 140.539,113.779 140.950 C 114.317 141.361,114.674 141.561,114.571 141.394 C 114.360 141.053,112.800 139.898,112.800 140.084 M106.426 142.145 C 105.633 142.725,105.077 143.200,105.190 143.200 C 105.424 143.200,108.000 141.346,108.000 141.177 C 108.000 141.000,107.939 141.038,106.426 142.145 M284.133 142.290 L 283.333 142.977 284.200 142.404 C 284.677 142.088,285.067 141.779,285.067 141.715 C 285.067 141.516,284.954 141.585,284.133 142.290 M292.906 141.822 C 292.995 141.966,293.680 142.524,294.428 143.062 C 295.177 143.599,295.716 143.921,295.627 143.778 C 295.538 143.634,294.853 143.076,294.105 142.538 C 293.357 142.001,292.817 141.679,292.906 141.822 M282.123 143.753 L 281.200 144.572 282.200 143.854 C 283.084 143.220,283.371 142.933,283.123 142.933 C 283.081 142.933,282.631 143.302,282.123 143.753 M109.485 173.303 C 109.405 173.433,109.518 173.688,109.736 173.869 C 110.012 174.098,110.133 174.107,110.133 173.899 C 110.133 173.735,109.983 173.584,109.800 173.565 C 109.617 173.546,109.887 173.441,110.400 173.333 L 111.333 173.137 110.482 173.102 C 110.014 173.082,109.566 173.173,109.485 173.303 M135.453 173.302 L 136.372 173.467 135.441 174.267 C 134.438 175.128,134.871 174.917,136.052 173.969 C 136.913 173.278,136.768 173.055,135.489 173.102 L 134.533 173.137 135.453 173.302 M263.544 173.280 C 263.315 173.426,263.392 173.591,263.811 173.852 C 264.341 174.182,264.365 174.177,264.049 173.794 C 263.742 173.423,263.809 173.356,264.582 173.261 C 265.461 173.153,265.462 173.152,264.667 173.113 C 264.227 173.092,263.721 173.167,263.544 173.280 M289.600 173.333 C 290.113 173.441,290.383 173.546,290.200 173.565 C 290.017 173.584,289.867 173.735,289.867 173.899 C 289.867 174.107,289.988 174.098,290.264 173.869 C 290.832 173.397,290.505 173.061,289.518 173.102 L 288.667 173.137 289.600 173.333 M264.556 174.486 C 264.617 174.534,265.087 174.844,265.600 175.175 L 266.533 175.777 265.733 175.090 C 265.293 174.712,264.823 174.402,264.689 174.401 C 264.554 174.401,264.494 174.439,264.556 174.486 M268.598 177.222 C 268.685 177.363,269.327 177.888,270.025 178.389 C 270.723 178.890,271.222 179.185,271.135 179.044 C 271.048 178.904,270.406 178.379,269.709 177.878 C 269.011 177.376,268.511 177.082,268.598 177.222 M116.000 178.230 C 116.000 178.304,116.360 178.620,116.800 178.933 C 117.240 179.247,117.600 179.443,117.600 179.370 C 117.600 179.296,117.240 178.980,116.800 178.667 C 116.360 178.353,116.000 178.157,116.000 178.230 M283.067 178.823 L 282.267 179.511 283.133 178.937 C 283.610 178.622,284.000 178.312,284.000 178.249 C 284.000 178.049,283.887 178.118,283.067 178.823 M122.099 183.933 C 121.781 184.339,121.785 184.360,122.133 184.095 C 122.353 183.928,122.773 183.732,123.067 183.660 C 123.573 183.535,123.572 183.527,123.033 183.498 C 122.721 183.481,122.301 183.677,122.099 183.933 M276.415 183.708 C 276.333 183.841,276.506 183.887,276.800 183.811 C 277.129 183.725,277.719 183.947,278.334 184.388 L 279.333 185.105 278.410 184.286 C 277.494 183.473,276.702 183.244,276.415 183.708 M118.600 186.414 C 117.610 187.145,116.800 187.802,116.800 187.874 C 116.800 187.947,117.640 187.395,118.667 186.648 C 120.255 185.493,120.783 185.032,120.467 185.076 C 120.430 185.081,119.590 185.683,118.600 186.414 M125.719 185.310 C 125.920 185.635,128.267 187.288,128.267 187.104 C 128.267 187.038,127.654 186.543,126.906 186.005 C 126.157 185.468,125.623 185.155,125.719 185.310 M280.373 185.822 C 280.462 185.966,281.147 186.524,281.895 187.062 C 282.643 187.599,283.183 187.921,283.094 187.778 C 283.005 187.634,282.320 187.076,281.572 186.538 C 280.823 186.001,280.284 185.679,280.373 185.822 M268.695 188.422 C 268.477 188.990,268.491 189.333,268.733 189.333 C 268.843 189.333,268.951 189.033,268.972 188.666 C 269.016 187.899,268.926 187.820,268.695 188.422 M285.171 188.600 C 285.342 189.147,285.063 189.204,284.527 188.733 C 284.318 188.550,284.375 188.673,284.654 189.006 C 285.252 189.722,285.834 189.399,285.341 188.626 C 285.066 188.196,285.045 188.193,285.171 188.600 M155.246 196.467 C 155.115 196.723,154.934 197.293,154.844 197.733 C 154.678 198.545,154.954 198.101,155.309 196.983 C 155.394 196.717,155.584 196.574,155.731 196.666 C 155.879 196.757,156.000 196.644,156.000 196.416 C 156.000 195.857,155.543 195.888,155.246 196.467 M244.193 196.163 C 243.901 196.454,243.962 196.855,244.269 196.665 C 244.417 196.574,244.649 196.777,244.785 197.116 C 244.934 197.488,245.040 197.568,245.050 197.318 C 245.072 196.770,244.439 195.917,244.193 196.163 M158.408 204.947 C 158.385 205.747,159.104 205.867,163.936 205.867 C 169.298 205.867,169.302 205.868,167.117 207.339 C 166.360 207.849,165.840 208.267,165.961 208.267 C 166.400 208.267,169.318 206.058,169.179 205.832 C 169.100 205.704,166.768 205.600,163.998 205.600 C 159.481 205.600,158.932 205.552,158.688 205.133 C 158.539 204.877,158.413 204.793,158.408 204.947 M241.257 205.147 C 241.102 205.551,240.539 205.600,236.024 205.600 C 230.936 205.600,230.210 205.721,231.284 206.389 C 231.815 206.720,231.835 206.713,231.501 206.310 C 231.162 205.900,231.500 205.866,236.034 205.863 C 240.882 205.859,241.775 205.726,241.548 205.044 C 241.464 204.792,241.382 204.821,241.257 205.147 M147.341 205.533 C 142.217 205.613,141.460 205.748,142.322 206.425 C 142.758 206.767,142.768 206.759,142.434 206.333 C 142.088 205.892,142.348 205.867,147.152 205.867 C 150.253 205.867,152.299 205.763,152.400 205.600 C 152.491 205.453,152.528 205.361,152.482 205.394 C 152.437 205.427,150.123 205.490,147.341 205.533 M247.641 205.667 C 247.709 205.777,250.052 205.867,252.848 205.867 C 257.652 205.867,257.912 205.892,257.566 206.333 C 257.232 206.759,257.242 206.767,257.678 206.425 C 257.941 206.218,258.060 205.953,257.943 205.836 C 257.672 205.565,247.474 205.398,247.641 205.667 M199.575 208.369 C 199.488 208.596,199.478 208.936,199.554 209.125 C 199.640 209.339,199.699 209.293,199.712 209.000 C 199.737 208.461,200.151 208.377,200.373 208.867 C 200.456 209.050,200.496 208.970,200.462 208.689 C 200.383 208.040,199.784 207.824,199.575 208.369 M236.093 209.802 C 236.197 209.970,236.661 210.378,237.123 210.707 C 237.585 211.036,237.878 211.167,237.773 210.998 C 237.669 210.830,237.206 210.422,236.744 210.093 C 236.282 209.764,235.989 209.633,236.093 209.802 M148.933 211.092 C 149.227 211.371,149.617 211.773,149.800 211.984 C 149.996 212.211,150.133 212.245,150.133 212.069 C 150.133 211.904,149.743 211.503,149.267 211.177 C 148.630 210.741,148.542 210.719,148.933 211.092 M243.882 216.242 C 243.800 216.375,243.973 216.421,244.267 216.344 C 244.596 216.258,245.185 216.480,245.801 216.921 L 246.800 217.638 245.877 216.819 C 244.961 216.006,244.169 215.777,243.882 216.242 M158.229 217.806 C 158.440 218.147,160.000 219.302,160.000 219.116 C 160.000 219.051,159.559 218.661,159.021 218.250 C 158.483 217.839,158.126 217.639,158.229 217.806 M186.400 217.800 C 186.399 217.910,187.929 217.969,189.800 217.931 C 196.093 217.802,196.699 217.705,191.533 217.652 C 188.710 217.624,186.400 217.690,186.400 217.800 M204.667 217.778 C 207.860 217.968,213.806 217.983,213.693 217.800 C 213.624 217.690,211.266 217.622,208.451 217.649 C 205.636 217.676,203.933 217.734,204.667 217.778 M151.200 218.966 C 150.271 219.781,150.270 219.782,151.125 219.213 C 151.598 218.899,152.055 218.527,152.141 218.388 C 152.398 217.971,152.185 218.102,151.200 218.966 M186.956 218.486 C 187.017 218.534,187.487 218.844,188.000 219.175 L 188.933 219.777 188.133 219.090 C 187.693 218.712,187.223 218.402,187.089 218.401 C 186.954 218.401,186.894 218.439,186.956 218.486 M248.556 219.011 C 248.617 219.053,249.147 219.422,249.733 219.830 L 250.800 220.572 249.877 219.753 C 249.369 219.302,248.839 218.933,248.699 218.933 C 248.559 218.933,248.494 218.968,248.556 219.011 M161.333 220.084 C 161.333 220.149,161.774 220.539,162.312 220.950 C 162.851 221.361,163.207 221.561,163.104 221.394 C 162.893 221.053,161.333 219.898,161.333 220.084 M237.590 220.819 L 236.667 221.638 237.667 220.921 C 238.550 220.287,238.838 220.000,238.590 220.000 C 238.548 220.000,238.098 220.369,237.590 220.819 M208.870 221.150 C 208.395 221.471,208.005 221.829,208.003 221.947 C 208.002 222.064,208.420 221.840,208.933 221.449 C 209.447 221.057,209.867 220.691,209.867 220.635 C 209.867 220.485,209.812 220.513,208.870 221.150 M252.600 221.446 C 252.600 221.920,252.691 222.083,252.861 221.912 C 253.031 221.742,253.031 221.489,252.861 221.185 C 252.641 220.791,252.600 220.832,252.600 221.446 M190.933 221.150 C 190.933 221.216,191.374 221.606,191.912 222.017 C 192.451 222.427,192.807 222.627,192.704 222.461 C 192.493 222.119,190.933 220.965,190.933 221.150 M194.100 223.534 C 194.336 223.835,194.407 224.310,194.300 224.867 C 194.182 225.483,194.210 225.618,194.396 225.333 C 194.804 224.711,194.714 223.835,194.200 223.433 C 193.777 223.101,193.768 223.110,194.100 223.534 M205.653 223.520 C 205.477 223.696,205.347 224.086,205.364 224.387 C 205.395 224.922,205.398 224.923,205.526 224.400 C 205.598 224.107,205.779 223.717,205.928 223.533 C 206.273 223.108,206.075 223.098,205.653 223.520 M196.933 229.888 C 195.351 231.084,195.138 231.421,196.622 230.381 C 197.743 229.596,198.353 229.050,198.082 229.074 C 198.037 229.078,197.520 229.444,196.933 229.888 M202.786 229.844 C 202.986 230.168,205.333 231.821,205.333 231.638 C 205.333 231.571,204.721 231.077,203.972 230.539 C 203.224 230.001,202.690 229.688,202.786 229.844 M191.629 232.955 C 191.218 234.025,191.657 234.166,192.598 233.267 C 192.944 232.937,193.040 232.798,192.813 232.959 C 191.821 233.662,191.671 233.684,191.856 233.100 C 192.064 232.446,191.871 232.324,191.629 232.955 M207.333 233.177 C 208.453 234.138,209.019 233.905,208.245 232.800 C 208.030 232.492,208.007 232.548,208.147 233.040 L 208.328 233.680 207.431 233.085 L 206.533 232.489 207.333 233.177 " stroke="none" fill="#898446" fill-rule="evenodd"></path><path id="path3" d="M191.467 39.733 L 186.267 39.884 191.384 39.942 C 194.572 39.978,196.564 39.899,196.667 39.733 C 196.757 39.587,196.794 39.493,196.749 39.525 C 196.704 39.556,194.327 39.650,191.467 39.733 M206.214 39.932 C 207.651 39.980,209.931 39.980,211.281 39.932 C 212.630 39.884,211.453 39.844,208.667 39.844 C 205.880 39.845,204.776 39.884,206.214 39.932 M97.507 128.733 C 97.439 128.843,98.902 128.902,100.758 128.864 C 106.986 128.736,107.637 128.638,102.616 128.586 C 99.874 128.557,97.576 128.623,97.507 128.733 M116.267 128.716 C 120.487 128.908,125.007 128.917,124.893 128.733 C 124.824 128.623,122.466 128.557,119.651 128.586 C 116.836 128.614,115.313 128.673,116.267 128.716 M277.667 128.732 C 279.097 128.780,281.437 128.780,282.867 128.732 C 284.297 128.684,283.127 128.645,280.267 128.645 C 277.407 128.645,276.237 128.684,277.667 128.732 M295.014 128.732 C 296.451 128.780,298.731 128.780,300.081 128.732 C 301.430 128.684,300.253 128.644,297.467 128.644 C 294.680 128.645,293.576 128.684,295.014 128.732 M113.133 173.265 C 114.270 173.315,116.130 173.315,117.267 173.265 C 118.403 173.215,117.473 173.174,115.200 173.174 C 112.927 173.174,111.997 173.215,113.133 173.265 M128.600 173.265 C 129.737 173.315,131.597 173.315,132.733 173.265 C 133.870 173.215,132.940 173.174,130.667 173.174 C 128.393 173.174,127.463 173.215,128.600 173.265 M267.267 173.265 C 268.403 173.315,270.263 173.315,271.400 173.265 C 272.537 173.215,271.607 173.174,269.333 173.174 C 267.060 173.174,266.130 173.215,267.267 173.265 M282.733 173.265 C 283.870 173.315,285.730 173.315,286.867 173.265 C 288.003 173.215,287.073 173.174,284.800 173.174 C 282.527 173.174,281.597 173.215,282.733 173.265 " stroke="none" fill="#787c50" fill-rule="evenodd"></path><path id="path4" d="M199.467 30.076 C 199.467 30.191,199.707 30.286,200.000 30.286 C 200.293 30.286,200.533 30.191,200.533 30.076 C 200.533 29.961,200.293 29.867,200.000 29.867 C 199.707 29.867,199.467 29.961,199.467 30.076 M202.152 36.184 C 202.212 36.876,202.629 37.464,202.648 36.882 C 202.658 36.561,202.547 36.224,202.400 36.133 C 202.253 36.043,202.142 36.066,202.152 36.184 M191.333 39.458 C 188.400 39.536,186.030 39.690,186.067 39.800 C 186.103 39.910,186.133 40.098,186.133 40.218 C 186.133 40.337,187.063 41.066,188.200 41.837 C 189.337 42.609,189.907 42.927,189.467 42.545 C 189.027 42.163,188.157 41.524,187.534 41.125 C 185.541 39.849,185.868 39.733,191.451 39.733 C 194.531 39.733,196.566 39.629,196.667 39.467 C 196.757 39.320,196.794 39.226,196.749 39.258 C 196.704 39.290,194.267 39.380,191.333 39.458 M203.374 39.533 C 203.442 39.643,205.771 39.733,208.549 39.733 C 212.861 39.733,213.600 39.792,213.600 40.133 C 213.600 40.353,213.505 40.533,213.390 40.533 C 213.274 40.533,212.764 40.902,212.257 41.354 L 211.333 42.174 212.600 41.308 C 213.297 40.832,213.867 40.343,213.867 40.221 C 213.867 40.100,213.897 39.910,213.933 39.800 C 213.970 39.690,211.581 39.540,208.625 39.467 C 205.669 39.393,203.306 39.423,203.374 39.533 M156.004 42.556 C 156.006 42.837,156.130 43.247,156.279 43.467 C 156.477 43.759,156.501 43.651,156.371 43.067 C 156.151 42.086,155.999 41.873,156.004 42.556 M190.422 43.550 C 191.627 44.453,194.133 46.126,194.133 46.027 C 194.133 45.843,190.782 43.467,190.522 43.467 C 190.406 43.467,190.361 43.504,190.422 43.550 M208.337 44.083 C 207.862 44.404,207.472 44.763,207.470 44.880 C 207.468 44.998,207.917 44.763,208.467 44.358 C 209.017 43.953,209.517 43.587,209.578 43.544 C 209.639 43.502,209.579 43.474,209.444 43.483 C 209.310 43.492,208.812 43.762,208.337 44.083 M153.519 46.867 C 153.313 47.235,153.021 48.668,153.187 48.502 C 153.385 48.304,153.870 46.667,153.730 46.667 C 153.676 46.667,153.581 46.757,153.519 46.867 M246.790 48.533 C 247.773 51.988,247.296 51.742,252.899 51.676 L 257.733 51.618 252.831 51.476 L 247.929 51.333 247.429 49.753 C 246.942 48.215,246.411 47.201,246.790 48.533 M192.827 50.827 C 192.673 51.382,192.596 51.885,192.654 51.943 C 192.713 52.002,192.887 51.596,193.040 51.040 C 193.193 50.484,193.271 49.982,193.212 49.923 C 193.154 49.865,192.980 50.271,192.827 50.827 M152.207 50.867 C 152.056 51.442,151.947 51.456,147.160 51.534 L 142.267 51.613 147.101 51.673 C 152.078 51.735,152.798 51.594,152.472 50.616 C 152.410 50.431,152.291 50.545,152.207 50.867 M199.179 50.867 C 198.878 51.264,198.882 51.284,199.200 51.000 C 199.783 50.480,200.229 50.594,201.631 51.623 C 202.347 52.149,202.933 52.519,202.933 52.445 C 202.933 52.181,200.319 50.400,199.930 50.400 C 199.711 50.400,199.373 50.610,199.179 50.867 M158.907 51.261 C 159.213 51.665,159.888 51.731,164.361 51.794 C 169.952 51.874,169.686 51.766,167.867 53.215 C 167.202 53.745,167.881 53.421,168.867 52.738 C 170.492 51.612,169.986 51.467,164.453 51.467 C 160.713 51.467,159.205 51.376,158.933 51.133 C 158.615 50.850,158.612 50.870,158.907 51.261 M240.933 51.200 C 240.833 51.363,238.753 51.467,235.584 51.467 C 231.154 51.467,230.400 51.525,230.400 51.867 C 230.400 52.087,230.527 52.267,230.682 52.267 C 230.838 52.267,230.891 52.147,230.800 52.000 C 230.692 51.826,232.386 51.733,235.685 51.733 C 239.848 51.733,240.793 51.663,241.067 51.333 C 241.249 51.113,241.331 50.933,241.248 50.933 C 241.166 50.933,241.024 51.053,240.933 51.200 M196.733 52.547 C 195.743 53.278,194.933 53.942,194.933 54.021 C 194.933 54.178,196.707 52.938,198.000 51.876 C 199.356 50.762,198.628 51.148,196.733 52.547 M141.477 51.716 C 141.393 51.853,141.776 52.297,142.328 52.702 C 142.881 53.108,143.564 53.625,143.846 53.853 C 144.128 54.081,144.272 54.118,144.166 53.937 C 144.060 53.755,143.426 53.231,142.757 52.771 C 141.849 52.145,141.633 51.876,141.904 51.705 C 142.146 51.551,142.161 51.473,141.949 51.471 C 141.774 51.469,141.562 51.579,141.477 51.716 M258.105 51.710 C 258.391 51.891,258.254 52.089,257.508 52.573 C 256.976 52.918,256.538 53.300,256.537 53.422 C 256.535 53.545,257.014 53.264,257.601 52.799 C 258.600 52.008,258.785 51.461,258.051 51.471 C 257.845 51.473,257.863 51.557,258.105 51.710 M203.312 52.766 C 203.573 53.188,205.067 54.199,205.063 53.951 C 205.062 53.832,204.628 53.454,204.101 53.112 C 203.574 52.770,203.219 52.614,203.312 52.766 M146.000 55.312 C 146.440 55.690,147.340 56.369,148.000 56.821 C 148.922 57.452,149.014 57.483,148.400 56.955 C 147.960 56.577,147.060 55.898,146.400 55.446 C 145.478 54.815,145.386 54.784,146.000 55.312 M252.946 55.885 C 250.859 57.441,250.398 57.973,252.267 56.669 C 253.667 55.692,254.927 54.647,254.659 54.684 C 254.590 54.694,253.819 55.235,252.946 55.885 M163.228 56.486 C 161.204 57.967,160.791 58.504,161.303 58.993 C 161.598 59.274,161.629 59.230,161.481 58.739 C 161.331 58.244,161.511 57.999,162.562 57.273 C 163.892 56.352,165.292 55.209,165.067 55.228 C 164.993 55.234,164.166 55.800,163.228 56.486 M234.933 55.289 C 234.933 55.363,235.803 56.048,236.867 56.811 C 237.930 57.574,238.560 57.963,238.267 57.676 C 237.587 57.011,234.933 55.111,234.933 55.289 M192.400 55.733 C 192.309 55.880,192.002 56.000,191.718 56.000 C 191.433 56.000,191.200 56.120,191.200 56.267 C 191.200 56.660,191.506 56.592,192.400 56.000 C 192.840 55.709,193.057 55.469,192.882 55.468 C 192.708 55.467,192.491 55.587,192.400 55.733 M207.600 56.000 C 208.624 56.678,208.801 56.668,208.796 55.933 C 208.793 55.450,208.742 55.411,208.537 55.733 C 208.328 56.063,208.188 56.075,207.745 55.800 C 206.861 55.252,206.734 55.427,207.600 56.000 M162.152 61.784 C 162.212 62.476,162.629 63.064,162.648 62.482 C 162.658 62.161,162.547 61.824,162.400 61.733 C 162.253 61.643,162.142 61.666,162.152 61.784 M153.200 63.890 L 152.400 64.577 153.267 64.004 C 153.743 63.688,154.133 63.379,154.133 63.315 C 154.133 63.116,154.020 63.185,153.200 63.890 M158.724 64.667 C 159.264 65.033,159.799 65.333,159.914 65.333 C 160.030 65.333,159.682 65.033,159.143 64.667 C 158.603 64.300,158.067 64.000,157.952 64.000 C 157.837 64.000,158.184 64.300,158.724 64.667 M240.870 64.617 C 240.395 64.937,240.005 65.296,240.003 65.414 C 240.002 65.531,240.450 65.296,241.000 64.891 C 241.550 64.486,242.050 64.120,242.111 64.077 C 242.172 64.035,242.112 64.007,241.978 64.017 C 241.843 64.026,241.345 64.296,240.870 64.617 M161.870 66.835 C 161.874 67.105,163.599 68.267,163.996 68.267 C 164.145 68.267,164.250 67.937,164.230 67.533 C 164.199 66.905,164.178 66.886,164.078 67.400 C 163.933 68.153,163.894 68.150,162.782 67.302 C 162.279 66.918,161.868 66.708,161.870 66.835 M235.764 67.667 C 235.733 68.277,236.352 68.509,236.665 68.003 C 236.756 67.855,236.656 67.805,236.437 67.889 C 236.200 67.980,235.997 67.848,235.921 67.553 C 235.820 67.163,235.789 67.185,235.764 67.667 M251.467 67.434 C 251.467 67.689,252.752 68.403,252.916 68.240 C 252.980 68.176,252.680 67.921,252.249 67.674 C 251.819 67.427,251.467 67.319,251.467 67.434 M147.467 67.889 C 147.095 68.095,146.977 68.257,147.200 68.254 C 147.420 68.252,147.833 68.074,148.118 67.858 C 148.760 67.373,148.363 67.391,147.467 67.889 M122.733 74.310 C 122.550 74.384,122.409 74.644,122.421 74.889 C 122.434 75.166,122.493 75.208,122.577 75.000 C 122.801 74.443,123.467 74.626,123.467 75.244 C 123.467 75.562,123.541 75.748,123.632 75.657 C 123.844 75.445,123.519 74.127,123.262 74.154 C 123.154 74.166,122.917 74.236,122.733 74.310 M276.533 74.369 C 276.533 74.498,276.773 74.667,277.067 74.744 C 277.696 74.909,277.790 74.530,277.178 74.295 C 276.618 74.080,276.533 74.090,276.533 74.369 M276.298 75.245 C 276.281 75.490,276.198 75.910,276.113 76.178 C 275.968 76.641,275.976 76.642,276.264 76.192 C 276.432 75.930,276.515 75.510,276.449 75.258 C 276.340 74.845,276.325 74.844,276.298 75.245 M121.474 77.933 C 120.690 80.316,120.534 80.889,120.638 80.994 C 120.706 81.061,120.881 80.715,121.027 80.225 C 121.173 79.735,121.414 78.943,121.561 78.467 C 121.709 77.990,121.774 77.600,121.706 77.600 C 121.639 77.600,121.534 77.750,121.474 77.933 M279.366 81.200 C 279.461 81.640,279.644 82.180,279.773 82.400 C 279.923 82.656,279.945 82.512,279.834 82.000 C 279.739 81.560,279.556 81.020,279.427 80.800 C 279.277 80.544,279.255 80.688,279.366 81.200 M280.017 83.213 C 279.978 84.163,280.534 84.267,285.653 84.267 C 290.807 84.267,291.318 84.385,289.867 85.242 C 289.427 85.502,289.067 85.815,289.067 85.938 C 289.067 86.060,289.487 85.840,290.000 85.449 C 291.767 84.101,291.468 84.000,285.725 84.000 C 280.572 84.000,280.514 83.994,280.275 83.400 C 280.127 83.032,280.027 82.960,280.017 83.213 M119.641 83.588 C 119.506 83.940,118.723 84.000,114.275 84.000 C 108.329 84.000,108.141 84.086,110.467 85.753 C 111.237 86.305,111.703 86.558,111.503 86.315 C 111.304 86.072,110.734 85.622,110.237 85.315 C 108.708 84.370,109.117 84.267,114.367 84.267 C 119.237 84.267,120.648 84.026,119.938 83.315 C 119.861 83.239,119.728 83.362,119.641 83.588 M126.374 83.794 C 126.679 84.198,127.355 84.264,131.828 84.328 C 137.418 84.407,137.152 84.299,135.333 85.748 C 134.668 86.278,135.347 85.954,136.333 85.271 C 137.959 84.146,137.453 84.000,131.920 84.000 C 128.180 84.000,126.671 83.909,126.400 83.667 C 126.082 83.384,126.078 83.403,126.374 83.794 M273.478 83.716 C 273.363 83.901,271.502 84.000,268.118 84.000 C 263.307 84.000,262.343 84.137,263.241 84.692 C 263.432 84.810,263.477 84.765,263.359 84.575 C 263.218 84.346,264.462 84.266,268.184 84.263 C 272.714 84.259,274.294 84.072,273.819 83.597 C 273.728 83.506,273.574 83.559,273.478 83.716 M265.337 86.320 C 265.338 86.437,265.758 86.804,266.270 87.136 C 267.469 87.912,267.467 87.733,266.267 86.818 C 265.753 86.427,265.335 86.202,265.337 86.320 M113.200 87.657 C 113.880 88.322,116.533 90.223,116.533 90.044 C 116.533 89.970,115.663 89.285,114.600 88.522 C 113.537 87.759,112.907 87.370,113.200 87.657 M285.479 88.419 C 283.392 89.974,282.931 90.507,284.800 89.203 C 286.200 88.226,287.461 87.180,287.193 87.218 C 287.123 87.227,286.352 87.768,285.479 88.419 M267.467 87.823 C 267.467 87.897,268.337 88.581,269.400 89.344 C 270.463 90.107,271.093 90.497,270.800 90.209 C 270.120 89.544,267.467 87.644,267.467 87.823 M130.872 88.884 C 130.178 89.351,129.608 89.823,129.605 89.933 C 129.601 90.087,131.052 89.163,132.511 88.082 C 132.572 88.037,132.512 88.008,132.378 88.017 C 132.243 88.026,131.566 88.416,130.872 88.884 M128.795 90.540 C 128.533 90.855,128.527 91.079,128.769 91.540 C 129.079 92.130,129.080 92.130,128.951 91.481 C 128.880 91.122,128.952 90.672,129.110 90.481 C 129.269 90.290,129.339 90.133,129.265 90.133 C 129.192 90.133,128.980 90.316,128.795 90.540 M283.366 93.467 C 283.461 93.907,283.644 94.447,283.773 94.667 C 283.923 94.923,283.945 94.779,283.834 94.267 C 283.739 93.827,283.556 93.287,283.427 93.067 C 283.277 92.811,283.255 92.955,283.366 93.467 M122.533 94.933 C 122.441 95.082,122.646 95.200,122.998 95.200 C 123.344 95.200,123.743 95.290,123.886 95.400 C 124.028 95.510,123.919 95.390,123.643 95.133 C 123.072 94.603,122.771 94.549,122.533 94.933 M276.667 94.933 C 276.576 95.080,276.756 95.200,277.067 95.200 C 277.377 95.200,277.557 95.080,277.467 94.933 C 277.376 94.787,277.196 94.667,277.067 94.667 C 276.937 94.667,276.757 94.787,276.667 94.933 M120.923 96.207 C 120.025 97.012,120.254 96.940,121.436 96.048 C 121.859 95.728,122.099 95.470,121.969 95.474 C 121.840 95.478,121.369 95.808,120.923 96.207 M124.744 96.066 C 125.149 96.554,128.373 98.788,128.149 98.426 C 128.061 98.284,127.185 97.605,126.201 96.917 C 125.218 96.230,124.562 95.847,124.744 96.066 M273.933 96.825 C 273.163 97.408,272.533 97.949,272.533 98.026 C 272.533 98.209,274.870 96.531,275.245 96.079 C 275.693 95.539,275.441 95.682,273.933 96.825 M268.701 98.640 C 268.201 100.168,268.153 100.800,268.537 100.800 C 268.920 100.800,270.659 99.644,270.663 99.386 C 270.665 99.269,270.243 99.496,269.726 99.890 C 268.521 100.810,268.345 100.599,268.895 98.895 C 269.140 98.138,269.294 97.472,269.237 97.415 C 269.181 97.359,268.939 97.910,268.701 98.640 M281.889 98.486 C 281.950 98.534,282.420 98.844,282.933 99.175 L 283.867 99.777 283.067 99.090 C 282.627 98.712,282.157 98.402,282.022 98.401 C 281.888 98.401,281.828 98.439,281.889 98.486 M131.367 99.667 C 131.568 100.713,131.402 100.737,130.159 99.847 L 129.200 99.162 130.123 99.981 C 131.475 101.181,132.406 100.638,131.463 99.200 C 131.277 98.916,131.249 99.050,131.367 99.667 M284.375 100.200 C 284.654 100.530,285.074 100.791,285.308 100.779 C 285.669 100.761,285.673 100.736,285.333 100.611 C 285.113 100.530,284.693 100.269,284.400 100.032 C 283.871 99.604,283.871 99.605,284.375 100.200 M114.933 100.422 C 114.561 100.629,114.443 100.790,114.667 100.788 C 114.887 100.785,115.300 100.607,115.584 100.392 C 116.226 99.906,115.830 99.925,114.933 100.422 M110.723 118.983 C 110.546 119.161,110.408 119.493,110.418 119.720 C 110.430 119.993,110.535 119.929,110.725 119.533 C 111.123 118.710,111.370 118.781,111.569 119.776 C 111.661 120.239,111.792 120.563,111.860 120.496 C 112.056 120.300,111.597 118.843,111.309 118.747 C 111.165 118.699,110.901 118.805,110.723 118.983 M288.988 119.192 C 289.236 119.481,289.492 119.664,289.557 119.598 C 289.716 119.440,289.063 118.667,288.770 118.667 C 288.643 118.667,288.741 118.903,288.988 119.192 M108.827 124.693 C 108.673 125.249,108.596 125.751,108.654 125.810 C 108.713 125.869,108.887 125.462,109.040 124.907 C 109.193 124.351,109.271 123.849,109.212 123.790 C 109.154 123.731,108.980 124.138,108.827 124.693 M291.879 127.533 C 291.978 127.863,292.170 128.251,292.304 128.394 C 292.438 128.537,292.413 128.267,292.248 127.794 C 291.910 126.825,291.598 126.605,291.879 127.533 M97.067 128.778 C 97.067 128.912,97.577 129.403,98.200 129.868 L 99.333 130.715 98.400 129.874 C 97.887 129.411,97.497 128.921,97.533 128.783 C 97.570 128.646,97.480 128.533,97.333 128.533 C 97.187 128.533,97.067 128.643,97.067 128.778 M302.489 128.712 C 302.588 128.810,302.458 129.140,302.201 129.445 C 301.734 130.000,301.734 130.000,302.333 129.492 C 302.989 128.937,303.110 128.533,302.622 128.533 C 302.451 128.533,302.391 128.614,302.489 128.712 M122.019 131.086 C 121.737 131.292,121.557 131.513,121.620 131.575 C 121.683 131.638,121.965 131.521,122.248 131.314 C 122.530 131.108,122.710 130.887,122.647 130.825 C 122.584 130.762,122.301 130.879,122.019 131.086 M277.434 130.880 C 277.540 131.052,278.180 131.573,278.855 132.038 C 280.453 133.137,280.160 132.663,278.509 131.478 C 277.811 130.976,277.327 130.707,277.434 130.880 M298.012 132.419 C 295.926 133.974,295.464 134.507,297.333 133.203 C 298.733 132.226,299.994 131.180,299.726 131.218 C 299.657 131.227,298.886 131.768,298.012 132.419 M101.089 132.083 C 102.460 133.110,104.000 134.148,104.000 134.045 C 104.000 133.859,101.442 132.000,101.186 132.000 C 101.072 132.000,101.028 132.037,101.089 132.083 M118.623 133.597 C 116.568 135.114,116.475 135.227,116.843 135.746 C 117.065 136.060,117.088 136.043,116.963 135.658 C 116.850 135.307,117.136 134.957,118.050 134.324 C 119.395 133.394,120.747 132.283,120.533 132.284 C 120.460 132.285,119.600 132.875,118.623 133.597 M282.186 134.392 C 282.859 134.964,283.122 135.373,283.013 135.681 C 282.887 136.042,282.925 136.069,283.203 135.811 C 283.625 135.420,283.291 134.935,282.024 134.098 C 281.360 133.660,281.392 133.717,282.186 134.392 M104.827 136.960 C 104.673 137.516,104.596 138.018,104.654 138.077 C 104.713 138.135,104.887 137.729,105.040 137.173 C 105.193 136.618,105.271 136.115,105.212 136.057 C 105.154 135.998,104.980 136.404,104.827 136.960 M295.366 138.267 C 295.461 138.707,295.644 139.247,295.773 139.467 C 295.923 139.723,295.945 139.579,295.834 139.067 C 295.739 138.627,295.556 138.087,295.427 137.867 C 295.277 137.611,295.255 137.755,295.366 138.267 M286.800 140.586 C 285.189 141.765,285.023 142.063,286.533 141.063 C 288.157 139.988,288.114 140.022,287.978 139.902 C 287.917 139.849,287.387 140.156,286.800 140.586 M289.889 140.086 C 289.950 140.134,290.420 140.444,290.933 140.775 L 291.867 141.377 291.067 140.690 C 290.627 140.312,290.157 140.002,290.022 140.001 C 289.888 140.001,289.828 140.039,289.889 140.086 M112.810 140.467 C 112.816 140.577,113.483 141.116,114.292 141.666 C 115.101 142.215,115.696 142.556,115.615 142.424 C 115.381 142.045,112.799 140.244,112.810 140.467 M293.870 142.849 C 293.872 142.968,294.305 143.346,294.832 143.688 C 295.360 144.030,295.715 144.186,295.621 144.034 C 295.360 143.612,293.866 142.601,293.870 142.849 M117.590 143.981 C 118.098 144.431,118.628 144.800,118.768 144.800 C 118.908 144.800,118.972 144.765,118.911 144.723 C 118.850 144.680,118.320 144.311,117.733 143.903 L 116.667 143.162 117.590 143.981 M119.468 144.004 C 119.658 144.668,119.639 144.961,119.397 145.116 C 119.167 145.261,119.215 145.326,119.555 145.329 C 120.066 145.334,119.987 143.930,119.443 143.351 C 119.315 143.215,119.326 143.508,119.468 144.004 M282.133 144.033 C 281.204 144.847,281.204 144.848,282.059 144.280 C 282.531 143.966,282.988 143.594,283.074 143.454 C 283.332 143.038,283.118 143.169,282.133 144.033 M280.168 144.333 C 279.927 145.233,279.958 145.335,280.467 145.312 C 280.745 145.300,280.799 145.237,280.600 145.157 C 280.395 145.074,280.329 144.777,280.429 144.378 C 280.518 144.023,280.532 143.733,280.460 143.733 C 280.388 143.733,280.257 144.003,280.168 144.333 M103.588 144.552 C 103.491 144.709,103.154 144.941,102.839 145.068 C 102.449 145.226,102.402 145.305,102.692 145.316 C 102.926 145.326,103.335 145.093,103.600 144.800 C 103.865 144.507,104.011 144.267,103.924 144.267 C 103.836 144.267,103.685 144.395,103.588 144.552 M296.496 144.784 C 296.842 145.086,297.252 145.333,297.407 145.333 C 297.735 145.333,297.720 145.320,296.667 144.703 L 295.867 144.235 296.496 144.784 M122.531 163.470 C 122.430 163.634,122.419 163.841,122.507 163.929 C 122.595 164.017,122.667 163.949,122.667 163.778 C 122.667 163.210,123.427 163.456,123.558 164.067 C 123.673 164.599,123.682 164.591,123.644 164.003 C 123.598 163.304,122.854 162.947,122.531 163.470 M276.298 164.045 C 276.281 164.290,276.198 164.710,276.113 164.978 C 275.968 165.441,275.976 165.442,276.264 164.992 C 276.432 164.730,276.515 164.310,276.449 164.058 C 276.340 163.645,276.325 163.644,276.298 164.045 M123.899 165.467 C 123.994 165.907,124.177 166.447,124.306 166.667 C 124.456 166.923,124.478 166.779,124.368 166.267 C 124.273 165.827,124.089 165.287,123.960 165.067 C 123.810 164.811,123.788 164.955,123.899 165.467 M280.008 172.000 C 280.008 172.460,280.454 173.246,280.607 173.059 C 280.664 172.990,280.552 172.633,280.359 172.267 C 280.166 171.899,280.008 171.780,280.008 172.000 M109.067 173.241 C 109.067 173.541,109.761 174.203,110.400 174.513 C 110.620 174.619,110.560 174.515,110.267 174.281 C 109.973 174.047,109.583 173.655,109.400 173.410 C 109.217 173.165,109.067 173.089,109.067 173.241 M289.590 174.419 L 288.667 175.238 289.667 174.521 C 290.550 173.887,290.838 173.600,290.590 173.600 C 290.548 173.600,290.098 173.969,289.590 174.419 M134.123 175.488 L 133.200 176.309 134.059 175.742 C 134.820 175.239,135.395 174.667,135.139 174.667 C 135.088 174.667,134.631 175.036,134.123 175.488 M265.259 175.220 C 265.585 175.559,265.919 175.770,266.001 175.688 C 266.083 175.606,265.816 175.328,265.408 175.071 L 264.667 174.602 265.259 175.220 M286.000 176.955 C 283.892 178.545,283.478 179.031,285.333 177.736 C 286.767 176.736,287.977 175.726,287.726 175.740 C 287.657 175.744,286.880 176.291,286.000 176.955 M113.077 176.458 C 113.087 176.671,116.000 178.782,116.000 178.577 C 116.000 178.515,115.340 177.966,114.533 177.357 C 113.727 176.748,113.071 176.343,113.077 176.458 M130.733 177.908 C 129.963 178.482,129.333 179.008,129.333 179.076 C 129.333 179.169,131.051 178.032,132.244 177.149 C 132.306 177.104,132.306 177.021,132.244 176.965 C 132.183 176.909,131.503 177.333,130.733 177.908 M268.049 177.217 C 268.296 177.501,268.896 177.960,269.382 178.238 C 270.426 178.833,270.151 178.538,268.667 177.469 C 268.046 177.023,267.788 176.917,268.049 177.217 M128.636 179.584 C 128.555 179.795,128.602 180.171,128.741 180.419 C 128.940 180.774,128.987 180.692,128.963 180.036 C 128.930 179.112,128.856 179.010,128.636 179.584 M116.293 182.827 C 116.140 183.382,116.062 183.885,116.121 183.943 C 116.180 184.002,116.353 183.596,116.507 183.040 C 116.660 182.484,116.738 181.982,116.679 181.923 C 116.620 181.865,116.447 182.271,116.293 182.827 M125.200 185.257 C 125.880 185.922,128.533 187.823,128.533 187.644 C 128.533 187.570,127.663 186.885,126.600 186.122 C 125.537 185.359,124.907 184.970,125.200 185.257 M269.519 185.000 C 269.313 185.368,269.021 186.801,269.187 186.636 C 269.385 186.438,269.870 184.800,269.730 184.800 C 269.676 184.800,269.581 184.890,269.519 185.000 M273.667 185.908 C 272.897 186.482,272.267 187.008,272.267 187.076 C 272.267 187.169,273.985 186.032,275.178 185.149 C 275.239 185.104,275.239 185.021,275.178 184.965 C 275.117 184.909,274.437 185.333,273.667 185.908 M118.867 186.543 C 118.170 187.054,117.600 187.538,117.600 187.619 C 117.600 187.791,119.983 186.110,120.171 185.806 C 120.383 185.463,120.188 185.573,118.867 186.543 M281.427 186.868 C 281.531 187.037,281.994 187.444,282.456 187.773 C 282.918 188.102,283.211 188.234,283.107 188.065 C 283.003 187.896,282.539 187.489,282.077 187.160 C 281.615 186.831,281.322 186.700,281.427 186.868 M131.379 188.700 C 131.509 189.553,131.474 189.675,131.181 189.400 C 130.986 189.217,130.708 189.067,130.562 189.067 C 130.417 189.067,130.526 189.233,130.805 189.437 C 131.591 190.012,131.993 189.707,131.717 188.745 C 131.372 187.541,131.200 187.519,131.379 188.700 M270.123 188.554 L 269.200 189.375 270.059 188.809 C 270.820 188.306,271.395 187.733,271.139 187.733 C 271.088 187.733,270.631 188.103,270.123 188.554 M268.224 188.983 C 268.045 189.614,268.644 190.069,268.966 189.547 C 269.073 189.375,269.028 189.326,268.860 189.429 C 268.692 189.533,268.533 189.356,268.480 189.004 L 268.389 188.400 268.224 188.983 M115.208 189.191 C 115.024 189.413,114.766 189.528,114.636 189.448 C 114.506 189.368,114.400 189.429,114.400 189.584 C 114.400 189.740,114.490 189.863,114.600 189.858 C 114.943 189.844,115.835 189.080,115.685 188.930 C 115.607 188.851,115.392 188.969,115.208 189.191 M284.730 189.333 C 285.228 189.872,285.383 189.919,285.664 189.617 C 285.935 189.325,285.933 189.293,285.650 189.454 C 285.449 189.568,285.051 189.446,284.717 189.169 C 284.146 188.697,284.147 188.701,284.730 189.333 M155.253 195.787 C 154.744 196.296,154.883 196.569,155.467 196.205 C 156.005 195.868,156.180 195.467,155.787 195.467 C 155.669 195.467,155.429 195.611,155.253 195.787 M244.000 195.669 C 244.000 195.781,244.240 196.022,244.533 196.205 C 245.117 196.569,245.256 196.296,244.747 195.787 C 244.385 195.425,244.000 195.365,244.000 195.669 M156.542 198.400 C 156.542 198.620,156.658 198.980,156.800 199.200 C 157.030 199.556,157.058 199.556,157.058 199.200 C 157.058 198.980,156.942 198.620,156.800 198.400 C 156.570 198.044,156.542 198.044,156.542 198.400 M152.533 203.802 C 152.533 203.839,152.415 204.281,152.271 204.784 C 152.127 205.286,152.112 205.585,152.237 205.449 C 152.510 205.151,152.869 203.733,152.672 203.733 C 152.596 203.733,152.533 203.764,152.533 203.802 M247.475 204.533 C 247.475 204.993,247.920 205.780,248.074 205.592 C 248.131 205.523,248.019 205.167,247.826 204.800 C 247.632 204.433,247.475 204.313,247.475 204.533 M141.492 205.797 C 141.346 205.943,141.798 206.325,143.600 207.576 L 144.667 208.317 143.737 207.559 C 143.225 207.141,142.543 206.543,142.220 206.228 C 141.897 205.914,141.569 205.720,141.492 205.797 M166.667 208.033 C 165.737 208.847,165.737 208.848,166.592 208.280 C 167.064 207.966,167.521 207.594,167.608 207.454 C 167.865 207.038,167.652 207.169,166.667 208.033 M232.667 207.650 C 232.960 207.941,233.860 208.630,234.667 209.181 C 235.473 209.732,235.773 209.872,235.333 209.492 C 234.208 208.519,232.022 207.009,232.667 207.650 M199.644 207.644 C 199.296 207.993,199.475 208.214,199.997 208.078 C 200.289 208.002,200.462 207.833,200.381 207.703 C 200.208 207.423,199.892 207.397,199.644 207.644 M253.479 209.485 C 251.392 211.041,250.931 211.573,252.800 210.269 C 254.200 209.292,255.461 208.247,255.193 208.284 C 255.123 208.294,254.352 208.835,253.479 209.485 M163.667 210.147 C 162.677 210.878,161.867 211.535,161.867 211.608 C 161.867 211.680,162.707 211.128,163.733 210.382 C 165.322 209.226,165.849 208.765,165.533 208.809 C 165.497 208.814,164.657 209.416,163.667 210.147 M147.097 210.181 C 148.426 211.185,148.702 211.291,147.743 210.430 C 147.236 209.973,146.709 209.600,146.574 209.600 C 146.439 209.600,146.674 209.861,147.097 210.181 M161.169 212.117 C 161.088 212.328,161.147 212.718,161.300 212.984 C 161.530 213.384,161.568 213.319,161.522 212.601 C 161.461 211.643,161.389 211.545,161.169 212.117 M250.152 212.984 C 250.212 213.676,250.629 214.264,250.648 213.682 C 250.658 213.361,250.547 213.024,250.400 212.933 C 250.253 212.843,250.142 212.866,250.152 212.984 M148.827 215.360 C 148.673 215.916,148.596 216.418,148.654 216.477 C 148.713 216.535,148.887 216.129,149.040 215.573 C 149.193 215.018,149.271 214.515,149.212 214.457 C 149.154 214.398,148.980 214.804,148.827 215.360 M237.474 216.067 C 236.690 218.450,236.534 219.023,236.638 219.127 C 236.706 219.195,236.881 218.849,237.027 218.358 C 237.173 217.868,237.414 217.077,237.561 216.600 C 237.709 216.123,237.774 215.733,237.706 215.733 C 237.639 215.733,237.534 215.883,237.474 216.067 M154.133 217.090 L 153.200 217.899 154.197 217.283 C 154.745 216.944,155.195 216.577,155.197 216.467 C 155.201 216.176,155.159 216.201,154.133 217.090 M245.590 217.047 C 246.098 217.498,246.628 217.867,246.768 217.867 C 246.908 217.867,246.972 217.832,246.911 217.789 C 246.850 217.747,246.320 217.378,245.733 216.970 L 244.667 216.228 245.590 217.047 M241.494 218.152 C 240.922 218.582,240.566 218.933,240.704 218.933 C 240.841 218.933,241.369 218.578,241.877 218.144 C 243.058 217.134,242.841 217.139,241.494 218.152 M213.822 217.805 C 213.773 217.917,213.103 218.467,212.333 219.027 C 211.563 219.587,210.933 220.099,210.933 220.165 C 210.933 220.231,211.653 219.777,212.533 219.157 C 213.413 218.536,214.133 217.932,214.133 217.814 C 214.133 217.542,213.939 217.536,213.822 217.805 M251.899 218.267 C 251.994 218.707,252.177 219.247,252.306 219.467 C 252.456 219.723,252.478 219.579,252.368 219.067 C 252.273 218.627,252.089 218.087,251.960 217.867 C 251.810 217.611,251.788 217.755,251.899 218.267 M158.400 218.217 C 158.400 218.283,158.841 218.673,159.379 219.083 C 159.917 219.494,160.274 219.694,160.171 219.527 C 159.960 219.186,158.400 218.032,158.400 218.217 M163.349 219.334 C 163.454 219.774,163.644 220.335,163.770 220.582 C 164.488 221.985,164.040 222.208,162.612 221.160 C 161.849 220.600,161.315 220.288,161.426 220.467 C 161.807 221.084,163.902 222.359,164.216 222.165 C 164.448 222.021,164.385 221.557,163.974 220.385 C 163.353 218.616,163.056 218.117,163.349 219.334 M237.494 221.085 C 236.922 221.515,236.534 221.867,236.631 221.867 C 236.933 221.867,238.660 220.678,238.663 220.467 C 238.668 220.199,238.681 220.192,237.494 221.085 M147.983 221.622 L 147.067 222.432 148.000 221.817 C 148.513 221.479,148.983 221.171,149.044 221.134 C 149.106 221.097,149.098 221.009,149.028 220.939 C 148.957 220.869,148.487 221.176,147.983 221.622 M208.333 221.891 C 207.563 222.475,206.933 223.008,206.933 223.076 C 206.933 223.244,209.561 221.346,209.749 221.042 C 209.981 220.666,209.833 220.755,208.333 221.891 M250.933 220.884 C 250.933 220.949,251.374 221.339,251.912 221.750 C 252.451 222.161,252.807 222.361,252.704 222.194 C 252.493 221.853,250.933 220.698,250.933 220.884 M190.956 221.677 C 191.017 221.720,191.517 222.086,192.067 222.491 C 192.617 222.896,193.065 223.131,193.063 223.014 C 193.060 222.791,191.343 221.600,191.026 221.600 C 190.926 221.600,190.894 221.635,190.956 221.677 M192.533 229.402 C 192.533 229.439,192.415 229.881,192.271 230.384 C 192.127 230.886,192.112 231.185,192.237 231.049 C 192.510 230.751,192.869 229.333,192.672 229.333 C 192.596 229.333,192.533 229.364,192.533 229.402 M196.412 230.552 C 194.326 232.107,193.864 232.640,195.733 231.336 C 197.133 230.359,198.394 229.313,198.126 229.351 C 198.057 229.361,197.286 229.901,196.412 230.552 M202.267 229.798 C 203.053 230.556,205.741 232.444,205.516 232.080 C 205.410 231.908,204.515 231.208,203.528 230.526 C 202.541 229.843,201.973 229.515,202.267 229.798 M192.943 233.081 C 192.362 233.521,191.732 233.821,191.543 233.749 C 191.355 233.676,191.200 233.733,191.200 233.875 C 191.200 234.351,191.911 234.140,193.027 233.332 C 193.635 232.891,194.133 232.471,194.133 232.398 C 194.133 232.193,194.067 232.231,192.943 233.081 M208.554 233.551 C 208.541 233.780,208.325 233.850,207.933 233.750 L 207.333 233.597 207.936 233.907 C 208.598 234.248,208.933 234.094,208.715 233.550 C 208.600 233.262,208.572 233.262,208.554 233.551 " stroke="none" fill="#576765" fill-rule="evenodd"></path></g></svg>