<svg id="EICAA_logo" data-name="EICAA logo" xmlns="http://www.w3.org/2000/svg" xmlns:xlink="http://www.w3.org/1999/xlink" width="205.337" height="69.624" viewBox="0 0 205.337 69.624">
  <defs>
    <linearGradient id="linear-gradient" y1="0.5" x2="1" y2="0.5" gradientUnits="objectBoundingBox">
      <stop offset="0" stop-color="#e1d622"/>
      <stop offset="1" stop-color="#0090df"/>
    </linearGradient>
  </defs>
  <path id="Union_25" data-name="Union 25" d="M167.5,69.624l28.572-22.929-4.246-10.42H172.084l-4.116,10.42L139.4,69.624H125.909l28.572-22.929-4.245-10.42H130.492l-4.117,10.42L97.8,69.624H88.734l28.572-22.929,19.81-45.537h7.011L161.333,41.1,178.709,1.158h7.011l19.617,45.537L176.765,69.624Zm7.347-40.3H189L181.989,10.8Zm-41.594,0h14.15L140.4,10.8Zm-66.051,40.3L95.4,47a24,24,0,0,1-2.668-.848A21.7,21.7,0,0,1,80.159,33.831a25.274,25.274,0,0,1-1.8-9.712,26.374,26.374,0,0,1,1.8-9.937A22.3,22.3,0,0,1,85.144,6.56,21.849,21.849,0,0,1,92.734,1.7a26.617,26.617,0,0,1,9.68-1.7A22.2,22.2,0,0,1,111,1.64,20.035,20.035,0,0,1,118.365,7.2l-6.3,4.631a13.59,13.59,0,0,0-4.856-3.6,13.131,13.131,0,0,0-4.728-.9,15.78,15.78,0,0,0-6.4,1.254,14.644,14.644,0,0,0-4.92,3.473,15.76,15.76,0,0,0-3.183,5.178A17.743,17.743,0,0,0,86.849,23.6a19.56,19.56,0,0,0,1.126,6.753A15.833,15.833,0,0,0,91.158,35.7a14.793,14.793,0,0,0,4.92,3.538,15.428,15.428,0,0,0,6.4,1.286,11.751,11.751,0,0,0,5.37-1.319,14.642,14.642,0,0,0,4.856-4.213l6.69,4.759a19.8,19.8,0,0,1-3.183,3.454l.04-.007L83.318,69.624Zm-29.956,0L65.821,46.694V1.158h8.1V46.694L45.353,69.623ZM0,69.623,28.572,46.694V1.158H58.737V8.489H36.676V19.681h20.9v7.332h-20.9v12.35H59.895v7.332L31.323,69.623Z" transform="translate(0 0)" fill="url(#linear-gradient)"/>
</svg>
