<svg id="eu_logo" data-name="eu logo" xmlns="http://www.w3.org/2000/svg" xmlns:xlink="http://www.w3.org/1999/xlink" width="153.354" height="32.625" viewBox="0 0 153.354 32.625">
  <defs>
    <clipPath id="clip-path">
      <rect id="Rectangle_1855" data-name="Rectangle 1855" width="153.354" height="32.622" fill="none"/>
    </clipPath>
  </defs>
  <rect id="Rectangle_1854" data-name="Rectangle 1854" width="48.42" height="32.622" transform="translate(104.93 0.004)" fill="#003682"/>
  <path id="Path_4053" data-name="Path 4053" d="M393.348,159.411l-.243.671-.747.011-.5.011.41.3.587.424-.214.663-.145.453.4-.261.609-.4.62.4.4.261-.141-.453-.214-.663.584-.424.413-.3-.5-.011-.747-.011-.247-.671-.159-.424Z" transform="translate(-253.875 -144.314)" fill="#ffe400"/>
  <path id="Path_4054" data-name="Path 4054" d="M395.163,160.1l-.508-.011-.747-.014-.243-.667-.159-.424-.156.424-.239.667-.751.014-.5.011.41.3.591.424-.214.667-.149.453.4-.265.609-.4.62.4.4.265-.145-.453-.214-.667.587-.424Z" transform="translate(-253.877 -144.314)" fill="none" stroke="#ffe400" stroke-width="0.059"/>
  <path id="Path_4055" data-name="Path 4055" d="M392.968,157.966l-.243.667-.75.011-.5.011.41.3.587.42-.21.667-.145.453.4-.257.613-.413.62.413.392.257-.138-.453-.217-.667.587-.42.417-.3-.508-.011-.75-.011-.243-.667-.16-.431Z" transform="translate(-254.892 -148.125)" fill="#ffe400"/>
  <path id="Path_4056" data-name="Path 4056" d="M392.467,159.373l-.21.671-.145.449.4-.257.613-.413.62.413.391.257-.141-.449-.214-.671.587-.424.413-.294-.5-.011-.75-.011-.243-.671-.16-.428-.156.428-.239.671-.747.011-.508.011.41.294Z" transform="translate(-254.891 -148.124)" fill="none" stroke="#ffe400" stroke-width="0.059"/>
  <path id="Path_4057" data-name="Path 4057" d="M391.917,156.908l-.246.671-.743.011-.508.011.413.3.587.424-.21.663-.149.453.4-.257.613-.406.616.406.4.257-.145-.453-.21-.663.587-.424.41-.3-.5-.011-.75-.011-.247-.671-.156-.428Z" transform="translate(-257.649 -150.894)" fill="#ffe400"/>
  <path id="Path_4058" data-name="Path 4058" d="M392.476,157.575l-.247-.667-.156-.428-.156.428-.243.667-.747.015-.508.011.413.294.591.424-.214.667-.148.453.4-.257.613-.41.616.41.4.257-.145-.453-.21-.667.587-.424.409-.294-.5-.011Z" transform="translate(-257.649 -150.893)" fill="none" stroke="#ffe400" stroke-width="0.059"/>
  <path id="Path_4059" data-name="Path 4059" d="M390.452,156.519l-.247.667-.747.014-.507.011.417.3.584.424-.21.667-.149.45.4-.257.613-.41.62.41.391.257-.141-.45-.214-.667.587-.424.413-.3-.5-.011-.747-.014-.25-.667-.156-.428Z" transform="translate(-261.505 -151.914)" fill="#ffe400"/>
  <path id="Path_4060" data-name="Path 4060" d="M391.01,157.183l-.247-.667-.156-.424-.156.424-.243.667-.747.018-.511.007.417.294.587.428-.21.667-.149.453.4-.261.616-.41.616.41.4.261-.145-.453-.21-.667.587-.428.41-.294-.5-.007Z" transform="translate(-261.506 -151.912)" fill="none" stroke="#ffe400" stroke-width="0.059"/>
  <path id="Path_4061" data-name="Path 4061" d="M388.994,156.908l-.243.671-.747.011-.508.007.41.3.591.424-.21.667-.149.453.4-.261.62-.406.609.406.4.261-.145-.453-.214-.667.587-.424.417-.3-.508-.007-.75-.011-.243-.671-.152-.428Z" transform="translate(-265.322 -150.894)" fill="#ffe400"/>
  <path id="Path_4062" data-name="Path 4062" d="M389.549,157.575l-.247-.667-.152-.428-.156.428-.243.667-.747.015-.507.007.41.3.591.424-.214.667-.145.453.4-.265.616-.4.613.4.4.265-.141-.453-.214-.667.587-.424.413-.3-.507-.007Z" transform="translate(-265.322 -150.893)" fill="none" stroke="#ffe400" stroke-width="0.059"/>
  <path id="Path_4063" data-name="Path 4063" d="M387.932,157.953l-.243.667-.747.011-.5.011.41.3.587.42-.214.663-.141.453.391-.257.616-.406.616.406.4.257-.145-.453-.214-.663.591-.42.413-.3-.508-.011-.75-.011-.243-.667-.156-.428Z" transform="translate(-268.101 -148.151)" fill="#ffe400"/>
  <path id="Path_4064" data-name="Path 4064" d="M388.487,158.617l-.239-.663-.16-.428-.156.428-.243.663-.747.015-.5.007.41.3.587.424-.214.663-.141.453.391-.261.616-.406.616.406.4.261-.145-.453-.214-.663.591-.424.41-.3-.5-.007Z" transform="translate(-268.101 -148.149)" fill="none" stroke="#ffe400" stroke-width="0.059"/>
  <path id="Path_4065" data-name="Path 4065" d="M387.536,159.411l-.247.667-.747.011-.5.011.406.294.591.424-.21.667-.145.457.392-.265.616-.406.612.406.4.265-.145-.457-.214-.667.587-.424.417-.294-.508-.011-.747-.011-.246-.667-.156-.428Z" transform="translate(-269.14 -144.321)" fill="#ffe400"/>
  <path id="Path_4066" data-name="Path 4066" d="M388.308,161.677l.4.261-.145-.453-.21-.667.587-.424.41-.294-.5-.011-.747-.015-.246-.663-.156-.428-.152.428-.247.663-.747.015-.5.011.406.294.591.424-.21.667-.145.453.391-.261.616-.406Z" transform="translate(-269.141 -144.321)" fill="none" stroke="#ffe400" stroke-width="0.059"/>
  <path id="Path_4067" data-name="Path 4067" d="M387.929,160.852l-.243.663-.75.015-.5.014.413.29.584.428-.207.663-.149.457.4-.265.613-.4.616.4.4.265-.141-.457-.21-.663.587-.428.41-.29-.508-.014-.743-.015-.246-.663-.152-.428Z" transform="translate(-268.117 -140.541)" fill="#ffe400"/>
  <path id="Path_4068" data-name="Path 4068" d="M388.485,161.515l-.243-.663-.156-.428-.16.428-.243.663-.747.018-.5.011.41.29.587.428-.21.667-.149.449.4-.257.616-.406.616.406.392.261-.141-.453-.21-.667.587-.428.41-.29-.5-.011Z" transform="translate(-268.115 -140.542)" fill="none" stroke="#ffe400" stroke-width="0.059"/>
  <path id="Path_4069" data-name="Path 4069" d="M388.982,161.9l-.247.671-.747.011-.5.011.413.3.584.424-.21.663-.145.453.391-.257.62-.406.613.406.4.257-.145-.453-.214-.663.587-.424.413-.3-.508-.011-.747-.011-.243-.671-.156-.428Z" transform="translate(-265.355 -137.779)" fill="#ffe400"/>
  <path id="Path_4070" data-name="Path 4070" d="M389.536,162.571l-.243-.671-.156-.424-.16.424-.239.671-.75.011-.5.011.413.3.584.424-.21.667-.145.453.392-.261.62-.406.613.406.4.261-.149-.453-.21-.667.587-.424.413-.3-.507-.011Z" transform="translate(-265.355 -137.777)" fill="none" stroke="#ffe400" stroke-width="0.059"/>
  <path id="Path_4071" data-name="Path 4071" d="M390.448,162.294l-.246.663-.747.015-.5.011.41.3.591.42-.214.663-.145.457.4-.261.613-.41.62.41.391.261-.138-.457-.217-.663.587-.42.413-.3-.5-.011-.75-.015-.243-.663-.159-.428Z" transform="translate(-261.505 -136.754)" fill="#ffe400"/>
  <path id="Path_4072" data-name="Path 4072" d="M391,162.958l-.243-.663-.159-.428-.152.428-.243.663-.747.015-.507.011.41.3.591.424-.214.667-.145.453.395-.261.613-.41.62.41.391.261-.141-.453-.214-.667.587-.424.413-.3-.5-.011Z" transform="translate(-261.504 -136.754)" fill="none" stroke="#ffe400" stroke-width="0.059"/>
  <path id="Path_4073" data-name="Path 4073" d="M391.9,161.912l-.247.667-.747.014-.5.011.413.294.584.428-.21.663-.145.453.4-.261.613-.406.616.406.391.261-.134-.453-.214-.663.58-.428.417-.294-.508-.011-.747-.014-.243-.667-.16-.428Z" transform="translate(-257.682 -137.758)" fill="#ffe400"/>
  <path id="Path_4074" data-name="Path 4074" d="M392.459,162.576l-.247-.663-.156-.428-.156.428-.243.663-.743.018-.507.007.413.294.587.428-.214.663-.145.453.4-.257.613-.41.616.41.392.257-.138-.453-.21-.663.584-.428.41-.294-.5-.007Z" transform="translate(-257.682 -137.756)" fill="none" stroke="#ffe400" stroke-width="0.059"/>
  <path id="Path_4075" data-name="Path 4075" d="M392.962,160.861l-.246.667-.747.011-.5.011.413.3.584.42-.21.667-.141.453.391-.261.616-.406.616.406.391.261-.145-.453-.21-.667.587-.42.417-.3-.508-.011-.747-.011-.247-.667-.156-.424Z" transform="translate(-254.906 -140.508)" fill="#ffe400"/>
  <path id="Path_4076" data-name="Path 4076" d="M393.517,161.528l-.247-.667-.156-.424-.156.424-.243.667-.747.015-.5.007.413.3.584.424-.21.671-.145.45.392-.261.616-.406.616.406.392.261-.141-.45-.21-.671.587-.424.413-.3-.508-.007Z" transform="translate(-254.905 -140.508)" fill="none" stroke="#ffe400" stroke-width="0.059"/>
  <g id="Group_2697" data-name="Group 2697" transform="translate(0 0)">
    <g id="Group_2696" data-name="Group 2696" clip-path="url(#clip-path)">
      <path id="Path_4077" data-name="Path 4077" d="M355.65,162.291l-1.856-6.993h.95l1.062,4.582c.116.482.214.957.3,1.432.178-.747.283-1.178.315-1.291l1.33-4.723h1.116l1,3.538a18.511,18.511,0,0,1,.544,2.476q.136-.663.348-1.522l1.1-4.491h.932l-1.921,6.993h-.892l-1.472-5.329c-.123-.442-.2-.718-.221-.819-.073.323-.141.594-.2.819l-1.486,5.329Z" transform="translate(-353.794 -153.997)" fill="#003682"/>
      <path id="Path_4078" data-name="Path 4078" d="M356.484,155.3h.859v.986h-.859Zm0,1.929h.859v5.068h-.859Z" transform="translate(-346.733 -153.997)" fill="#003682"/>
      <path id="Path_4079" data-name="Path 4079" d="M359.3,161.409l.123.758a3.215,3.215,0,0,1-.649.08,1.482,1.482,0,0,1-.725-.149.855.855,0,0,1-.362-.391,3.087,3.087,0,0,1-.105-1.011v-2.914h-.631v-.671h.631v-1.254l.855-.515v1.769h.863v.671h-.863v2.962a1.548,1.548,0,0,0,.044.471.348.348,0,0,0,.149.167.554.554,0,0,0,.294.062,2.883,2.883,0,0,0,.377-.033" transform="translate(-345.507 -153.884)" fill="#003682"/>
      <path id="Path_4080" data-name="Path 4080" d="M357.831,162.291V155.3h.859v2.509a1.915,1.915,0,0,1,1.515-.7,2.033,2.033,0,0,1,.979.221,1.313,1.313,0,0,1,.594.613,2.829,2.829,0,0,1,.178,1.135v3.212H361.1v-3.212a1.312,1.312,0,0,0-.279-.935,1.034,1.034,0,0,0-.787-.294,1.4,1.4,0,0,0-.718.2,1.113,1.113,0,0,0-.478.54,2.4,2.4,0,0,0-.145.935v2.77Z" transform="translate(-343.197 -153.997)" fill="#003682"/>
      <path id="Path_4081" data-name="Path 4081" d="M362.3,161.409l.123.758a3.215,3.215,0,0,1-.649.08,1.482,1.482,0,0,1-.725-.149.856.856,0,0,1-.362-.391,3.087,3.087,0,0,1-.105-1.011v-2.914h-.631v-.671h.631v-1.254l.855-.515v1.769h.863v.671h-.863v2.962a1.55,1.55,0,0,0,.044.471.367.367,0,0,0,.149.167.553.553,0,0,0,.294.062,2.881,2.881,0,0,0,.377-.033" transform="translate(-337.642 -153.884)" fill="#003682"/>
      <path id="Path_4082" data-name="Path 4082" d="M360.827,162.291V155.3h.859v2.509a1.915,1.915,0,0,1,1.515-.7,2.033,2.033,0,0,1,.979.221,1.3,1.3,0,0,1,.594.613,2.828,2.828,0,0,1,.178,1.135v3.212h-.859v-3.212a1.312,1.312,0,0,0-.279-.935,1.034,1.034,0,0,0-.787-.294,1.4,1.4,0,0,0-.718.2,1.114,1.114,0,0,0-.478.54,2.406,2.406,0,0,0-.145.935v2.77Z" transform="translate(-335.332 -153.997)" fill="#003682"/>
      <path id="Path_4083" data-name="Path 4083" d="M366,159.347l.885.109a2.159,2.159,0,0,1-.776,1.207,2.343,2.343,0,0,1-1.45.431,2.312,2.312,0,0,1-1.762-.685,2.677,2.677,0,0,1-.653-1.921,2.83,2.83,0,0,1,.656-1.986,2.249,2.249,0,0,1,1.711-.7,2.178,2.178,0,0,1,1.66.692,2.753,2.753,0,0,1,.642,1.947c0,.051,0,.127,0,.228h-3.777a1.926,1.926,0,0,0,.471,1.276,1.4,1.4,0,0,0,1.058.446,1.337,1.337,0,0,0,.808-.246,1.671,1.671,0,0,0,.529-.794m-2.82-1.388h2.828a1.72,1.72,0,0,0-.323-.961,1.321,1.321,0,0,0-1.066-.5,1.359,1.359,0,0,0-.993.4,1.571,1.571,0,0,0-.446,1.058" transform="translate(-331.604 -152.684)" fill="#003682"/>
      <path id="Path_4084" data-name="Path 4084" d="M364.479,159.467l.848-.134a1.2,1.2,0,0,0,.4.783,1.387,1.387,0,0,0,.914.272,1.341,1.341,0,0,0,.877-.239.724.724,0,0,0,.286-.566.526.526,0,0,0-.25-.46,3.747,3.747,0,0,0-.881-.29,8.107,8.107,0,0,1-1.309-.413,1.272,1.272,0,0,1-.555-.482,1.3,1.3,0,0,1-.189-.678,1.352,1.352,0,0,1,.156-.631,1.436,1.436,0,0,1,.42-.478,1.882,1.882,0,0,1,.547-.25,2.592,2.592,0,0,1,.743-.1,2.9,2.9,0,0,1,1.048.174,1.39,1.39,0,0,1,.663.464,1.78,1.78,0,0,1,.3.783l-.837.116a.944.944,0,0,0-.333-.613,1.227,1.227,0,0,0-.776-.217,1.407,1.407,0,0,0-.845.2.565.565,0,0,0-.254.457.475.475,0,0,0,.105.3.805.805,0,0,0,.33.228c.087.033.341.105.758.217a10.121,10.121,0,0,1,1.272.4,1.208,1.208,0,0,1,.772,1.185,1.433,1.433,0,0,1-.25.8,1.589,1.589,0,0,1-.725.587,2.583,2.583,0,0,1-1.069.21,2.376,2.376,0,0,1-1.5-.413,1.9,1.9,0,0,1-.66-1.214" transform="translate(-325.745 -152.684)" fill="#003682"/>
      <path id="Path_4085" data-name="Path 4085" d="M369.255,160.9v-.743a1.864,1.864,0,0,1-1.606.859,2.045,2.045,0,0,1-.841-.174,1.4,1.4,0,0,1-.576-.431,1.646,1.646,0,0,1-.265-.638,4.6,4.6,0,0,1-.051-.8v-3.139h.859v2.813a4.921,4.921,0,0,0,.051.9.892.892,0,0,0,.344.533,1.052,1.052,0,0,0,.649.192,1.423,1.423,0,0,0,.725-.2,1.113,1.113,0,0,0,.479-.54,2.673,2.673,0,0,0,.141-.99v-2.715h.859V160.9Z" transform="translate(-321.973 -152.603)" fill="#003682"/>
      <path id="Path_4086" data-name="Path 4086" d="M367.42,162.921V155.91h.787v.66a1.879,1.879,0,0,1,.623-.58,1.692,1.692,0,0,1,.845-.192,2,2,0,0,1,1.146.333,2.053,2.053,0,0,1,.747.943,3.466,3.466,0,0,1,.254,1.33,3.415,3.415,0,0,1-.279,1.4,2.125,2.125,0,0,1-.812.953,2.087,2.087,0,0,1-1.117.333,1.6,1.6,0,0,1-.772-.185,1.709,1.709,0,0,1-.562-.457v2.469Zm.779-4.448a2.2,2.2,0,0,0,.4,1.446,1.216,1.216,0,0,0,.961.468,1.242,1.242,0,0,0,.979-.486,2.3,2.3,0,0,0,.41-1.5,2.246,2.246,0,0,0-.4-1.45,1.2,1.2,0,0,0-.953-.482,1.245,1.245,0,0,0-.971.515,2.3,2.3,0,0,0-.421,1.49" transform="translate(-318.025 -152.684)" fill="#003682"/>
      <path id="Path_4087" data-name="Path 4087" d="M368.918,162.921V155.91h.787v.66a1.878,1.878,0,0,1,.624-.58,1.692,1.692,0,0,1,.845-.192,2,2,0,0,1,1.145.333,2.054,2.054,0,0,1,.747.943,3.467,3.467,0,0,1,.254,1.33,3.413,3.413,0,0,1-.279,1.4,2.125,2.125,0,0,1-.812.953,2.086,2.086,0,0,1-1.116.333,1.6,1.6,0,0,1-.772-.185,1.75,1.75,0,0,1-.562-.457v2.469Zm.779-4.448a2.2,2.2,0,0,0,.4,1.446,1.216,1.216,0,0,0,.961.468,1.242,1.242,0,0,0,.979-.486,2.3,2.3,0,0,0,.41-1.5,2.247,2.247,0,0,0-.4-1.45,1.2,1.2,0,0,0-.953-.482,1.245,1.245,0,0,0-.971.515,2.3,2.3,0,0,0-.42,1.49" transform="translate(-314.093 -152.684)" fill="#003682"/>
      <path id="Path_4088" data-name="Path 4088" d="M370.33,158.444a2.594,2.594,0,0,1,.783-2.084,2.335,2.335,0,0,1,1.591-.562,2.283,2.283,0,0,1,1.707.681,2.606,2.606,0,0,1,.663,1.892,3.358,3.358,0,0,1-.294,1.541,2.084,2.084,0,0,1-.856.87,2.467,2.467,0,0,1-1.222.308,2.274,2.274,0,0,1-1.722-.681,2.73,2.73,0,0,1-.653-1.965m.881,0a2.159,2.159,0,0,0,.424,1.457,1.423,1.423,0,0,0,2.135,0,2.218,2.218,0,0,0,.42-1.486,2.085,2.085,0,0,0-.428-1.425,1.346,1.346,0,0,0-1.059-.482,1.371,1.371,0,0,0-1.069.478,2.159,2.159,0,0,0-.424,1.457" transform="translate(-310.386 -152.684)" fill="#003682"/>
      <path id="Path_4089" data-name="Path 4089" d="M371.914,160.978V155.91h.772v.769a2.144,2.144,0,0,1,.547-.71.969.969,0,0,1,.551-.17,1.668,1.668,0,0,1,.881.275l-.294.8a1.238,1.238,0,0,0-.631-.185.827.827,0,0,0-.507.167.909.909,0,0,0-.315.471,3.256,3.256,0,0,0-.145,1v2.654Z" transform="translate(-306.228 -152.684)" fill="#003682"/>
      <path id="Path_4090" data-name="Path 4090" d="M375.032,161.409l.123.758a3.213,3.213,0,0,1-.649.08,1.482,1.482,0,0,1-.725-.149.855.855,0,0,1-.363-.391,3.087,3.087,0,0,1-.105-1.011v-2.914h-.631v-.671h.631v-1.254l.856-.515v1.769h.863v.671h-.863v2.962a1.55,1.55,0,0,0,.044.471.368.368,0,0,0,.149.167.554.554,0,0,0,.294.062,2.88,2.88,0,0,0,.377-.033" transform="translate(-304.209 -153.884)" fill="#003682"/>
      <path id="Path_4091" data-name="Path 4091" d="M374.224,158.444a2.594,2.594,0,0,1,.783-2.084,2.334,2.334,0,0,1,1.591-.562,2.283,2.283,0,0,1,1.707.681,2.606,2.606,0,0,1,.663,1.892,3.356,3.356,0,0,1-.294,1.541,2.083,2.083,0,0,1-.855.87,2.476,2.476,0,0,1-1.222.308,2.274,2.274,0,0,1-1.722-.681,2.729,2.729,0,0,1-.653-1.965m.881,0a2.159,2.159,0,0,0,.424,1.457,1.423,1.423,0,0,0,2.135,0,2.217,2.217,0,0,0,.421-1.486,2.085,2.085,0,0,0-.428-1.425,1.346,1.346,0,0,0-1.059-.482,1.371,1.371,0,0,0-1.069.478,2.159,2.159,0,0,0-.424,1.457" transform="translate(-300.164 -152.684)" fill="#003682"/>
      <path id="Path_4092" data-name="Path 4092" d="M376.416,162.377v-4.4h-.758v-.671h.758v-.536a2.31,2.31,0,0,1,.091-.758,1.1,1.1,0,0,1,.435-.544,1.586,1.586,0,0,1,.877-.207,4.176,4.176,0,0,1,.8.087l-.131.747a2.774,2.774,0,0,0-.5-.047.768.768,0,0,0-.555.167.926.926,0,0,0-.16.627v.464h.986v.671h-.986v4.4Z" transform="translate(-296.4 -154.083)" fill="#003682"/>
      <path id="Path_4093" data-name="Path 4093" d="M379.53,161.409l.12.758a3.216,3.216,0,0,1-.649.08,1.482,1.482,0,0,1-.725-.149.855.855,0,0,1-.363-.391,3.084,3.084,0,0,1-.105-1.011v-2.914h-.631v-.671h.631v-1.254l.855-.515v1.769h.866v.671h-.866v2.962a1.55,1.55,0,0,0,.044.471.367.367,0,0,0,.149.167.554.554,0,0,0,.294.062,2.978,2.978,0,0,0,.381-.033" transform="translate(-292.412 -153.884)" fill="#003682"/>
      <path id="Path_4094" data-name="Path 4094" d="M378.057,162.291V155.3h.859v2.509a1.915,1.915,0,0,1,1.515-.7,2.032,2.032,0,0,1,.979.221,1.313,1.313,0,0,1,.595.613,2.832,2.832,0,0,1,.178,1.135v3.212h-.859v-3.212a1.312,1.312,0,0,0-.279-.935,1.034,1.034,0,0,0-.787-.294,1.388,1.388,0,0,0-.718.2,1.113,1.113,0,0,0-.478.54,2.406,2.406,0,0,0-.145.935v2.77Z" transform="translate(-290.102 -153.997)" fill="#003682"/>
      <path id="Path_4095" data-name="Path 4095" d="M383.232,159.347l.884.109a2.16,2.16,0,0,1-.776,1.207,2.344,2.344,0,0,1-1.45.431,2.312,2.312,0,0,1-1.762-.685,2.676,2.676,0,0,1-.653-1.921,2.814,2.814,0,0,1,.66-1.986,2.236,2.236,0,0,1,1.707-.7,2.178,2.178,0,0,1,1.66.692,2.754,2.754,0,0,1,.645,1.947c0,.051,0,.127-.007.228h-3.777a1.926,1.926,0,0,0,.471,1.276,1.4,1.4,0,0,0,1.059.446,1.338,1.338,0,0,0,.808-.246,1.672,1.672,0,0,0,.529-.794m-2.82-1.388h2.828a1.719,1.719,0,0,0-.323-.961,1.321,1.321,0,0,0-1.066-.5,1.359,1.359,0,0,0-.993.4,1.571,1.571,0,0,0-.446,1.058" transform="translate(-286.375 -152.684)" fill="#003682"/>
      <path id="Path_4096" data-name="Path 4096" d="M354.056,165.255v-6.993h5.057v.823h-4.133v2.142h3.872v.823h-3.872v2.378h4.292v.826Z" transform="translate(-353.105 -146.214)" fill="#003682"/>
      <path id="Path_4097" data-name="Path 4097" d="M355.816,163.943v-5.068h.772v.768a2.15,2.15,0,0,1,.547-.711.971.971,0,0,1,.551-.17,1.668,1.668,0,0,1,.881.276l-.294.8a1.237,1.237,0,0,0-.631-.185.828.828,0,0,0-.508.167.91.91,0,0,0-.315.471,3.256,3.256,0,0,0-.145,1v2.654Z" transform="translate(-348.486 -144.901)" fill="#003682"/>
      <path id="Path_4098" data-name="Path 4098" d="M360.235,163.319a3.168,3.168,0,0,1-.921.573,2.7,2.7,0,0,1-.946.167,1.842,1.842,0,0,1-1.283-.406,1.36,1.36,0,0,1-.449-1.044,1.409,1.409,0,0,1,.17-.682,1.394,1.394,0,0,1,.446-.493,2.031,2.031,0,0,1,.616-.279,5.946,5.946,0,0,1,.765-.13,7.738,7.738,0,0,0,1.53-.3l.007-.225a.936.936,0,0,0-.246-.736,1.419,1.419,0,0,0-.975-.294,1.535,1.535,0,0,0-.9.214,1.306,1.306,0,0,0-.424.75l-.841-.112a2.105,2.105,0,0,1,.377-.874,1.638,1.638,0,0,1,.758-.508,3.391,3.391,0,0,1,1.153-.181,2.972,2.972,0,0,1,1.055.156,1.375,1.375,0,0,1,.595.384,1.339,1.339,0,0,1,.265.58,4.443,4.443,0,0,1,.043.794v1.146a11.153,11.153,0,0,0,.058,1.512,1.935,1.935,0,0,0,.214.609h-.9a1.772,1.772,0,0,1-.17-.624m-.072-1.918a6.228,6.228,0,0,1-1.4.323,3.1,3.1,0,0,0-.747.174.747.747,0,0,0-.341.279.755.755,0,0,0,.141.979,1.124,1.124,0,0,0,.761.228,1.726,1.726,0,0,0,.881-.217,1.318,1.318,0,0,0,.569-.591,2.116,2.116,0,0,0,.138-.859Z" transform="translate(-346.336 -144.903)" fill="#003682"/>
      <path id="Path_4099" data-name="Path 4099" d="M358.12,162.432l.848-.134a1.2,1.2,0,0,0,.4.783,1.388,1.388,0,0,0,.914.272,1.341,1.341,0,0,0,.877-.239.724.724,0,0,0,.286-.565.526.526,0,0,0-.25-.46,3.745,3.745,0,0,0-.881-.29,8.106,8.106,0,0,1-1.309-.413,1.272,1.272,0,0,1-.555-.482,1.29,1.29,0,0,1-.189-.678,1.354,1.354,0,0,1,.156-.631,1.394,1.394,0,0,1,.421-.475,1.79,1.79,0,0,1,.547-.254,2.6,2.6,0,0,1,.743-.1,2.9,2.9,0,0,1,1.048.174,1.389,1.389,0,0,1,.663.464,1.777,1.777,0,0,1,.3.783l-.837.116a.945.945,0,0,0-.334-.613,1.227,1.227,0,0,0-.776-.218,1.406,1.406,0,0,0-.845.2.574.574,0,0,0-.254.457.475.475,0,0,0,.1.3.807.807,0,0,0,.33.228c.087.033.341.105.758.221a9.66,9.66,0,0,1,1.272.4,1.208,1.208,0,0,1,.772,1.185,1.444,1.444,0,0,1-.25.808,1.636,1.636,0,0,1-.725.587,2.643,2.643,0,0,1-1.069.207,2.375,2.375,0,0,1-1.5-.413,1.9,1.9,0,0,1-.66-1.214" transform="translate(-342.438 -144.901)" fill="#003682"/>
      <path id="Path_4100" data-name="Path 4100" d="M359.562,163.943v-5.068h.768v.711a1.828,1.828,0,0,1,.634-.6,1.8,1.8,0,0,1,.9-.225,1.691,1.691,0,0,1,.921.232,1.229,1.229,0,0,1,.508.656,1.826,1.826,0,0,1,1.566-.888,1.541,1.541,0,0,1,1.16.417,1.8,1.8,0,0,1,.406,1.287v3.476h-.855v-3.19a2.382,2.382,0,0,0-.083-.743.721.721,0,0,0-.3-.366.971.971,0,0,0-.518-.138,1.214,1.214,0,0,0-.888.355A1.578,1.578,0,0,0,363.43,161v2.944h-.856v-3.292a1.471,1.471,0,0,0-.21-.859.8.8,0,0,0-.689-.286,1.254,1.254,0,0,0-.671.192,1.077,1.077,0,0,0-.446.558,3.193,3.193,0,0,0-.138,1.058v2.628Z" transform="translate(-338.653 -144.901)" fill="#003682"/>
      <path id="Path_4101" data-name="Path 4101" d="M365.141,163.862v-.743a1.86,1.86,0,0,1-1.606.859,2.042,2.042,0,0,1-.841-.174,1.4,1.4,0,0,1-.576-.431,1.645,1.645,0,0,1-.265-.638,4.6,4.6,0,0,1-.051-.8v-3.139h.859v2.813a4.906,4.906,0,0,0,.051.9.891.891,0,0,0,.344.533,1.052,1.052,0,0,0,.649.192,1.422,1.422,0,0,0,.725-.2,1.114,1.114,0,0,0,.479-.54,2.673,2.673,0,0,0,.141-.99v-2.715h.859v5.068Z" transform="translate(-332.773 -144.819)" fill="#003682"/>
      <path id="Path_4102" data-name="Path 4102" d="M363.211,162.432l.848-.134a1.2,1.2,0,0,0,.4.783,1.387,1.387,0,0,0,.913.272,1.342,1.342,0,0,0,.877-.239.724.724,0,0,0,.286-.565.526.526,0,0,0-.25-.46,3.745,3.745,0,0,0-.881-.29,8.111,8.111,0,0,1-1.309-.413,1.271,1.271,0,0,1-.555-.482,1.29,1.29,0,0,1-.189-.678,1.354,1.354,0,0,1,.156-.631,1.393,1.393,0,0,1,.42-.475,1.791,1.791,0,0,1,.547-.254,2.594,2.594,0,0,1,.743-.1,2.9,2.9,0,0,1,1.048.174,1.39,1.39,0,0,1,.663.464,1.781,1.781,0,0,1,.3.783l-.837.116a.945.945,0,0,0-.333-.613,1.227,1.227,0,0,0-.776-.218,1.406,1.406,0,0,0-.845.2.575.575,0,0,0-.254.457.475.475,0,0,0,.105.3.806.806,0,0,0,.33.228c.087.033.341.105.758.221a9.67,9.67,0,0,1,1.272.4,1.208,1.208,0,0,1,.772,1.185,1.444,1.444,0,0,1-.25.808,1.637,1.637,0,0,1-.725.587,2.643,2.643,0,0,1-1.069.207,2.376,2.376,0,0,1-1.5-.413,1.9,1.9,0,0,1-.66-1.214" transform="translate(-329.074 -144.901)" fill="#003682"/>
      <path id="Path_4103" data-name="Path 4103" d="M366.53,163.227v-1.918h-1.9v-.8h1.9v-1.9h.812v1.9h1.9v.8h-1.9v1.918Z" transform="translate(-325.359 -145.316)" fill="#003682"/>
      <path id="Path_4104" data-name="Path 4104" d="M367.007,165.256v-6.993h2.635a6.526,6.526,0,0,1,1.066.065,2.075,2.075,0,0,1,.863.33,1.7,1.7,0,0,1,.562.674,2.284,2.284,0,0,1-.355,2.461,2.721,2.721,0,0,1-2.052.62h-1.794v2.842Zm.924-3.669h1.809a1.9,1.9,0,0,0,1.272-.333,1.185,1.185,0,0,0,.377-.939,1.294,1.294,0,0,0-.221-.754,1.042,1.042,0,0,0-.584-.41,3.8,3.8,0,0,0-.863-.065h-1.791Z" transform="translate(-319.109 -146.213)" fill="#003682"/>
      <path id="Path_4105" data-name="Path 4105" d="M368.772,163.943v-5.068h.769v.768a2.195,2.195,0,0,1,.547-.711.981.981,0,0,1,.555-.17,1.665,1.665,0,0,1,.877.276l-.294.8a1.225,1.225,0,0,0-.627-.185.838.838,0,0,0-.511.167.932.932,0,0,0-.315.471,3.372,3.372,0,0,0-.141,1v2.654Z" transform="translate(-314.476 -144.901)" fill="#003682"/>
      <path id="Path_4106" data-name="Path 4106" d="M369.584,161.409a2.6,2.6,0,0,1,.779-2.084,2.35,2.35,0,0,1,1.6-.562,2.283,2.283,0,0,1,1.707.682,2.606,2.606,0,0,1,.663,1.892,3.356,3.356,0,0,1-.294,1.541,2.084,2.084,0,0,1-.856.87,2.476,2.476,0,0,1-1.222.308,2.275,2.275,0,0,1-1.722-.681,2.73,2.73,0,0,1-.652-1.965m.881,0a2.159,2.159,0,0,0,.424,1.457,1.423,1.423,0,0,0,2.135,0,2.218,2.218,0,0,0,.42-1.486,2.085,2.085,0,0,0-.428-1.425,1.415,1.415,0,0,0-2.128,0,2.142,2.142,0,0,0-.424,1.454" transform="translate(-312.344 -144.901)" fill="#003682"/>
      <path id="Path_4107" data-name="Path 4107" d="M371.25,164.363l.834.127a.806.806,0,0,0,.29.562,1.428,1.428,0,0,0,.874.239,1.53,1.53,0,0,0,.921-.239,1.166,1.166,0,0,0,.439-.667,5.268,5.268,0,0,0,.062-1.1,1.759,1.759,0,0,1-1.4.663,1.923,1.923,0,0,1-1.62-.754,2.911,2.911,0,0,1-.569-1.809,3.384,3.384,0,0,1,.261-1.338,2.016,2.016,0,0,1,1.932-1.283,1.813,1.813,0,0,1,1.479.729v-.613h.79v4.379a4.186,4.186,0,0,1-.239,1.678,1.782,1.782,0,0,1-.765.779,2.624,2.624,0,0,1-1.283.286,2.437,2.437,0,0,1-1.468-.41,1.375,1.375,0,0,1-.536-1.229m.71-3.041a2.185,2.185,0,0,0,.4,1.454,1.305,1.305,0,0,0,1.987,0,2.14,2.14,0,0,0,.4-1.428,2.078,2.078,0,0,0-.413-1.4,1.271,1.271,0,0,0-.993-.471,1.228,1.228,0,0,0-.972.464,2.059,2.059,0,0,0-.4,1.381" transform="translate(-308.418 -144.903)" fill="#003682"/>
      <path id="Path_4108" data-name="Path 4108" d="M372.667,163.943v-5.068h.772v.768a2.145,2.145,0,0,1,.547-.711.97.97,0,0,1,.551-.17,1.667,1.667,0,0,1,.881.276l-.294.8a1.237,1.237,0,0,0-.631-.185.827.827,0,0,0-.507.167.909.909,0,0,0-.315.471,3.255,3.255,0,0,0-.145,1v2.654Z" transform="translate(-304.251 -144.901)" fill="#003682"/>
      <path id="Path_4109" data-name="Path 4109" d="M377.086,163.319a3.218,3.218,0,0,1-.921.573,2.7,2.7,0,0,1-.946.167,1.843,1.843,0,0,1-1.283-.406,1.36,1.36,0,0,1-.449-1.044,1.41,1.41,0,0,1,.17-.682,1.394,1.394,0,0,1,.446-.493,2.031,2.031,0,0,1,.616-.279,5.949,5.949,0,0,1,.765-.13,7.738,7.738,0,0,0,1.53-.3l.007-.225a.936.936,0,0,0-.246-.736,1.425,1.425,0,0,0-.975-.294,1.535,1.535,0,0,0-.9.214,1.306,1.306,0,0,0-.424.75l-.841-.112a2.107,2.107,0,0,1,.377-.874,1.637,1.637,0,0,1,.758-.508,3.391,3.391,0,0,1,1.153-.181,2.972,2.972,0,0,1,1.055.156,1.376,1.376,0,0,1,.595.384,1.34,1.34,0,0,1,.265.58,4.444,4.444,0,0,1,.044.794v1.146a11.194,11.194,0,0,0,.058,1.512,1.859,1.859,0,0,0,.217.609h-.9a1.769,1.769,0,0,1-.17-.624m-.073-1.918a6.23,6.23,0,0,1-1.4.323,3.105,3.105,0,0,0-.747.174.747.747,0,0,0-.341.279.755.755,0,0,0,.141.979,1.123,1.123,0,0,0,.761.228,1.727,1.727,0,0,0,.881-.217,1.317,1.317,0,0,0,.569-.591,2.113,2.113,0,0,0,.138-.859Z" transform="translate(-302.102 -144.903)" fill="#003682"/>
      <path id="Path_4110" data-name="Path 4110" d="M375.066,163.943v-5.068h.768v.711a1.826,1.826,0,0,1,.634-.6,1.8,1.8,0,0,1,.9-.225,1.691,1.691,0,0,1,.921.232,1.251,1.251,0,0,1,.511.656,1.816,1.816,0,0,1,1.563-.888,1.541,1.541,0,0,1,1.16.417,1.8,1.8,0,0,1,.406,1.287v3.476h-.855v-3.19a2.383,2.383,0,0,0-.083-.743.721.721,0,0,0-.3-.366.971.971,0,0,0-.518-.138,1.213,1.213,0,0,0-.888.355,1.578,1.578,0,0,0-.352,1.138v2.944h-.855v-3.292a1.47,1.47,0,0,0-.21-.859.8.8,0,0,0-.689-.286,1.255,1.255,0,0,0-.671.192,1.077,1.077,0,0,0-.446.558,3.192,3.192,0,0,0-.138,1.058v2.628Z" transform="translate(-297.954 -144.901)" fill="#003682"/>
      <path id="Path_4111" data-name="Path 4111" d="M377.311,163.943v-5.068h.769v.711a1.779,1.779,0,0,1,1.537-.823,1.691,1.691,0,0,1,.921.232,1.252,1.252,0,0,1,.511.656,1.816,1.816,0,0,1,1.562-.888,1.541,1.541,0,0,1,1.16.417,1.78,1.78,0,0,1,.406,1.287v3.476h-.856v-3.19a2.389,2.389,0,0,0-.083-.743.721.721,0,0,0-.3-.366.968.968,0,0,0-.515-.138,1.2,1.2,0,0,0-.888.355,1.562,1.562,0,0,0-.355,1.138v2.944h-.855v-3.292a1.471,1.471,0,0,0-.21-.859.8.8,0,0,0-.689-.286,1.254,1.254,0,0,0-.671.192,1.077,1.077,0,0,0-.446.558,3.192,3.192,0,0,0-.138,1.058v2.628Z" transform="translate(-292.061 -144.901)" fill="#003682"/>
      <path id="Path_4112" data-name="Path 4112" d="M383.232,162.312l.884.109a2.16,2.16,0,0,1-.776,1.207,2.343,2.343,0,0,1-1.45.431,2.312,2.312,0,0,1-1.762-.685,2.676,2.676,0,0,1-.653-1.921,2.8,2.8,0,0,1,.66-1.983,2.226,2.226,0,0,1,1.707-.707,2.177,2.177,0,0,1,1.66.692,2.754,2.754,0,0,1,.645,1.947c0,.051,0,.127-.007.228h-3.777a1.927,1.927,0,0,0,.471,1.276,1.4,1.4,0,0,0,1.059.446,1.338,1.338,0,0,0,.808-.247,1.672,1.672,0,0,0,.529-.794m-2.82-1.388h2.828a1.719,1.719,0,0,0-.323-.961,1.318,1.318,0,0,0-1.066-.493,1.356,1.356,0,0,0-.993.4,1.571,1.571,0,0,0-.446,1.058" transform="translate(-286.375 -144.901)" fill="#003682"/>
      <path id="Path_4113" data-name="Path 4113" d="M354,164.374a2.594,2.594,0,0,1,.783-2.084,2.341,2.341,0,0,1,1.591-.562,2.283,2.283,0,0,1,1.707.681,2.606,2.606,0,0,1,.663,1.892,3.366,3.366,0,0,1-.294,1.541,2.082,2.082,0,0,1-.855.87,2.476,2.476,0,0,1-1.222.308,2.274,2.274,0,0,1-1.722-.682,2.73,2.73,0,0,1-.653-1.965m.881,0a2.16,2.16,0,0,0,.424,1.457,1.423,1.423,0,0,0,2.135,0,2.224,2.224,0,0,0,.42-1.486,2.084,2.084,0,0,0-.428-1.425,1.346,1.346,0,0,0-1.058-.482,1.363,1.363,0,0,0-1.07.482,2.143,2.143,0,0,0-.424,1.454" transform="translate(-353.264 -137.118)" fill="#003682"/>
      <path id="Path_4114" data-name="Path 4114" d="M356.188,168.306v-4.4h-.758v-.671h.758V162.7a2.311,2.311,0,0,1,.091-.758,1.117,1.117,0,0,1,.435-.544,1.586,1.586,0,0,1,.877-.207,4.175,4.175,0,0,1,.8.087l-.127.747a3.223,3.223,0,0,0-.508-.047.767.767,0,0,0-.554.167.926.926,0,0,0-.16.627v.464h.986v.671h-.986v4.4Z" transform="translate(-349.499 -138.519)" fill="#003682"/>
      <path id="Path_4115" data-name="Path 4115" d="M359.3,167.336l.123.761a3.222,3.222,0,0,1-.649.08,1.479,1.479,0,0,1-.725-.152.821.821,0,0,1-.362-.392,3.066,3.066,0,0,1-.105-1.011v-2.911h-.631v-.671h.631v-1.254l.855-.515v1.769h.863v.671h-.863v2.958a1.584,1.584,0,0,0,.044.475.326.326,0,0,0,.149.163.522.522,0,0,0,.294.062,2.356,2.356,0,0,0,.377-.033" transform="translate(-345.509 -138.317)" fill="#003682"/>
      <path id="Path_4116" data-name="Path 4116" d="M357.829,168.22v-6.993h.859v2.509a1.915,1.915,0,0,1,1.515-.7,2.075,2.075,0,0,1,.979.221,1.3,1.3,0,0,1,.594.613,2.829,2.829,0,0,1,.178,1.135v3.212H361.1v-3.212a1.313,1.313,0,0,0-.279-.935,1.034,1.034,0,0,0-.787-.294,1.388,1.388,0,0,0-.718.2,1.113,1.113,0,0,0-.478.54,2.406,2.406,0,0,0-.145.935v2.77Z" transform="translate(-343.202 -138.433)" fill="#003682"/>
      <path id="Path_4117" data-name="Path 4117" d="M363,165.276l.884.109a2.159,2.159,0,0,1-.776,1.207,2.344,2.344,0,0,1-1.45.431,2.313,2.313,0,0,1-1.762-.685,2.676,2.676,0,0,1-.653-1.921,2.8,2.8,0,0,1,.66-1.983,2.226,2.226,0,0,1,1.707-.707,2.172,2.172,0,0,1,1.66.692,2.754,2.754,0,0,1,.645,1.947c0,.051,0,.127-.007.228h-3.777a1.927,1.927,0,0,0,.471,1.276,1.4,1.4,0,0,0,1.059.446,1.338,1.338,0,0,0,.809-.246,1.672,1.672,0,0,0,.529-.794m-2.82-1.388h2.828a1.719,1.719,0,0,0-.323-.961,1.319,1.319,0,0,0-1.066-.493,1.355,1.355,0,0,0-.993.4,1.571,1.571,0,0,0-.446,1.058" transform="translate(-339.474 -137.12)" fill="#003682"/>
      <path id="Path_4118" data-name="Path 4118" d="M361.611,168.22v-6.993h5.057v.823h-4.133v2.142h3.872v.823h-3.872V167.4h4.292v.823Z" transform="translate(-333.273 -138.432)" fill="#003682"/>
      <path id="Path_4119" data-name="Path 4119" d="M366.707,166.826v-.743a1.864,1.864,0,0,1-1.606.859,2.043,2.043,0,0,1-.841-.174,1.4,1.4,0,0,1-.577-.431,1.645,1.645,0,0,1-.265-.638,4.6,4.6,0,0,1-.051-.8v-3.139h.859v2.813a4.92,4.92,0,0,0,.051.9.892.892,0,0,0,.344.533,1.051,1.051,0,0,0,.649.192A1.423,1.423,0,0,0,366,166a1.113,1.113,0,0,0,.479-.54,2.673,2.673,0,0,0,.141-.99v-2.715h.859v5.068Z" transform="translate(-328.662 -137.039)" fill="#003682"/>
      <path id="Path_4120" data-name="Path 4120" d="M364.87,166.907v-5.068h.772v.769a2.145,2.145,0,0,1,.547-.71.969.969,0,0,1,.551-.17,1.668,1.668,0,0,1,.881.275l-.294.8a1.238,1.238,0,0,0-.631-.185.827.827,0,0,0-.507.167.909.909,0,0,0-.315.471,3.255,3.255,0,0,0-.145,1v2.654Z" transform="translate(-324.719 -137.12)" fill="#003682"/>
      <path id="Path_4121" data-name="Path 4121" d="M365.682,164.374a2.6,2.6,0,0,1,.779-2.084,2.35,2.35,0,0,1,1.595-.562,2.283,2.283,0,0,1,1.707.681,2.607,2.607,0,0,1,.663,1.892,3.369,3.369,0,0,1-.294,1.541,2.083,2.083,0,0,1-.856.87,2.476,2.476,0,0,1-1.222.308,2.274,2.274,0,0,1-1.722-.682,2.73,2.73,0,0,1-.652-1.965m.881,0a2.159,2.159,0,0,0,.424,1.457,1.423,1.423,0,0,0,2.135,0,2.224,2.224,0,0,0,.421-1.486,2.085,2.085,0,0,0-.428-1.425,1.346,1.346,0,0,0-1.058-.482,1.363,1.363,0,0,0-1.069.482,2.142,2.142,0,0,0-.424,1.454" transform="translate(-322.587 -137.118)" fill="#003682"/>
      <path id="Path_4122" data-name="Path 4122" d="M367.268,168.851V161.84h.787v.66a1.917,1.917,0,0,1,.624-.58,1.692,1.692,0,0,1,.845-.192,2,2,0,0,1,1.145.334,2.052,2.052,0,0,1,.747.943,3.463,3.463,0,0,1,.254,1.33,3.414,3.414,0,0,1-.279,1.4,2.125,2.125,0,0,1-.812.953,2.087,2.087,0,0,1-1.117.334,1.6,1.6,0,0,1-.772-.185,1.748,1.748,0,0,1-.562-.457v2.469Zm.779-4.448a2.2,2.2,0,0,0,.4,1.446,1.216,1.216,0,0,0,.961.468,1.242,1.242,0,0,0,.979-.486,2.3,2.3,0,0,0,.41-1.5,2.247,2.247,0,0,0-.4-1.45,1.2,1.2,0,0,0-.953-.482,1.245,1.245,0,0,0-.971.515,2.3,2.3,0,0,0-.421,1.49" transform="translate(-318.424 -137.118)" fill="#003682"/>
      <path id="Path_4123" data-name="Path 4123" d="M372.445,165.276l.884.109a2.159,2.159,0,0,1-.776,1.207,2.632,2.632,0,0,1-3.215-.254,2.691,2.691,0,0,1-.649-1.921,2.814,2.814,0,0,1,.656-1.983,2.239,2.239,0,0,1,1.711-.707,2.177,2.177,0,0,1,1.66.692,2.754,2.754,0,0,1,.645,1.947c0,.051,0,.127-.007.228h-3.777a1.926,1.926,0,0,0,.471,1.276,1.4,1.4,0,0,0,1.058.446,1.338,1.338,0,0,0,.808-.246,1.673,1.673,0,0,0,.529-.794m-2.82-1.388h2.828a1.718,1.718,0,0,0-.323-.961,1.318,1.318,0,0,0-1.066-.493,1.355,1.355,0,0,0-.993.4,1.571,1.571,0,0,0-.446,1.058" transform="translate(-314.694 -137.12)" fill="#003682"/>
      <path id="Path_4124" data-name="Path 4124" d="M373.786,166.284a3.168,3.168,0,0,1-.921.573,2.7,2.7,0,0,1-.946.167,1.826,1.826,0,0,1-1.283-.41,1.347,1.347,0,0,1-.45-1.04,1.409,1.409,0,0,1,.616-1.174,2.035,2.035,0,0,1,.616-.279,5.955,5.955,0,0,1,.765-.13,7.734,7.734,0,0,0,1.53-.3l.007-.225a.936.936,0,0,0-.247-.736,1.425,1.425,0,0,0-.975-.294,1.535,1.535,0,0,0-.9.214,1.306,1.306,0,0,0-.424.75l-.841-.112a2.107,2.107,0,0,1,.377-.874,1.639,1.639,0,0,1,.758-.508,3.39,3.39,0,0,1,1.153-.181,2.971,2.971,0,0,1,1.055.156,1.375,1.375,0,0,1,.595.384,1.338,1.338,0,0,1,.265.58,4.442,4.442,0,0,1,.044.794v1.145a11.193,11.193,0,0,0,.058,1.512,1.862,1.862,0,0,0,.217.609h-.9a1.771,1.771,0,0,1-.171-.624m-.072-1.918a6.222,6.222,0,0,1-1.4.323,3.1,3.1,0,0,0-.747.174.746.746,0,0,0-.341.279.755.755,0,0,0,.141.979,1.124,1.124,0,0,0,.761.228,1.726,1.726,0,0,0,.881-.218,1.317,1.317,0,0,0,.569-.591,2.116,2.116,0,0,0,.138-.859Z" transform="translate(-310.764 -137.12)" fill="#003682"/>
      <path id="Path_4125" data-name="Path 4125" d="M371.765,166.907v-5.068h.772v.721a1.827,1.827,0,0,1,1.613-.834,2.122,2.122,0,0,1,.841.163,1.342,1.342,0,0,1,.576.431,1.67,1.67,0,0,1,.268.634,5.261,5.261,0,0,1,.047.834v3.118h-.859v-3.081a2.33,2.33,0,0,0-.1-.783.81.81,0,0,0-.355-.417,1.148,1.148,0,0,0-.6-.156,1.388,1.388,0,0,0-.946.348,1.711,1.711,0,0,0-.4,1.323v2.766Z" transform="translate(-306.619 -137.12)" fill="#003682"/>
      <path id="Path_4126" data-name="Path 4126" d="M378.622,161.227h.924v4.038a4.874,4.874,0,0,1-.236,1.678,2.065,2.065,0,0,1-.863,1.008,3.074,3.074,0,0,1-1.635.388,3.351,3.351,0,0,1-1.606-.337,1.93,1.93,0,0,1-.892-.982,4.678,4.678,0,0,1-.268-1.754v-4.038h.924v4.035a3.961,3.961,0,0,0,.17,1.345,1.267,1.267,0,0,0,.58.663,2.026,2.026,0,0,0,1.011.236,1.926,1.926,0,0,0,1.454-.464,2.664,2.664,0,0,0,.435-1.78Z" transform="translate(-300.629 -138.433)" fill="#003682"/>
      <path id="Path_4127" data-name="Path 4127" d="M375.959,166.907v-5.068h.772v.721a1.827,1.827,0,0,1,1.613-.834,2.123,2.123,0,0,1,.841.163,1.342,1.342,0,0,1,.576.431,1.671,1.671,0,0,1,.268.634,5.265,5.265,0,0,1,.047.834v3.118h-.859v-3.081a2.238,2.238,0,0,0-.1-.783.81.81,0,0,0-.355-.417,1.148,1.148,0,0,0-.6-.156,1.388,1.388,0,0,0-.946.348,1.711,1.711,0,0,0-.4,1.323v2.766Z" transform="translate(-295.61 -137.12)" fill="#003682"/>
      <path id="Path_4128" data-name="Path 4128" d="M377.46,161.227h.859v.986h-.859Zm0,1.929h.859v5.068h-.859Z" transform="translate(-291.67 -138.433)" fill="#003682"/>
      <path id="Path_4129" data-name="Path 4129" d="M377.969,164.374a2.594,2.594,0,0,1,.783-2.084,2.334,2.334,0,0,1,1.591-.562,2.283,2.283,0,0,1,1.707.681,2.606,2.606,0,0,1,.663,1.892,3.366,3.366,0,0,1-.294,1.541,2.081,2.081,0,0,1-.855.87,2.476,2.476,0,0,1-1.222.308,2.274,2.274,0,0,1-1.722-.682,2.729,2.729,0,0,1-.653-1.965m.881,0a2.158,2.158,0,0,0,.424,1.457,1.423,1.423,0,0,0,2.135,0,2.224,2.224,0,0,0,.42-1.486,2.085,2.085,0,0,0-.428-1.425,1.346,1.346,0,0,0-1.059-.482,1.363,1.363,0,0,0-1.069.482,2.141,2.141,0,0,0-.424,1.454" transform="translate(-290.334 -137.118)" fill="#003682"/>
      <path id="Path_4130" data-name="Path 4130" d="M379.556,166.907v-5.068h.772v.721a1.827,1.827,0,0,1,1.613-.834,2.123,2.123,0,0,1,.841.163,1.343,1.343,0,0,1,.576.431,1.73,1.73,0,0,1,.268.634,5.268,5.268,0,0,1,.047.834v3.118h-.859v-3.081a2.24,2.24,0,0,0-.1-.783.811.811,0,0,0-.355-.417,1.148,1.148,0,0,0-.6-.156,1.387,1.387,0,0,0-.946.348,1.711,1.711,0,0,0-.4,1.323v2.766Z" transform="translate(-286.168 -137.12)" fill="#003682"/>
    </g>
  </g>
</svg>
